<?xml version="1.0" encoding="UTF-8"?>
<svg id="Layer_1" data-name="Layer 1" xmlns="http://www.w3.org/2000/svg" version="1.1" viewBox="0 0 204 70">
  <polygon points="46.475 16.033 37.934 32.519 29.651 16.033 22.984 16.033 34.428 38.378 41.263 38.378 52.733 16.033 46.475 16.033" fill="#101820" stroke-width="0"/>
  <polygon points="70.577 16.033 70.577 21.217 79.979 21.217 79.979 38.378 86.149 38.378 86.149 21.217 95.541 21.217 95.541 16.033 70.577 16.033" fill="#101820" stroke-width="0"/>
  <path d="M117.088,29.065c1.278-.382,2.406-1.234,3.098-2.37.621-.941.941-2.308.941-3.951,0-1.776-.399-3.098-1.243-4.155-1.287-1.669-3.658-2.548-6.854-2.548h-15.722v22.345h6.001v-8.363h7.644l5.708,8.363h6.942l-6.534-9.313.018-.009ZM103.345,21.138h9.144c1.642,0,2.14.408,2.415.817l.018.018c.169.213.257.648.257,1.172,0,.222-.027.799-.293,1.216-.249.417-.959.63-2.104.63h-9.437s0-3.853,0-3.853Z" fill="#101820" stroke-width="0"/>
  <path d="M178.37,19.815c-1.642-2.761-4.829-4.101-9.73-4.101h-14.115v22.665h14.284c4.838,0,7.999-1.447,9.65-4.412.994-1.705,1.367-3.666,1.367-7.244,0-3.382-.408-5.327-1.447-6.916l-.009.009ZM160.641,20.898h7.226c2.654,0,4.164.586,5.069,1.98.479.657.737,1.997.772,3.977,0,2.202-.249,3.675-.755,4.403-.87,1.332-2.486,1.926-5.22,1.926h-7.084v-12.287h-.009Z" fill="#101820" stroke-width="0"/>
  <polygon points="187.701 33.096 187.701 29.651 203.334 29.651 203.334 24.387 187.701 24.387 187.701 21.004 203.805 21.004 203.805 15.713 181.637 15.713 181.637 38.387 204 38.387 204 33.096 187.701 33.096" fill="#101820" stroke-width="0"/>
  <g>
    <path d="M18.528,16.033h-1.731l-2.264,4.465.932,2.14s1.811,3.684,2.725,5.557l2.61,5.211,2.432,4.971h6.605l-11.328-22.345h.018Z" fill="#101820" stroke-width="0"/>
    <polygon points="11.807 16.033 0 38.378 6.481 38.378 14.994 21.564 14.994 21.573 17.8 16.033 11.807 16.033" fill="#4c61ff" stroke-width="0"/>
  </g>
  <g>
    <path d="M4.075,48.197v5.992h-1.633v-5.992H.053v-1.358h6.427v1.358h-2.406Z" fill="#101820" stroke-width="0"/>
    <path d="M16.477,50.318c-.222.391-.568.621-.941.692l1.722,3.178h-1.802l-1.429-2.859h-1.935v2.859h-1.58v-7.351h4.093c.941,0,1.518.311,1.82.826.222.337.328.763.328,1.367,0,.559-.107.994-.266,1.287h-.009ZM15.074,48.578c-.133-.257-.408-.382-.843-.382h-2.14v1.838h2.228c.355,0,.63-.107.737-.311.062-.142.107-.382.107-.568,0-.213-.027-.462-.08-.586l-.009.009Z" fill="#101820" stroke-width="0"/>
    <path d="M22.363,54.189h-1.642l2.85-7.351h2.024l2.69,7.351h-1.678l-.621-1.731h-2.965l-.648,1.731h-.009ZM24.715,48.862l-.169-.604-.178.613-.835,2.255h1.962l-.781-2.264Z" fill="#101820" stroke-width="0"/>
    <path d="M35.928,54.189h-3.658v-7.351h3.551c1.181,0,1.909.275,2.344.835.462.568.586,1.287.586,2.717,0,1.589-.124,2.29-.542,2.867-.435.604-1.119.932-2.29.932h.009ZM37.197,50.398c0-.817-.089-1.5-.355-1.758-.32-.32-.63-.417-1.252-.417h-1.731v4.59h1.722c.648,0,1.003-.133,1.296-.444.266-.302.328-1.083.328-1.962l-.009-.009Z" fill="#101820" stroke-width="0"/>
    <path d="M43.119,54.189v-7.351h5.611v1.385h-4.039v1.589h3.888v1.394h-3.888v1.598h4.084v1.376h-5.655v.009Z" fill="#101820" stroke-width="0"/>
    <path d="M66.689,54.189h-1.802l-1.305-5.344-1.358,5.344h-1.802l-2.113-7.351h1.713l1.42,5.362,1.261-5.362h1.802l1.278,5.362,1.429-5.362h1.562l-2.095,7.351h.009Z" fill="#101820" stroke-width="0"/>
    <path d="M72.77,54.189v-7.351h1.633v7.351h-1.633Z" fill="#101820" stroke-width="0"/>
    <path d="M82.456,48.197v5.992h-1.633v-5.992h-2.388v-1.358h6.427v1.358h-2.406Z" fill="#101820" stroke-width="0"/>
    <path d="M93.624,54.189v-2.947h-3.143v2.947h-1.598v-7.351h1.598v2.965h3.143v-2.965h1.598v7.351h-1.598Z" fill="#101820" stroke-width="0"/>
    <path d="M111.876,53.053c-.515.746-1.438,1.234-2.912,1.234-1.181,0-2.077-.266-2.681-.879-.604-.595-.932-1.536-.932-2.921,0-1.243.284-2.157.852-2.77.595-.63,1.474-.994,2.752-.994,1.767,0,2.672.648,3.081,1.509.231.497.337,1.03.337,1.403h-1.633c0-.346-.115-.701-.302-.95-.284-.391-.737-.559-1.509-.559-.684,0-1.127.195-1.438.55-.337.373-.462.994-.462,1.847,0,.977.195,1.562.524,1.926.346.382.861.515,1.42.515.701,0,1.127-.213,1.385-.506.249-.275.364-.586.399-.994h1.625c-.009.391-.08.968-.515,1.589h.009Z" fill="#101820" stroke-width="0"/>
    <path d="M122.831,47.904c.426.568.621,1.412.621,2.557,0,1.198-.231,2.042-.648,2.654-.515.763-1.491,1.172-2.93,1.172s-2.379-.391-2.912-1.154c-.453-.621-.666-1.5-.666-2.654,0-1.092.195-1.935.63-2.512.55-.763,1.456-1.243,2.947-1.243s2.397.417,2.956,1.181h0ZM121.331,52.44c.355-.355.506-1.127.506-1.935s-.151-1.545-.453-1.873c-.32-.337-.701-.568-1.509-.568s-1.172.222-1.491.577c-.284.328-.453,1.083-.453,1.873s.178,1.589.55,1.962c.293.302.692.497,1.403.497.763,0,1.154-.231,1.447-.533h0Z" fill="#101820" stroke-width="0"/>
    <path d="M132.251,54.189l-2.956-4.98v4.98h-1.536v-7.351h1.873l2.832,4.732v-4.732h1.536v7.351h-1.749Z" fill="#101820" stroke-width="0"/>
    <path d="M140.241,48.223v1.58h3.711v1.403h-3.711v2.974h-1.598v-7.351h5.513v1.385h-3.915v.009Z" fill="#101820" stroke-width="0"/>
    <path d="M148.399,54.189v-7.351h1.633v7.351h-1.633Z" fill="#101820" stroke-width="0"/>
    <path d="M158.369,54.189h-3.658v-7.351h3.551c1.181,0,1.909.275,2.344.835.462.568.586,1.287.586,2.717,0,1.589-.124,2.29-.542,2.867-.435.604-1.119.932-2.29.932h.009ZM159.638,50.398c0-.817-.089-1.5-.355-1.758-.32-.32-.63-.417-1.261-.417h-1.731v4.59h1.722c.648,0,1.003-.133,1.296-.444.266-.302.328-1.083.328-1.962v-.009Z" fill="#101820" stroke-width="0"/>
    <path d="M165.56,54.189v-7.351h5.611v1.385h-4.039v1.589h3.888v1.394h-3.888v1.598h4.084v1.376h-5.655v.009Z" fill="#101820" stroke-width="0"/>
    <path d="M180.11,54.189l-2.956-4.98v4.98h-1.536v-7.351h1.873l2.832,4.732v-4.732h1.536v7.351h-1.749Z" fill="#101820" stroke-width="0"/>
    <path d="M192.645,53.053c-.515.746-1.438,1.234-2.912,1.234-1.181,0-2.077-.266-2.681-.879-.604-.595-.932-1.536-.932-2.921,0-1.243.284-2.157.852-2.77.595-.63,1.474-.994,2.752-.994,1.767,0,2.672.648,3.081,1.509.231.497.337,1.03.337,1.403h-1.633c0-.346-.115-.701-.302-.95-.284-.391-.737-.559-1.509-.559-.684,0-1.127.195-1.438.55-.337.373-.462.994-.462,1.847,0,.977.195,1.562.524,1.926.346.382.861.515,1.42.515.701,0,1.127-.213,1.385-.506.249-.275.364-.586.4-.994h1.625c-.009.391-.08.968-.515,1.589h.009Z" fill="#101820" stroke-width="0"/>
    <path d="M197.413,54.189v-7.351h5.611v1.385h-4.039v1.589h3.888v1.394h-3.888v1.598h4.084v1.376h-5.655v.009Z" fill="#101820" stroke-width="0"/>
  </g>
  <g>
    <path d="M64.381,16.033h-1.731l-2.264,4.465.932,2.14s1.811,3.684,2.725,5.557l2.61,5.211,2.432,4.971h6.614l-11.328-22.345h.009Z" fill="#101820" stroke-width="0"/>
    <polygon points="57.66 16.033 45.853 38.378 52.334 38.378 60.848 21.564 60.856 21.573 63.662 16.033 57.66 16.033" fill="#4c61ff" stroke-width="0"/>
  </g>
  <g>
    <path d="M142.558,16.033h-1.731l-2.264,4.465.932,2.14s1.811,3.684,2.725,5.557l2.61,5.211,2.432,4.971h6.614l-11.328-22.345h.009Z" fill="#101820" stroke-width="0"/>
    <polygon points="135.837 16.033 124.03 38.378 130.511 38.378 139.024 21.564 139.033 21.573 141.839 16.033 135.837 16.033" fill="#4c61ff" stroke-width="0"/>
  </g>
</svg>