<?xml version="1.0" encoding="utf-8"?>
<!-- Generator: Adobe Illustrator 19.2.1, SVG Export Plug-In . SVG Version: 6.00 Build 0)  -->
<svg version="1.1" id="layer" xmlns="http://www.w3.org/2000/svg" xmlns:xlink="http://www.w3.org/1999/xlink" x="0px" y="0px"
	 viewBox="0 0 652 652" style="enable-background:new 0 0 652 652;" xml:space="preserve">
<style type="text/css">
	.st0{fill:#C09C7C;}
</style>
<path id="Fill-18" class="st0" d="M393.5,333.2c5.8,0,10.7-4.9,10.7-10.8c0-5.9-4.9-10.8-10.7-10.8s-10.7,4.9-10.7,10.8
	C382.8,328.3,387.7,333.2,393.5,333.2"/>
<path d="M599.2,290.8c-8.5,0-14,3.1-17.3,7.9c-3.3-5-8.6-7.9-15.6-7.9c-8,0-13.2,3.1-16,7.2v-5.5h-17.9v59.9h17.9v-33.8
	c0-7.1,3.3-11.3,9.3-11.3c5.7,0,8.6,3.8,8.6,9.8v35.2h17.9v-33.8c0-7.1,3.3-11.3,9.3-11.3c5.7,0,8.6,3.8,8.6,9.8v35.2h17.9v-36.8
	C621.9,300.7,612.9,290.8,599.2,290.8 M495.4,336.6c-7.8,0-13.7-5.6-13.7-14.1c0-8.5,6-14.1,13.7-14.1c7.8,0,13.7,5.6,13.7,14.1
	C509.1,331,503.2,336.6,495.4,336.6L495.4,336.6z M495.4,290.8c-17.5,0-31.6,13.8-31.6,31.6s14.1,31.6,31.6,31.6
	c17.5,0,31.6-13.8,31.6-31.6S513,290.8,495.4,290.8L495.4,290.8z M438.4,336.4c-7.8,0-13.5-5.6-13.5-13.9s5.7-13.9,13.5-13.9
	c5.2,0,9.5,2.5,11.6,6.7l15.6-9.1c-5.1-9.2-15.4-15.3-27-15.3c-18.1,0-31.6,13.8-31.6,31.6s13.5,31.6,31.6,31.6
	c11.7,0,21.8-6.1,27-15.5l-15.6-9C448,333.8,443.6,336.4,438.4,336.4 M319.4,337.1c-8.2,0-14.2-5.6-14.2-14.6c0-9,6-14.6,14.2-14.6
	c8.2,0,14.2,5.6,14.2,14.6C333.6,331.4,327.7,337.1,319.4,337.1L319.4,337.1z M333.6,298.1c-3.9-4.6-9.8-7.3-17.8-7.3
	c-15.6,0-28.5,13.8-28.5,31.6s12.9,31.6,28.5,31.6c8,0,13.8-2.8,17.8-7.3v5.6h17.9v-59.9h-17.9V298.1L333.6,298.1z M273.8,275.7
	l-17.9,5.4v11.4h-9.5v17.3h9.5V331c0,16.8,6.8,23.8,30.2,21.4v-16.3c-7.9,0.5-12.3,0-12.3-5.2v-21.2h12.3v-17.3h-12.3V275.7
	 M223.5,352.4h17.9v-59.9h-17.9V352.4z M359.9,352.4h17.9v-86.7l-17.9,5.5V352.4 M186.1,337.1c-8.2,0-14.2-5.6-14.2-14.6
	c0-9,6-14.6,14.2-14.6c8.2,0,14.2,5.6,14.2,14.6C200.3,331.4,194.3,337.1,186.1,337.1L186.1,337.1z M189.7,290.8
	c-8,0-13.8,2.7-17.8,7.3v-5.6H154v83.9h17.9v-29.6c3.9,4.6,9.8,7.3,17.8,7.3c15.6,0,28.5-13.8,28.5-31.6
	C218.2,304.6,205.3,290.8,189.7,290.8L189.7,290.8z M113.5,337.1c-8.2,0-14.2-5.6-14.2-14.6c0-9,6-14.6,14.2-14.6
	c8.2,0,14.2,5.6,14.2,14.6C127.7,331.4,121.8,337.1,113.5,337.1L113.5,337.1z M127.7,298.1c-3.9-4.6-9.8-7.3-17.8-7.3
	c-15.6,0-28.5,13.8-28.5,31.6s12.9,31.6,28.5,31.6c8,0,13.8-2.8,17.8-7.3v5.6h17.9v-59.9h-17.9V298.1L127.7,298.1z M53.3,308.6
	c5.2,0,9.5,2.5,11.6,6.7l15.6-9.1c-5.1-9.2-15.4-15.3-27-15.3c-18.1,0-31.6,13.8-31.6,31.6s13.5,31.6,31.6,31.6
	c11.7,0,21.8-6.1,27-15.5l-15.6-9c-1.9,4.2-6.3,6.7-11.6,6.7c-7.8,0-13.5-5.6-13.5-13.9S45.5,308.6,53.3,308.6 M232.7,288
	c5.8,0,10.7-4.9,10.7-10.8c0-5.9-4.9-10.8-10.7-10.8s-10.7,4.9-10.7,10.8C222,283.1,226.9,288,232.7,288"/>
</svg>
