<?xml version="1.0" encoding="utf-8"?>
<!-- Generator: Adobe Illustrator 19.2.1, SVG Export Plug-In . SVG Version: 6.00 Build 0)  -->
<svg version="1.1" id="layer" xmlns="http://www.w3.org/2000/svg" xmlns:xlink="http://www.w3.org/1999/xlink" x="0px" y="0px"
	 viewBox="0 0 652 652" style="enable-background:new 0 0 652 652;" xml:space="preserve">
<style type="text/css">
	.st0{fill:#2E2624;}
	.st1{fill:#FFFFFF;}
	.st2{fill:#FFF000;}
</style>
<rect x="20.2" y="167.9" class="st0" width="600" height="307.4"/>
<polygon class="st1" points="136.5,282.7 129.2,290 129.2,329.6 135.7,336.2 159.6,336.2 166.1,329.5 166.1,320.9 158.1,320.9 
	158.1,328.8 137.2,328.8 137.2,290 158.1,290 158.1,297.9 166.1,297.9 166.1,290 158.9,282.7 "/>
<polygon class="st1" points="170.1,282.7 170.1,290.1 180.9,290.1 180.9,328.8 170.1,328.8 170.1,336.2 199.6,336.2 199.6,328.8 
	188.9,328.8 188.9,290.1 199.6,290.1 199.6,282.7 "/>
<polygon class="st1" points="203,282.7 203,290.1 216.3,290.1 216.3,336.2 224.3,336.2 224.3,290.1 237.6,290.1 237.6,282.7 "/>
<polygon class="st1" points="270.1,282.7 270.1,300.8 259.4,311.4 248.8,300.8 248.8,282.7 240.8,282.7 240.8,303.3 255.3,317.9 
	255.3,336.2 263.5,336.2 263.5,318 278,303.4 278,282.7 "/>
<polygon class="st2" points="352.7,282.6 352.7,313.6 327.4,288.4 327.4,282.6 319.4,282.6 319.4,336.2 327.4,336.2 327.4,299 
	352.7,324.2 352.7,336.2 360.7,336.2 360.7,282.6 "/>
<polygon class="st2" points="416.9,282.7 416.9,336.2 448.3,336.2 448.3,328.8 425,328.8 425,312.9 447.1,312.9 447.1,305.5 
	425,305.5 425,290.1 448,290.1 448,282.7 "/>
<polygon class="st2" points="486.9,282.7 486.9,291.6 474.6,304 462.2,291.6 462.2,282.7 454.2,282.7 454.2,293.9 469.3,309.1 
	454.2,324.2 454.2,336.2 462.2,336.2 462.2,326.5 474.6,314.1 486.9,326.5 486.9,336.2 494.9,336.2 494.9,324.2 479.8,309.1 
	494.9,293.9 494.9,282.7 "/>
<polygon class="st2" points="283.4,282.7 283.4,290.1 294.1,290.1 294.1,328.8 283.4,328.8 283.4,336.2 312.9,336.2 312.9,328.8 
	302.1,328.8 302.1,290.1 312.9,290.1 312.9,282.7 "/>
<path class="st2" d="M382.5,290.1h8.8l10.6,10.6v17.6l-10.6,10.6h-8.8V290.1z M367.4,282.7v7.4h7v38.8h-7v7.4h27.1l15.3-15.3V298
	l-15.3-15.3H367.4z"/>
</svg>
