<?xml version="1.0" encoding="utf-8"?>
<!-- Generator: Adobe Illustrator 19.2.1, SVG Export Plug-In . SVG Version: 6.00 Build 0)  -->
<svg version="1.1" id="layer" xmlns="http://www.w3.org/2000/svg" xmlns:xlink="http://www.w3.org/1999/xlink" x="0px" y="0px"
	 viewBox="0 0 652 652" style="enable-background:new 0 0 652 652;" xml:space="preserve">
<style type="text/css">
	.st0{fill:#0EBCDC;}
</style>
<g transform="translate(1 .85)">
	<path id="a" class="st0" d="M56.9,481c3.5,0,7.8-0.7,12.7-2.8l4.2-1.4v10.6l-2.8,0.7c-5.6,1.4-11.3,2.8-15.5,2.8
		c-14.8,0-25.4-9.2-25.4-28.2c0-18.4,10.6-28.2,25.4-28.2c4.2,0,9.9,0.7,15.5,2.8l2.8,0.7v10.6l-4.2-1.4c-5.6-1.4-9.9-2.8-12.7-2.8
		c-9.9,0-14.8,5.6-14.8,18.4S47,481,56.9,481z"/>
	<path id="b" class="st0" d="M97.1,490.2H85.9v-44.5c0-4.9,2.1-7.1,6.4-8.5c6.4-2.1,11.3-2.8,16.2-2.8c6.4,0,11.3,1.4,14.1,4.2
		c5.6-2.8,11.3-4.2,17.6-4.2c14.1,0,19.8,7.8,19.8,19.1v36h-11.3v-35.3c0-5.6-2.1-9.9-9.2-9.9c-4.9,0-7.8,1.4-11.3,2.8
		c0.7,1.4,1.4,4.2,1.4,6.4v36h-11.3v-35.3c0-5.6-2.1-9.9-9.2-9.9c-2.8,0-5.6,0-10.6,2.1v43.8H97.1z"/>
	<g transform="translate(19.9)">
		<path id="a_1_" class="st0" d="M197.4,481c3.5,0,7.8-0.7,12.7-2.8l4.2-1.4v10.6l-2.8,0.7c-5.6,1.4-11.3,2.8-15.5,2.8
			c-14.8,0-25.4-9.2-25.4-28.2c0-18.4,10.6-28.2,25.4-28.2c4.2,0,9.9,0.7,15.5,2.8l2.8,0.7v10.6l-4.2-1.4c-5.6-1.4-9.9-2.8-12.7-2.8
			c-9.9,0-14.8,5.6-14.8,18.4S187.5,481,197.4,481z"/>
	</g>
	<path class="st0" d="M371.7,474.7v-21.2c0-13.4-6.4-18.4-21.2-18.4c-5.6,0-11.3,0.7-18.4,2.8v9.9h0.7c6.4-2.1,12-2.8,16.9-2.8
		c9.2,0,10.6,2.8,10.6,9.2v3.5h-12c-12.7,0-24.7,3.5-24.7,16.9c0,17.6,21.9,16.9,26.1,16.9c0,0,12.7-0.7,16.2-2.8
		c2.8-2.1,4.9-4.9,4.9-8.5C371.7,476.1,371.7,474.7,371.7,474.7z M361.1,478.2c0,1.4-0.7,2.1-1.4,2.1c-1.4,1.4-8.5,1.4-8.5,1.4
		c-4.9,0-15.5,0.7-15.5-7.8c0-5.6,4.2-8.5,12-8.5h13.4V478.2z"/>
	<g transform="translate(21.9)">
		<path id="b_1_" class="st0" d="M251.7,490.2h-11.3v-44.5c0-4.9,2.1-7.1,6.4-8.5c6.4-2.1,11.3-2.8,16.2-2.8
			c6.4,0,11.3,1.4,14.1,4.2c5.6-2.8,11.3-4.2,17.6-4.2c14.1,0,19.8,7.8,19.8,19.1v36h-11.3v-35.3c0-5.6-2.1-9.9-9.2-9.9
			c-4.9,0-7.8,1.4-11.3,2.8c0.7,1.4,1.4,4.2,1.4,6.4v36h-11.3v-35.3c0-5.6-2.1-9.9-9.2-9.9c-2.8,0-5.6,0-10.6,2.1v43.8H251.7z"/>
	</g>
	<path class="st0" d="M411.3,435.1c-2.1,0-4.9-0.7-7.1-0.7c-14.1,0-21.2,5.6-21.2,18.4v36.7h12v-36.7c0-6.4,1.4-9.2,10.6-9.2
		c1.4,0,3.5,0,5.6,0.7V435.1z M458.6,490.2l-16.2-26.1l-4.9,5.6c-3.5,3.5-2.8,5.6-2.8,12v8.5h-11.3v-71.3h11.3V457l19.1-21.2h14.1
		l-16.9,18.4l21.2,36C472,490.2,458.6,490.2,458.6,490.2z M565.9,478.9c-2.1,1.4-4.9,2.1-9.9,2.1c-5.6,0-7.8-3.5-7.8-9.2V445H563
		v-9.2h-14.1v-16.9h-11.3v16.9h-7.8v9.2h7.8v26.8c0,12.7,5.6,19.1,17.6,19.1c5.6,0,9.2-1.4,11.3-2.1v-9.9H565.9z M519.3,478.2
		l-2.8,0.7c-6.4,2.1-10.6,2.1-15.5,2.1c-9.2,0-15.5-4.2-16.2-14.1h33.9c3.5,0,5.6-2.1,5.6-5.6c0-18.4-9.9-26.8-24.7-26.8
		c-13.4,0-25.4,8.5-25.4,28.2c0,18.4,10.6,27.5,26.8,27.5c6.4,0,10.6-0.7,17.6-2.8h0.7C519.3,487.4,519.3,478.2,519.3,478.2z
		 M499.5,443.6c9.9,0,13.4,6.4,13.4,14.8h-27.5C486.1,449.3,491,443.6,499.5,443.6z M589.9,466.9l10.6,1.4c5.6,0.7,7.8,3.5,7.8,6.4
		c0,5.6-4.9,7.1-10.6,7.1s-9.9,0-18.4-2.8l-3.5-0.7v9.9l2.1,0.7c7.8,2.1,12.7,2.8,19.8,2.8c12,0,21.9-4.9,21.9-16.9
		c0-8.5-5.6-13.4-15.5-14.8l-9.9-1.4c-5.6-0.7-7.8-2.8-7.8-6.4c0-4.9,4.2-7.1,9.2-7.1c5.6,0,12,1.4,17.6,3.5h0.7v-9.9
		c-6.4-2.1-11.3-2.8-18.4-2.8c-11.3,0-20.5,5.6-20.5,16.9C575,460.6,580.7,464.8,589.9,466.9z"/>
	<path id="c" class="st0" d="M193.1,318.7l-16.2,4.9c-21.2,5.6-38.1,9.9-51.5,9.9c-38.1,0-57.9-23.3-57.9-71.3
		c0-48.7,19.1-72,57.9-72c13.4,0,30.4,4.2,51.5,9.9l16.2,4.9v-40.9l-10.6-2.8c-23.3-7.1-43.8-10.6-62.1-10.6
		c-60,0-100.9,38.1-100.9,111.5c0,76.2,40.9,111.5,101.6,111.5c17.6,0,38.1-4.2,62.1-11.3l10.6-2.8v-40.9H193.1z"/>
	<path class="st0" d="M261.6,370.9c7.1,0,12.7-5.6,12.7-12.7V212.8c0-19.1-9.9-28.2-27.5-33.9c-7.1-2.1-14.1-4.2-20.5-5.6v198.4
		C226.3,370.9,254.6,370.9,261.6,370.9z M416.2,358.9V152.1c-6.4,1.4-13.4,3.5-20.5,5.6c-17.6,5.6-27.5,14.8-27.5,33.9v179.3h35.3
		C410.6,370.9,416.2,365.3,416.2,358.9z M332.9,370.9c7.1,0,12.7-5.6,12.7-12.7v-144c0-19.1-9.9-28.2-27.5-33.9
		c-7.1-2.1-14.1-4.2-20.5-5.6v196.2C297.6,370.9,332.9,370.9,332.9,370.9z"/>
	<g transform="translate(60.1)">
		<path id="c_1_" class="st0" d="M617.4,318.7l-16.2,4.9c-21.2,5.6-38.1,9.9-51.5,9.9c-38.1,0-57.9-23.3-57.9-71.3
			c0-48.7,19.1-72,57.9-72c13.4,0,30.4,4.2,51.5,9.9l16.2,4.9v-40.9l-10.6-2.8c-23.3-7.1-43.8-10.6-62.1-10.6
			c-60,0-100.9,38.1-100.9,111.5c0,76.2,40.9,111.5,101.6,111.5c17.6,0,38.1-4.2,62.1-11.3l10.6-2.8v-40.9H617.4z"/>
	</g>
</g>
</svg>
