<svg width="985" height="304" viewBox="0 0 985 304" fill="none" xmlns="http://www.w3.org/2000/svg">
<path fill-rule="evenodd" clip-rule="evenodd" d="M94.7652 104.471C97.256 102.231 98.6027 100.555 96.5921 100.555C92.3907 100.555 66.9497 104.309 61.7083 85.093C56.4634 65.8791 84.5095 7.90221 85.5668 5.41726C86.5825 3.03017 84.4835 0 81.4035 0C78.3789 0 76.1603 3.28181 75.8414 3.68374C47.2164 39.5792 7.25416 84.4097 2.10635 103.734C-10.9174 152.66 39.4375 172.489 71.2222 176.113C71.7855 176.176 72.0646 175.731 72.0646 175.388V158.016C72.0646 134.572 80.8384 117.013 94.7652 104.471" fill="#13C636"/>
<path fill-rule="evenodd" clip-rule="evenodd" d="M890.235 104.471C887.744 102.231 886.397 100.555 888.408 100.555C892.609 100.555 918.05 104.309 923.292 85.093C928.537 65.8791 900.491 7.90221 899.433 5.41726C898.418 3.03017 900.517 0 903.597 0C906.621 0 908.84 3.28181 909.159 3.68374C937.784 39.5792 977.746 84.4097 982.894 103.734C995.917 152.66 945.563 172.489 913.778 176.113C913.215 176.176 912.937 175.731 912.937 175.388V158.016C912.937 134.572 904.162 117.013 890.235 104.471" fill="#13C636"/>
<path fill-rule="evenodd" clip-rule="evenodd" d="M856.781 229.373C856.781 248.348 831.409 259.188 814.898 259.188C797.234 259.188 772.246 248.348 772.246 229.373V162.51C772.246 143.546 797.234 134.641 814.898 134.641C831.409 134.641 856.781 143.546 856.781 162.51V229.373ZM814.898 93.2148C775.729 93.608 730.011 116.444 730.011 162.51V232.582C730.011 279.424 775.729 301.493 814.898 301.877C853.297 301.493 899.02 279.424 899.02 232.582V162.51C899.02 116.444 853.297 93.608 814.898 93.2148V93.2148Z" fill="#13C636"/>
<path fill-rule="evenodd" clip-rule="evenodd" d="M561.651 229.373C561.651 248.348 536.27 259.188 519.763 259.188C502.104 259.188 477.116 248.348 477.116 229.373V162.51C477.116 143.546 502.104 134.641 519.763 134.641C536.27 134.641 561.651 143.546 561.651 162.51V229.373ZM519.763 93.2148C480.599 93.608 434.879 116.444 434.879 162.51V232.582C434.879 279.424 480.599 301.493 519.763 301.877C558.163 301.493 603.887 279.424 603.887 232.582V162.51C603.887 116.444 558.163 93.608 519.763 93.2148V93.2148Z" fill="#13C636"/>
<path fill-rule="evenodd" clip-rule="evenodd" d="M431.714 108.47C400.451 99.94 377.332 96.3716 343.827 96.3663C310.31 96.3576 287.133 99.9348 255.927 108.438C254.447 108.772 254.158 110.301 254.84 111.224C265.523 120.125 270.007 132.022 272.083 145.448C289.246 141.24 304.721 138.785 322.708 137.77V300.501C322.691 301.081 323.111 301.438 323.722 301.438H363.913C364.607 301.492 364.948 301.188 364.94 300.538V137.798C382.236 138.829 396.665 141.272 413.698 145.448C416.291 132.098 421.702 119.648 432.645 111.313C433.615 110.1 432.781 108.76 431.714 108.47" fill="#13C636"/>
<path fill-rule="evenodd" clip-rule="evenodd" d="M731.541 94.6519C728.538 94.2273 719.67 92.9376 711.86 93.233C673.387 94.7183 629.878 117.607 629.878 162.511V166.132V232.588V300.936C629.864 301.514 630.282 301.873 630.896 301.873H671.087C671.782 301.927 672.123 301.623 672.109 300.971V297.347H672.116V162.511C672.116 147.703 690.2 138.547 705.286 135.461C709.673 120.697 718.292 110.046 731.484 99.3667C733.796 97.4951 733.672 94.949 731.541 94.6519" fill="#13C636"/>
<path fill-rule="evenodd" clip-rule="evenodd" d="M210.547 174.33C210.547 174.804 210.367 175.239 210.069 175.553C209.745 175.899 209.282 176.12 208.773 176.12H131.737V162.014C131.737 142.77 154.421 133.743 172.336 133.743C189.083 133.743 210.558 142.77 210.558 162.014L210.547 174.33ZM172.336 91.7276C132.611 92.1225 88.8996 115.286 88.8996 162.014V233.08C88.8996 280.591 132.611 302.976 172.336 303.366C200.796 303.081 233.2 291.212 248.622 266.05C249.137 265.215 248.681 264.114 247.898 263.652C234.3 255.792 226.407 251.439 212.931 243.792C212.506 243.551 212.048 243.551 211.704 244.129C204.341 256.494 185.548 263.318 172.336 263.318C154.421 263.318 131.737 252.321 131.737 233.08V211.848H241.859C247.742 211.848 252.508 207.042 252.508 201.109V162.014C252.508 115.286 211.282 92.1225 172.336 91.7276V91.7276Z" fill="#13C636"/>
</svg>
