<?xml version="1.0" encoding="UTF-8"?>
<svg id="Layer_1" xmlns="http://www.w3.org/2000/svg" xmlns:xlink="http://www.w3.org/1999/xlink" version="1.1" viewBox="0 0 233 233">
  <!-- Generator: Adobe Illustrator 29.1.0, SVG Export Plug-In . SVG Version: 2.1.0 Build 142)  -->
  <defs>
    <style>
      .st0 {
        fill: none;
      }

      .st1 {
        fill: #1f8e46;
      }

      .st2 {
        fill: #0a5e28;
      }

      .st3 {
        fill: #fff;
      }

      .st4 {
        clip-path: url(#clippath);
      }
    </style>
    <clipPath id="clippath">
      <rect class="st0" y="0" width="233" height="233" rx="23" ry="23"/>
    </clipPath>
  </defs>
  <g class="st4">
    <g>
      <rect class="st1" y="0" width="233" height="233" rx="23" ry="23"/>
      <path class="st2" d="M107,233l-71.7-71.7,4-8.4,4.6-72,36.9-9.2,15.2,15.3,6.5-7.6h32.1l18.9,18.9,19.8-20.8h21.2s38.5,38.5,38.5,38.5v117h-126Z"/>
      <path class="st3" d="M141.1,96.7c0-14.7-10.6-25-25.9-25h-23.1v89.6h23.1c15.2,0,25.9-10.2,25.9-24.9s-3.9-15.9-10.7-20c6.9-4.1,10.7-11,10.7-19.7ZM107.1,109.1v-23.2h6.9c6.1,0,12.2,3.6,12.2,11.5s-6.1,11.7-12.2,11.7h-6.9ZM126.1,135.2c0,8.2-6.3,11.9-12.2,11.9h-6.9v-23.7h6.9c8.4,0,12.2,5.9,12.2,11.8Z"/>
      <path class="st3" d="M35.3,161.3h15v-38.2h30.5v-14.2h-30.5v-23h30.5v-14.2h-45.5v89.6Z"/>
      <path class="st3" d="M181.8,111l-4.5-2.1c-8.3-3.9-12-8.2-12-13.9s5.7-10.5,10.9-10.5,11.8,5.1,12,12v1h14.2v-1.1c-.3-15-11.3-25.9-26.2-25.9s-26,10.6-26,24.8,7.2,20.5,21.4,26.7l4.9,2.1c7.9,3.4,11.6,7.8,11.6,13.8s-4.3,10.7-11,10.7-12.4-3.6-12.5-13.7v-1.1h-14.3v2.7c0,15.2,11.1,26.2,26.5,26.2s26.4-10.7,26.4-24.9-11.4-22-21.4-26.7Z"/>
    </g>
  </g>
</svg>