<?xml version="1.0" encoding="UTF-8"?>
<svg id="Layer_1" data-name="Layer 1" xmlns="http://www.w3.org/2000/svg" version="1.1" viewBox="0 0 204 70">
  <defs>
    <style>
      .cls-1 {
        fill: #00bdff;
      }

      .cls-1, .cls-2 {
        stroke-width: 0px;
      }

      .cls-2 {
        fill: #152a4a;
      }
    </style>
  </defs>
  <g>
    <path class="cls-2" d="M137.003,37.265c1.072-1.072,1.618-2.464,1.599-4.157-.038-3.611-2.897-6.038-7.072-6.038-3.329,0-6.339,1.392-8.464,3.912-1.937,2.295-3.028,5.379-2.991,8.445.056,5.36,3.273,8.445,8.784,8.445,1.298,0,4.627-.15,7.354-1.542l.132-.056-.508-4.608-.263.132c-1.674.828-3.423,1.223-5.36,1.223-1.636,0-2.878-.489-3.611-1.429-.32-.451-.527-1.147-.564-1.655,5.473.113,9.066-.752,10.984-2.652l-.019-.019ZM126.564,35.29c.47-1.843,1.937-3.611,4.288-3.611,1.185,0,1.918.564,1.918,1.467,0,.414-.132.752-.414,1.034-.771.771-2.614,1.11-5.812,1.11h.019Z"/>
    <path class="cls-2" d="M122.859,27.484h-7.937l-5.06,5.962c-.508.621-.978,1.223-1.392,1.787l2.915-16.552-6.94,2.52-4.589,26.012-.038.245h6.508l1.091-6.226,1.636-1.655,3.235,7.862h7.956l-6.019-11.793,8.671-8.163h-.038Z"/>
    <g>
      <path class="cls-2" d="M26.652,27.051c-2.295,0-4.458,1.053-6.038,2.897l.282-2.464h-5.304l-4.909,27.875,6.583-2.389,1.053-5.812c.715.357,1.994.734,3.574.734,7.204,0,11.436-6.734,11.36-13.241-.056-4.627-2.633-7.599-6.583-7.599h-.019ZM21.611,43.114c-.978,0-1.787-.282-2.426-.828l.658-4.081c.639-3.649,2.483-6.113,4.589-6.113s2.332,2.295,2.351,2.991c.038,3.705-2.201,8.031-5.172,8.031Z"/>
      <path class="cls-2" d="M12.978,32.393l.865-4.89h-3.818l.132-.752c.169-.997.846-3.31,3.235-3.31.414,0,.79.038,1.129.094l.903-5.135c-.677-.113-1.411-.188-2.238-.188-1.016,0-3.649.188-5.868,2.013-1.862,1.467-3.216,3.893-3.705,6.677l-.094.583H.959l-.865,4.89h2.558L0,47.44h6.545l2.652-15.066h3.781v.019Z"/>
    </g>
    <path class="cls-2" d="M85.166,35.741c.489-2.821.113-4.984-1.129-6.47-1.241-1.467-3.31-2.219-6.188-2.219-4.232,0-7.185,1.335-7.994,1.749l-.132.075.47,4.382.282-.15c1.279-.715,3.498-1.448,5.549-1.448,1.279,0,2.144.263,2.596.809.395.47.376,1.053.301,1.467v.113c-7.317,0-11.981,2.784-12.846,7.655-.301,1.655.094,3.273,1.053,4.42.997,1.204,2.539,1.824,4.42,1.824,2.276,0,4.364-.79,5.925-2.238v1.787h5.605l2.05-11.718.038-.038ZM78.056,40.105c-.056.357-.169.696-.282.978-.621,1.241-2.013,2.125-3.367,2.125-.677,0-1.185-.188-1.505-.564-.301-.357-.395-.865-.282-1.505.339-1.918,2.276-2.897,5.755-2.897l-.339,1.881.019-.019Z"/>
    <path class="cls-2" d="M149.567,42.493l-.226.038c-.508.075-1.034.075-1.561.075-.997,0-1.429-.433-1.448-1.429,0-.752.169-1.843.282-2.445l1.204-6.47h3.536l.846-4.777h-3.517l.959-5.417h0l-6.47,2.351-.564,3.066h-2.52l-.828,4.777h2.483l-1.373,7.542c-.263,1.505-.376,2.596-.357,3.668.038,2.765,2.031,4.401,5.342,4.401,1.091,0,2.483-.132,3.31-.395l.884-5.003.019.019Z"/>
    <path class="cls-2" d="M161.266,35.233c-1.58-.752-2.295-1.373-2.295-2.05,0-.903.922-1.505,2.332-1.505,1.674,0,3.009.47,3.837.865l.207.094.846-4.777c-1.147-.508-2.859-.809-4.721-.809-5.191,0-8.765,2.84-8.727,6.922.019,2.182,1.486,3.987,4.345,5.379,1.937.94,2.332,1.599,2.351,2.332,0,.94-.865,1.542-2.257,1.542-1.73,0-3.799-.715-5.041-1.335l-.207-.113-.846,4.815c1.335.752,3.498,1.241,5.643,1.241,5.661,0,9.122-2.708,9.085-7.091-.038-2.897-2.445-4.476-4.552-5.549v.038Z"/>
    <path class="cls-2" d="M64.157,28.801c-.959-1.147-2.408-1.749-4.213-1.749-1.448,0-2.746.32-3.987.978-.997.545-1.956,1.298-2.784,2.182-.602-1.975-2.445-3.179-4.89-3.179s-4.589.959-6.339,2.84l.602-3.404h0l-6,2.182-3.31,18.79h6.339l2.031-11.567c.075-.395.188-.959.489-1.448.545-1.016,1.618-2.088,3.047-2.088.639,0,1.129.207,1.448.602.527.639.677,1.787.395,3.31l-1.975,11.191h6.339l2.05-11.605c.075-.433.263-1.053.489-1.505.508-.978,1.561-2.013,2.991-2.013.658,0,1.166.207,1.505.602.564.677.696,1.881.376,3.63l-1.918,10.871h6.339l2.069-11.68c.545-3.066.169-5.492-1.091-6.978v.038Z"/>
    <path class="cls-2" d="M101.943,27.127c-.451-.075-.734-.075-1.298-.075-1.843,0-4.307,1.11-5.85,3.592h0l.734-4.176-6.056,2.201-3.31,18.771h6.508l1.787-10.081c.075-.47.207-.94.357-1.317.715-1.843,2.408-2.934,4.495-2.934.658,0,1.147.075,1.58.15l.207.038,1.072-6.132-.207-.038h-.019Z"/>
  </g>
  <g>
    <path class="cls-1" d="M178.382,47.214c.414-.301.809-.583,1.204-.884.32-.245.997-.752,1.016-.771,14.088-10.721,16.796-18.752,18.922-28.928-6.339,15.875-15.875,20.558-20.991,23.943-3.254-3.781-4.42-9.028-2.614-13.824,1.373-3.649,4.194-6.357,7.636-7.749-5.003,1.166-9.31,4.646-11.191,9.686-2.577,6.846.094,14.407,6,18.564h0s.038,0,.038-.038h-.019Z"/>
    <path class="cls-2" d="M203.341,37.058c-1.975,5.248-6.959,8.539-12.451,8.821,3.461-5.097,11.454-14.201,8.84-29.229-.828,12.489-4.815,19.147-14.389,28.476h0c-1.147,1.11-2.37,2.257-3.668,3.461-.113.113-.245.226-.357.339h0c.263.113.545.226.809.32,8.464,3.179,17.831-.865,20.896-9.047.677-1.824.997-3.705.978-5.549-.132.809-.357,1.618-.658,2.408Z"/>
  </g>
</svg>