<?xml version="1.0" encoding="UTF-8" standalone="no"?>
<!-- Created with Inkscape (http://www.inkscape.org/) -->

<svg
   xmlns:dc="http://purl.org/dc/elements/1.1/"
   xmlns:cc="http://creativecommons.org/ns#"
   xmlns:rdf="http://www.w3.org/1999/02/22-rdf-syntax-ns#"
   xmlns:svg="http://www.w3.org/2000/svg"
   xmlns="http://www.w3.org/2000/svg"
   xmlns:sodipodi="http://sodipodi.sourceforge.net/DTD/sodipodi-0.dtd"
   xmlns:inkscape="http://www.inkscape.org/namespaces/inkscape"
   width="1241px"
   height="375px"
   viewBox="0 0 1241 375"
   version="1.1"
   id="SVGRoot"
   inkscape:version="0.92.5 (2060ec1f9f, 2020-04-08)"
   sodipodi:docname="FXTM logo.svg">
  <defs
     id="defs815" />
  <sodipodi:namedview
     id="base"
     pagecolor="#ffffff"
     bordercolor="#666666"
     borderopacity="1.0"
     inkscape:pageopacity="0.0"
     inkscape:pageshadow="2"
     inkscape:zoom="0.94365754"
     inkscape:cx="585.13041"
     inkscape:cy="168.25249"
     inkscape:document-units="px"
     inkscape:current-layer="layer1"
     showgrid="false"
     inkscape:window-width="1920"
     inkscape:window-height="1001"
     inkscape:window-x="-9"
     inkscape:window-y="-9"
     inkscape:window-maximized="1"
     showguides="true"
     inkscape:guide-bbox="true" />
  <metadata
     id="metadata818">
    <rdf:RDF>
      <cc:Work
         rdf:about="">
        <dc:format>image/svg+xml</dc:format>
        <dc:type
           rdf:resource="http://purl.org/dc/dcmitype/StillImage" />
        <dc:title></dc:title>
      </cc:Work>
    </rdf:RDF>
  </metadata>
  <g
     inkscape:label="Layer 1"
     inkscape:groupmode="layer"
     id="layer1">
    <path
       style="fill:#c6d72f;fill-opacity:1;stroke:none;stroke-width:1.65145755;stroke-opacity:1"
       d="M 182.68641,2.5415574 A 179.90017,185.3589 0 0 0 147.56068,6.2895898 V 39.567103 c 0,23.733542 15.66305,40.821966 15.66305,40.821966 l 61.86514,64.435881 64.39718,-66.335701 c 0,0 10.18994,-7.975384 13.73418,-27.907056 A 179.90017,185.3589 0 0 0 182.68641,2.5415574 Z"
       id="path1410"
       inkscape:connector-curvature="0" />
    <path
       style="fill:#eb5425;fill-opacity:1;stroke:none;stroke-width:1.65145755;stroke-opacity:1"
       d="M 109.58684,18.788415 A 179.90017,185.3589 0 0 0 2.7872093,187.90153 179.90017,185.3589 0 0 0 109.58684,357.11464 v -56.47856 c 0,0 -1.89849,-39.87271 37.97384,-75.94769 L 199.06551,171.6321 C 173.26664,145.39798 148.31148,120.06524 137.1165,108.87025 108.16159,79.915348 109.58684,40.041253 109.58684,40.041253 Z m 220.57925,63.34565 c -3.51248,7.958192 -8.54263,17.060332 -15.52112,24.836365 -7.1287,7.94342 -34.35172,36.05798 -63.01989,65.49062 l 60.17177,62.67152 c 14.54399,11.94684 22.09803,31.25238 25.98142,46.315 A 179.90017,185.3589 0 0 0 362.58562,187.90153 179.90017,185.3589 0 0 0 330.16609,82.134065 Z M 225.85333,198.87469 c -28.1975,28.86229 -53.13695,54.29494 -53.13695,54.29489 0,3e-5 -25.1557,15.66458 -25.1557,61.23295 v 55.25932 a 179.90017,185.3589 0 0 0 35.12573,3.59967 179.90017,185.3589 0 0 0 119.61778,-47.21492 v -20.18843 c 0,-32.27762 -18.51438,-47.94387 -18.51438,-47.94387 0,0 -27.90344,-28.45924 -57.93648,-59.03961 z"
       id="path1408"
       inkscape:connector-curvature="0" />
    <path
       style="fill:#151b2a;fill-opacity:1;stroke:none;stroke-width:1.65145755px;stroke-linecap:butt;stroke-linejoin:miter;stroke-opacity:1"
       d="m 530.39242,74.118683 c -23.53989,0 -58.4429,30.087487 -58.4429,62.036107 V 303.4842 h 36.45463 v -98.7778 h 85.57582 v -35.72889 h -85.57582 v -34.3742 c 1.64302,-10.75293 11.66236,-21.50356 24.4719,-23.88161 h 80.33761 V 74.118683 Z m 117.876,0 V 113.0118 c 0,14.97472 15.05019,34.44192 15.05019,34.44192 0,0 20.0418,20.30733 39.31244,39.84141 -18.34621,18.8832 -37.51583,38.62541 -37.51583,38.6254 0,0 -16.8468,14.67453 -16.8468,38.03514 v 39.52853 h 36.01274 v -30.24231 c 0,0 -1.79471,-12.8781 7.48962,-22.16243 3.4132,-3.41322 19.12789,-19.65864 36.56752,-37.71259 17.17469,17.42562 32.6144,33.10664 35.60955,36.21273 8.08636,8.38584 7.18965,21.56571 7.18965,21.56571 v 32.33889 h 36.33853 v -39.52853 c 0,-25.45703 -20.16585,-41.32838 -20.16585,-41.32838 l -34.02584,-35.09991 c 20.80334,-21.56939 41.8122,-43.37012 41.8122,-43.37012 0,0 12.37949,-11.42011 12.37949,-38.63185 V 74.118683 H 771.1375 v 29.906867 c 0,0 0.89851,12.2809 -8.08634,21.26574 -3.33206,3.33208 -18.45212,18.85332 -35.16442,36.0321 l -35.21928,-36.33207 c -8.08636,-6.88838 -8.3863,-17.37256 -8.3863,-17.37256 V 74.118683 Z m 194.3817,0 v 36.499807 h 60.94267 V 303.4842 h 36.274 V 110.61849 h 62.02641 V 74.118683 Z m 193.72368,0 V 303.4842 h 36.2547 V 132.11001 l 51.85,106.7577 h 25.0266 l 52.1564,-103.64186 V 303.4842 h 36.2514 V 74.118683 h -5.4994 -30.752 -10.8119 L 1137.0353,186.68875 1083.221,74.118683 h -10.5925 -28.1651 z"
       id="path1419"
       inkscape:connector-curvature="0" />
  </g>
</svg>
