<?xml version="1.0" encoding="utf-8"?>
<!-- Generator: Adobe Illustrator 24.0.1, SVG Export Plug-In . SVG Version: 6.00 Build 0)  -->
<svg version="1.1" id="Layer_1" xmlns="http://www.w3.org/2000/svg" xmlns:xlink="http://www.w3.org/1999/xlink" x="0px" y="0px"
	 viewBox="0 0 230 64.3" style="enable-background:new 0 0 230 64.3;" xml:space="preserve">
<style type="text/css">
	.st0{fill:#C21329;}
	.st1{fill:#000000;}
</style>
<g>
	<path class="st0" d="M32.4,48.4h-4l3-14.6h-14l-3,14.6h-4l6.8-32.6h4l-2.9,14.3h14l2.9-14.3h4L32.4,48.4z"/>
	<path class="st1" d="M64.9,19.6h-16l-2.2,10.8h13.7L59.5,34H45.8l-3,14.4h-4l6.8-32.6h20L64.9,19.6z"/>
	<path class="st1" d="M99.6,48.4h-4l4.7-22.7l-0.1,0L88.5,43.5H85l-4.3-17.9l-0.1,0.1l-4.7,22.6h-4l6.8-32.6h4l5.2,22.4l14.5-22.4
		h3.9L99.6,48.4z"/>
	<path class="st1" d="M122.3,48.4h-3.7l0.6-2.7c-2.1,2-4.3,3-6.6,3c-4.7,0-6.3-3.4-6.3-7.6c0-1.2,0.1-2.4,0.4-3.7
		c1.1-6,4.1-12.4,10.8-12.4c2.3,0,4.1,0.8,5.4,3l0.6-2.7h3.7L122.3,48.4z M121.4,33.3c0-2.4-0.8-4.6-3.9-4.6c-4.7,0-6.2,4.5-6.9,8.1
		c-0.2,1.2-0.4,2.4-0.4,3.6c0,2.4,0.9,4.4,4,4.4c4.6,0,6.1-4.4,6.8-8C121.2,35.7,121.4,34.5,121.4,33.3z"/>
	<path class="st1" d="M143.2,29.7c-0.9-0.7-1.6-1-2.8-1c-2.6,0-5.5,1.9-6.3,5.6l-2.9,14h-3.8l4.8-23.2h3.7l-0.5,2.6h0.1
		c2.2-2.2,4.6-2.9,7-2.9h0.2c1.5,0,2.5,0.5,3.5,1.2L143.2,29.7z"/>
	<path class="st1" d="M157.2,34l6.1,14.3h-4.2l-4.9-11.6l-5.3,5l-1.4,6.6h-3.7l6.8-32.5h3.7L150,36.4l0.1,0l12-11.2h4.5L157.2,34z"
		/>
	<path class="st1" d="M185.9,38h-14.8c-0.1,0.7-0.2,1.5-0.2,2.2c0,2.8,1.4,4.9,5,4.9c1.8,0,3.9-0.8,5.6-2.2l1.8,2.8
		c-2.6,2.1-5.2,2.9-8,2.9c-3.5,0-8-1.6-8-8c0-1.1,0.1-2.3,0.4-3.7c1.9-9.1,7.2-11.9,11.6-11.9c4.6,0,7.4,3.2,7.4,8.2
		c0,0.7,0,1.5-0.2,2.3L185.9,38z M182.8,34.8c0.1-0.6,0.2-1.2,0.2-1.7c0-3-1.7-4.6-4.3-4.6c-3.2,0-5.8,2.2-6.9,6.4h11V34.8z"/>
	<path class="st1" d="M199.9,28.6h-3.5L193.7,42c0,0.4-0.1,0.8-0.1,1.2c0,1,0.3,1.7,1.7,1.7h1.3l-0.7,3.5h-2c-2.6,0-4.2-1.4-4.2-4
		c0-0.5,0-1,0.1-1.5l2.9-14.3h-2.4l0.7-3.4h2.4l1.4-7.1h3.7l-1.4,7.1h3.5L199.9,28.6z"/>
	<path class="st1" d="M217,30.5c-1.5-1.3-3.3-2.1-5.8-2.1c-3.2,0-4.9,1.4-5.3,3.4c0,0.2,0,0.4,0,0.6c0,1.2,0.9,2,3.1,2.2
		c1.6,0.1,2.8,0.2,3.8,0.3c1,0.1,1.8,0.4,2.4,0.6c1.6,0.7,2.9,1.8,2.9,4.2c0,0.6-0.1,1.2-0.2,1.9c-0.9,4.3-5.4,6.9-10.8,6.9
		c-3.4,0-6.3-1.2-8.6-3.6l2.9-2.9c1.7,1.9,3.7,2.9,6.8,2.9c2.8,0,5.4-1.1,5.9-3.6c0-0.2,0-0.5,0-0.7c0-1.6-1.3-2-2.8-2.2
		c-0.8-0.2-1.7-0.3-2.6-0.3s-1.7-0.1-2.5-0.2c-2.6-0.6-4.2-2.1-4.2-4.7c0-0.5,0-1,0.2-1.5c1-4.5,4.9-6.9,9.7-6.9
		c3.7,0,5.9,1,7.8,2.6L217,30.5z"/>
</g>
</svg>
