<?xml version="1.0" encoding="utf-8"?>
<!-- Generator: Adobe Illustrator 25.4.1, SVG Export Plug-In . SVG Version: 6.00 Build 0)  -->
<svg version="1.1" id="Layer_1" xmlns="http://www.w3.org/2000/svg" xmlns:xlink="http://www.w3.org/1999/xlink" x="0px" y="0px"
	 viewBox="0 0 134 64.3" style="enable-background:new 0 0 134 64.3;" xml:space="preserve">
<style type="text/css">
	.st0{fill:#000000;}
	.st1{fill:#CD0015;}
</style>
<g>
	<g>
		<g>
			<g>
				<path class="st0" d="M9.2,51.6v3.7h3.9v-3.7h2.1v9.5h-2.1V57H9.2v4.1H7.1v-9.5H9.2z"/>
				<path class="st0" d="M27.5,51.6v1.8h-4.6v2.2h4v1.6h-4v3.9h-2.1v-9.5H27.5z"/>
				<path class="st0" d="M43,51.6l2.2,6.6l0,0l2.1-6.6h2.9v9.5h-2v-6.8l0,0L46,61.2h-1.6l-2.3-6.7l0,0v6.7h-2v-9.5H43V51.6z"/>
				<path class="st0" d="M60.7,51.6l3.6,9.5h-2.2L61.4,59h-3.6l-0.7,2.1H55l3.6-9.5H60.7z M60.9,57.5L59.7,54l0,0l-1.2,3.5H60.9z"/>
				<path class="st0" d="M74.1,51.6c0.4,0,0.8,0.1,1.2,0.2c0.3,0.1,0.6,0.3,0.9,0.6c0.2,0.2,0.4,0.5,0.6,0.8c0.1,0.3,0.2,0.7,0.2,1
					c0,0.6-0.1,1-0.4,1.5c-0.2,0.4-0.6,0.7-1.2,0.9l0,0c0.3,0.1,0.5,0.2,0.6,0.3c0.2,0.1,0.3,0.3,0.4,0.5s0.2,0.4,0.2,0.7
					c0,0.2,0.1,0.5,0.1,0.7s0,0.3,0,0.5s0,0.4,0,0.6c0,0.2,0.1,0.4,0.1,0.6c0,0.2,0.1,0.4,0.2,0.5h-2c-0.1-0.3-0.2-0.7-0.2-1.1
					c0-0.4-0.1-0.8-0.1-1.2c-0.1-0.5-0.2-0.9-0.5-1.1c-0.2-0.2-0.6-0.3-1.1-0.3H71V61h-2.1v-9.5L74.1,51.6L74.1,51.6z M73.3,55.9
					c0.5,0,0.8-0.1,1.1-0.3c0.2-0.2,0.4-0.6,0.4-1c0-0.5-0.1-0.8-0.4-1c-0.2-0.2-0.6-0.3-1.1-0.3H71V56h2.3V55.9z"/>
				<path class="st0" d="M84.5,51.6v4l3.7-4h2.6l-3.7,3.8l4.1,5.8h-2.6l-2.9-4.3l-1.2,1.2v3.1h-2.1v-9.5L84.5,51.6L84.5,51.6z"/>
				<path class="st0" d="M102.9,51.6v1.8h-5v2h4.6V57h-4.6v2.3h5.1v1.8h-7.2v-9.5C95.8,51.6,102.9,51.6,102.9,51.6z"/>
				<path class="st0" d="M107.5,53.4v-1.8h7.8v1.8h-2.9v7.8h-2.1v-7.8H107.5z"/>
				<path class="st0" d="M121.8,58.8c0.1,0.2,0.3,0.4,0.5,0.5s0.4,0.2,0.7,0.3c0.3,0.1,0.5,0.1,0.8,0.1c0.2,0,0.4,0,0.6,0
					s0.4-0.1,0.6-0.2c0.2-0.1,0.3-0.2,0.5-0.4c0.1-0.2,0.2-0.4,0.2-0.6c0-0.3-0.1-0.5-0.2-0.6c-0.2-0.2-0.4-0.3-0.6-0.4
					c-0.3-0.1-0.6-0.2-0.9-0.3s-0.7-0.2-1-0.3c-0.4-0.1-0.7-0.2-1-0.3s-0.6-0.3-0.9-0.5s-0.5-0.5-0.6-0.8c-0.2-0.3-0.2-0.7-0.2-1.1
					c0-0.5,0.1-0.9,0.3-1.3c0.2-0.4,0.5-0.7,0.8-0.9s0.7-0.4,1.1-0.5s0.9-0.2,1.3-0.2c0.5,0,1,0.1,1.4,0.2c0.5,0.1,0.9,0.3,1.2,0.5
					s0.6,0.6,0.8,1c0.2,0.4,0.3,0.9,0.3,1.4h-2c0-0.3-0.1-0.5-0.2-0.7s-0.2-0.3-0.4-0.4c-0.2-0.1-0.4-0.2-0.6-0.2s-0.5-0.1-0.7-0.1
					s-0.3,0-0.5,0.1c-0.2,0-0.3,0.1-0.5,0.2c-0.1,0.1-0.3,0.2-0.3,0.3c-0.1,0.1-0.1,0.3-0.1,0.5s0,0.3,0.1,0.5
					c0.1,0.1,0.2,0.2,0.4,0.3c0.2,0.1,0.5,0.2,0.9,0.3s0.9,0.2,1.4,0.4c0.2,0,0.4,0.1,0.7,0.2c0.3,0.1,0.6,0.2,0.9,0.4
					s0.6,0.5,0.8,0.8c0.2,0.3,0.3,0.8,0.3,1.3c0,0.4-0.1,0.8-0.3,1.2c-0.2,0.4-0.4,0.7-0.8,1c-0.3,0.3-0.7,0.5-1.2,0.6
					c-0.5,0.2-1.1,0.2-1.7,0.2c-0.5,0-1-0.1-1.5-0.2c-0.5-0.1-0.9-0.3-1.3-0.6s-0.7-0.6-0.9-1.1c-0.2-0.4-0.3-0.9-0.3-1.5h2
					C121.7,58.3,121.7,58.6,121.8,58.8z"/>
			</g>
		</g>
		<g>
			<polygon class="st1" points="107.1,23.2 86.6,2.7 86.6,14.2 107.1,34.7 112.9,28.9 112.9,28.9 119.6,22.2 119.6,42.6 127.7,42.6 
				127.7,2.7 			"/>
			<g>
				<path class="st0" d="M15.9,2.9v15.2h15.8V2.9h8.6v39.7h-8.6V25.4H15.9v17.1H7.4V2.9H15.9z"/>
				<path class="st0" d="M74.2,2.9v7.3H55.4v9.2h16.4v6.8H55.4v16.4h-8.6V2.9H74.2z"/>
			</g>
			<polygon class="st0" points="88.9,10.8 80.8,2.7 80.8,42.6 88.9,42.6 88.9,22.3 107.1,40.5 107.1,29.1 			"/>
		</g>
	</g>
</g>
</svg>
