<?xml version="1.0" encoding="UTF-8"?>
<svg version="1.1" xmlns="http://www.w3.org/2000/svg" width="316" height="160">
<path d="M0 0 C104.28 0 208.56 0 316 0 C316 52.8 316 105.6 316 160 C211.72 160 107.44 160 0 160 C0 107.2 0 54.4 0 0 Z " fill="#FEFEFE" transform="translate(0,0)"/>
<path d="M0 0 C2.86704913 2.2302585 5.31914572 4.80305836 7.8125 7.4375 C8.49248047 8.13166016 9.17246094 8.82582031 9.87304688 9.54101562 C14.81580807 14.63161614 14.81580807 14.63161614 16 17 C19.02244104 15.65874309 20.98099694 14.21128354 23.20703125 11.77734375 C23.79419922 11.15666016 24.38136719 10.53597656 24.98632812 9.89648438 C26.20029984 8.59422381 27.40612445 7.2843189 28.60351562 5.96679688 C31.6684099 2.75484115 33.38182388 1.16882692 37.76171875 -0.02734375 C41 0 41 0 44 1.5 C46 4 46 4 45.953125 7.2734375 C44.83588301 11.64167053 42.85874057 14.03249306 39.75 17.125 C39.03263672 17.87330078 39.03263672 17.87330078 38.30078125 18.63671875 C36.88322924 20.10805322 35.44615428 21.55681321 34 23 C33.27006836 23.73234863 33.27006836 23.73234863 32.52539062 24.47949219 C31.3523155 25.65504913 30.17646155 26.8278321 29 28 C30.5893017 31.98736049 33.39702455 34.59034031 36.4375 37.5 C44.79433377 45.56033638 44.79433377 45.56033638 45.5 50.5 C45 54 45 54 42.8125 56.5 C40 58 40 58 37.55859375 57.78125 C34.75522381 56.92525918 33.39060225 55.97594054 31.25 54 C30.57453125 53.37996094 29.8990625 52.75992188 29.203125 52.12109375 C25.4112028 48.47036014 21.68337049 44.76010737 18 41 C15.08653407 42.31307249 13.0549021 43.71181588 10.8359375 46.00390625 C10.27132812 46.57947266 9.70671875 47.15503906 9.125 47.74804688 C8.25875 48.64620117 8.25875 48.64620117 7.375 49.5625 C6.21839849 50.75349384 5.05964222 51.94240005 3.8984375 53.12890625 C3.38974121 53.65556885 2.88104492 54.18223145 2.35693359 54.72485352 C0.26634085 56.68943896 -0.9877045 56.99866353 -3.875 57.3125 C-7 57 -7 57 -9.375 55.375 C-11.48955428 52.28449759 -11.41575993 50.69615151 -11 47 C-9.27734375 44.47265625 -9.27734375 44.47265625 -6.9375 42.0625 C-6.1228125 41.21042969 -5.308125 40.35835937 -4.46875 39.48046875 C-3.24671875 38.25263672 -3.24671875 38.25263672 -2 37 C-1.2884375 36.27425781 -0.576875 35.54851563 0.15625 34.80078125 C1.75615418 33.18448461 3.36849421 31.5842918 5 30 C3.60807296 26.86989542 1.97357774 24.67663308 -0.4375 22.25 C-1.03433594 21.63640625 -1.63117188 21.0228125 -2.24609375 20.390625 C-4.01874136 18.68935806 -4.01874136 18.68935806 -7 19 C-8.60979308 20.46328383 -8.60979308 20.46328383 -10.140625 22.4453125 C-14.10656804 27.17650322 -18.37526261 31.523167 -22.75 35.875 C-23.50410156 36.63296875 -24.25820312 37.3909375 -25.03515625 38.171875 C-25.76089844 38.89632812 -26.48664063 39.62078125 -27.234375 40.3671875 C-27.88631836 41.01800293 -28.53826172 41.66881836 -29.20996094 42.33935547 C-31.51804353 44.4805963 -33.28376753 45.88981039 -36.4375 46.375 C-39 46 -39 46 -41.3125 44.375 C-43 42 -43 42 -43.6875 39.25 C-41.76236489 30.14936131 -30.07727784 21.92544759 -23.61889648 15.48852539 C-21.67118197 13.54622735 -19.7289407 11.5985686 -17.78710938 9.65039062 C-16.54980017 8.41374125 -15.31218132 7.17740158 -14.07421875 5.94140625 C-13.49403488 5.35919815 -12.91385101 4.77699005 -12.31608582 4.17713928 C-7.90413645 -0.20895244 -6.19517281 -1.89236986 0 0 Z " fill="#03A551" transform="translate(162,4)"/>
<path d="M0 0 C5.71344233 2.17110808 9.44506208 6.3140754 13.3515625 10.8984375 C17.08342157 15.1963734 21.02722793 19.23807569 25.0625 23.25 C25.72701172 23.91837891 26.39152344 24.58675781 27.07617188 25.27539062 C30.46153782 28.65418942 33.90198223 31.96615619 37.44140625 35.18359375 C38.0763501 35.76165771 38.71129395 36.33972168 39.36547852 36.93530273 C41.17243532 38.47741287 41.17243532 38.47741287 44.125 38.1875 C46.07407018 36.42787039 47.85045438 34.66463786 49.640625 32.75390625 C50.73785031 31.61872394 51.83552087 30.48397185 52.93359375 29.34960938 C54.65543147 27.55347418 56.37215825 25.75300894 58.08056641 23.9440918 C59.73304401 22.2006061 61.40400965 20.47659006 63.078125 18.75390625 C63.57942932 18.21222305 64.08073364 17.67053986 64.597229 17.11244202 C67.27374361 14.38059503 69.08733321 13.19746989 72.81542969 12.21069336 C76.125 12.1875 76.125 12.1875 79.125 14.25 C81.125 17.1875 81.125 17.1875 81.20556641 19.87182617 C79.60879071 24.77146709 76.44963675 27.5973023 72.8359375 31.17578125 C72.09928864 31.91958542 71.36263977 32.66338959 70.60366821 33.42973328 C69.0445924 34.99658213 67.4791032 36.55707191 65.90771484 38.11157227 C63.51001571 40.49006452 61.14306067 42.89638504 58.77734375 45.30664062 C57.25698027 46.8272945 55.73489984 48.34623408 54.2109375 49.86328125 C53.50649506 50.58300613 52.80205261 51.30273102 52.07626343 52.04426575 C51.39931427 52.70552963 50.72236511 53.36679352 50.02490234 54.0480957 C49.43945648 54.63178421 48.85401062 55.21547272 48.25082397 55.81684875 C45.16266917 57.80797468 42.78064345 58.1322796 39.125 58.1875 C36.54360962 56.60852051 36.54360962 56.60852051 34.12353516 54.18945312 C33.20633698 53.29101685 32.28913879 52.39258057 31.34414673 51.46691895 C30.366575 50.46838712 29.38990156 49.46897518 28.4140625 48.46875 C27.39644525 47.45144287 26.37749238 46.43547017 25.35726929 45.42077637 C23.22472481 43.29099875 21.10678004 41.14796836 18.99853516 38.99414062 C16.30186183 36.24076582 13.57526616 33.51955649 10.83741188 30.80719757 C8.72934562 28.71307806 6.63633407 26.60441753 4.5476799 24.49095154 C3.54791479 23.48218418 2.54398272 22.47752835 1.53578568 21.47718811 C0.1257833 20.07303996 -1.26255042 18.64723506 -2.64990234 17.22070312 C-3.44375336 16.41604614 -4.23760437 15.61138916 -5.05551147 14.78234863 C-7.34086714 11.52310739 -7.74956481 9.14062207 -7.875 5.1875 C-5.50834868 1.74509808 -4.23866561 0.27643471 0 0 Z " fill="#F4C733" transform="translate(115.875,46.8125)"/>
<path d="M0 0 C0.80179688 0.00451172 1.60359375 0.00902344 2.4296875 0.01367188 C4.41149006 0.02546832 6.39325433 0.04340395 8.375 0.0625 C8.12990895 7.78286813 6.16511934 22.27238066 0.375 28.0625 C-1.95833333 28.0625 -4.29166667 28.0625 -6.625 28.0625 C-8.16790642 28.30473104 -9.70958411 28.55490537 -11.25 28.8125 C-14.41892031 29.15376834 -15.61244104 29.0673698 -18.6875 27.875 C-21.88579271 23.23231704 -21.4968194 18.50265307 -20.625 13.0625 C-16.73594445 3.22080839 -10.07800331 -0.10634257 0 0 Z " fill="#07A750" transform="translate(211.625,126.9375)"/>
<path d="M0 0 C1.546875 -0.04253906 1.546875 -0.04253906 3.125 -0.0859375 C6.69777836 0.48687207 7.84743688 1.51341727 10 4.375 C10.53940006 9.31950056 9.89166799 11.64583003 8 16.375 C1.07 16.375 -5.86 16.375 -13 16.375 C-13 18.355 -13 20.335 -13 22.375 C-8.01293464 22.71834415 -8.01293464 22.71834415 -3.5 20.875 C-0.22325266 18.90895159 2.24912194 19.15436011 6 19.375 C4.56417426 23.03479495 2.96050994 24.28168563 -0.5 26.0625 C-1.2940625 26.47886719 -2.088125 26.89523438 -2.90625 27.32421875 C-7.70253893 29.73131152 -11.63303078 29.96477684 -17 29.375 C-20.125 27.8125 -20.125 27.8125 -22 25.375 C-23.28334457 18.95827717 -20.4668428 13.63593394 -17 8.375 C-12.05568651 3.00026637 -7.39894867 0.09248686 0 0 Z " fill="#F4C734" transform="translate(92,126.625)"/>
<path d="M0 0 C1.546875 -0.04253906 1.546875 -0.04253906 3.125 -0.0859375 C6.69777836 0.48687207 7.84743688 1.51341727 10 4.375 C10.53940006 9.31950056 9.89166799 11.64583003 8 16.375 C0.74 16.375 -6.52 16.375 -14 16.375 C-13.34 18.355 -12.68 20.335 -12 22.375 C-7.72555547 22.76795804 -7.72555547 22.76795804 -4.0625 20.875 C-1.08503991 18.70957448 1.42186379 19.16856906 5 19.375 C4.80859375 21.171875 4.80859375 21.171875 4 23.375 C-1.59488742 27.80217045 -7.6695779 30.33717197 -14.828125 29.82421875 C-18.22856232 29.12089089 -19.88310701 28.12696089 -22 25.375 C-23.28334457 18.95827717 -20.4668428 13.63593394 -17 8.375 C-12.05568651 3.00026637 -7.39894867 0.09248686 0 0 Z " fill="#06A64C" transform="translate(305,126.625)"/>
<path d="M0 0 C1.11826172 0.00966797 2.23652344 0.01933594 3.38867188 0.02929688 C5.13954102 0.06700195 5.13954102 0.06700195 6.92578125 0.10546875 C8.10462891 0.11900391 9.28347656 0.13253906 10.49804688 0.14648438 C13.41191536 0.18187549 16.3248707 0.23125066 19.23828125 0.29296875 C19.23828125 1.94296875 19.23828125 3.59296875 19.23828125 5.29296875 C17.00180494 6.4112069 15.58936596 6.48692936 13.10546875 6.609375 C12.29980469 6.65126953 11.49414062 6.69316406 10.6640625 6.73632812 C9.82230469 6.77564453 8.98054688 6.81496094 8.11328125 6.85546875 C7.26378906 6.89865234 6.41429687 6.94183594 5.5390625 6.98632812 C3.43899902 7.09251111 1.33866177 7.19325372 -0.76171875 7.29296875 C-1.75171875 10.26296875 -2.74171875 13.23296875 -3.76171875 16.29296875 C1.18828125 16.29296875 6.13828125 16.29296875 11.23828125 16.29296875 C11.56828125 17.28296875 11.89828125 18.27296875 12.23828125 19.29296875 C11.25 20.78125 11.25 20.78125 9.23828125 22.29296875 C6.42701082 22.51011116 3.84994675 22.57581151 1.05078125 22.48046875 C0.30119141 22.46693359 -0.44839844 22.45339844 -1.22070312 22.43945312 C-3.06801642 22.40415414 -4.91495941 22.35034792 -6.76171875 22.29296875 C-6.87128906 22.86144531 -6.98085937 23.42992187 -7.09375 24.015625 C-9.5768448 36.1080948 -9.5768448 36.1080948 -12.76171875 39.29296875 C-14.76130239 39.33377658 -16.76217129 39.33551231 -18.76171875 39.29296875 C-18.19271071 31.49363445 -15.79137761 24.38849216 -13.38671875 16.98046875 C-12.98264401 15.69349396 -12.57899489 14.40638546 -12.17578125 13.11914062 C-11.78390625 11.90162109 -11.39203125 10.68410156 -10.98828125 9.4296875 C-10.45581787 7.77005981 -10.45581787 7.77005981 -9.91259766 6.0769043 C-7.67773091 0.67084033 -5.7827785 -0.08806262 0 0 Z " fill="#07A64E" transform="translate(123.76171875,115.70703125)"/>
<path d="M0 0 C2.375 1.0625 2.375 1.0625 4 3 C4.43861237 8.54183247 3.38757998 12.99957686 1.6875 18.1875 C1.36749023 19.23454102 1.36749023 19.23454102 1.04101562 20.30273438 C-0.14803424 24.03315649 -1.39957306 27.04878233 -4 30 C-5.65 29.67 -7.3 29.34 -9 29 C-8.5393515 23.84073675 -7.67577419 19.61758233 -5.62109375 14.859375 C-4.78878301 12.69440502 -4.78878301 12.69440502 -5 9 C-9.3834069 8.56429167 -9.3834069 8.56429167 -13.07421875 10.67578125 C-15.18825247 13.22720126 -16.0556987 15.29505958 -17.0625 18.4375 C-18.31553111 22.30414966 -19.65271871 25.65690241 -22 29 C-24.6875 29.8125 -24.6875 29.8125 -27 30 C-28.05962626 26.06519258 -27.88634987 23.62975347 -26.63671875 19.76953125 C-26.17168945 18.31836914 -26.17168945 18.31836914 -25.69726562 16.83789062 C-25.19743164 15.34032227 -25.19743164 15.34032227 -24.6875 13.8125 C-24.36587891 12.80251953 -24.04425781 11.79253906 -23.71289062 10.75195312 C-21.27834356 3.27834356 -21.27834356 3.27834356 -19 1 C-15.875 0.875 -15.875 0.875 -13 1 C-12.67 1.99 -12.34 2.98 -12 4 C-11.13375 3.34 -10.2675 2.68 -9.375 2 C-5.72777543 -0.16131826 -4.14086911 -0.63013226 0 0 Z " fill="#0BA852" transform="translate(183,127)"/>
<path d="M0 0 C1.875 0.875 1.875 0.875 3.875 2.875 C4.555625 2.38 5.23625 1.885 5.9375 1.375 C9.54708369 -0.46819167 11.86949813 -0.57005576 15.875 -0.125 C17.8125 0.875 17.8125 0.875 18.875 2.875 C19.2319393 8.85860063 18.38842341 13.5953389 16.5 19.25 C16.16742188 20.31541016 16.16742188 20.31541016 15.828125 21.40234375 C14.15215774 26.59784226 14.15215774 26.59784226 11.875 28.875 C9.25 29 9.25 29 6.875 28.875 C5.34289941 24.94357206 6.48968883 22.25880922 7.8125 18.375 C9.1116268 14.53486925 9.875 11.96237468 9.875 7.875 C7.58663778 7.45513054 7.58663778 7.45513054 4.875 7.875 C0.52802706 11.46362252 -1.12475387 14.74133364 -2.8125 20.0625 C-4.94444444 26.69444444 -4.94444444 26.69444444 -7.125 28.875 C-9.75 29 -9.75 29 -12.125 28.875 C-13.90228002 23.68136792 -11.63784197 19.35771184 -9.9375 14.375 C-9.63263672 13.42496094 -9.32777344 12.47492188 -9.01367188 11.49609375 C-5.05759116 -0.29750536 -5.05759116 -0.29750536 0 0 Z " fill="#08A751" transform="translate(233.125,127.125)"/>
<path d="M0 0 C0.8971875 0.433125 0.8971875 0.433125 1.8125 0.875 C3.11354137 4.77812412 2.20270676 6.190511 0.7578125 10.00390625 C0.08298828 11.80311523 0.08298828 11.80311523 -0.60546875 13.63867188 C-1.09104017 14.90498844 -1.57671848 16.17126402 -2.0625 17.4375 C-2.54118992 18.70737148 -3.01906427 19.97755072 -3.49609375 21.24804688 C-6.95848214 30.41696429 -6.95848214 30.41696429 -8.1875 32.875 C-1.9175 32.875 4.3525 32.875 10.8125 32.875 C10.8125 34.525 10.8125 36.175 10.8125 37.875 C8.8125 39.875 8.8125 39.875 6.19873047 40.10205078 C5.11994629 40.09157715 4.04116211 40.08110352 2.9296875 40.0703125 C1.76308594 40.06386719 0.59648437 40.05742187 -0.60546875 40.05078125 C-2.44044922 40.02564453 -2.44044922 40.02564453 -4.3125 40 C-5.54355469 39.99097656 -6.77460938 39.98195312 -8.04296875 39.97265625 C-11.09133815 39.94902548 -14.13932382 39.91608054 -17.1875 39.875 C-18.93539531 35.75275423 -17.25718899 32.32059463 -15.80078125 28.37109375 C-15.54250046 27.65139908 -15.28421967 26.93170441 -15.01811218 26.19020081 C-14.46938503 24.67114221 -13.91511458 23.15407616 -13.35571289 21.63891602 C-12.50393899 19.32320887 -11.67778243 16.99944683 -10.85351562 14.67382812 C-10.31663027 13.19736084 -9.77826727 11.72142986 -9.23828125 10.24609375 C-8.99330399 9.55229111 -8.74832672 8.85848846 -8.4959259 8.1436615 C-6.87388125 3.82433323 -5.17412621 -0.29566435 0 0 Z " fill="#F4C734" transform="translate(19.1875,116.125)"/>
<path d="M0 0 C2 1.125 2 1.125 3 3 C2.7867181 8.89368997 0.92288935 12.00459277 -3.125 16.0625 C-3.61911377 16.5790918 -4.11322754 17.09568359 -4.62231445 17.62792969 C-8.21418312 21.33740148 -11.96622064 24.77297651 -16 28 C-19.3 24.7 -22.6 21.4 -26 18 C-22.28871668 13.48627704 -18.37093881 9.26212846 -14.25 5.125 C-13.76619873 4.63668701 -13.28239746 4.14837402 -12.78393555 3.64526367 C-8.20331856 -0.91609017 -6.42955692 -1.35359093 0 0 Z " fill="#04ADED" transform="translate(205,5)"/>
<path d="M0 0 C1.2065625 0.0309375 1.2065625 0.0309375 2.4375 0.0625 C3.70014601 4.35549643 3.06700412 6.94081311 1.4375 11.0625 C3.0875 11.0625 4.7375 11.0625 6.4375 11.0625 C6.480221 12.72861905 6.47813832 14.39632885 6.4375 16.0625 C5.4375 17.0625 5.4375 17.0625 2.375 17.125 C1.405625 17.104375 0.43625 17.08375 -0.5625 17.0625 C-0.75585938 17.78695312 -0.94921875 18.51140625 -1.1484375 19.2578125 C-2.49110286 24.24295615 -3.84999486 29.18844691 -5.5625 34.0625 C-3.2525 34.0625 -0.9425 34.0625 1.4375 34.0625 C0.5625 38.9375 0.5625 38.9375 -0.5625 40.0625 C-2.53869447 40.18764928 -4.51988173 40.2382276 -6.5 40.25 C-7.58152344 40.26417969 -8.66304687 40.27835938 -9.77734375 40.29296875 C-12.5625 40.0625 -12.5625 40.0625 -14.5625 38.0625 C-14.23740983 30.74797127 -11.82361771 22.58473542 -8.5625 16.0625 C-9.8825 16.0625 -11.2025 16.0625 -12.5625 16.0625 C-12.375 14.1875 -12.375 14.1875 -11.5625 12.0625 C-10.77875 11.835625 -9.995 11.60875 -9.1875 11.375 C-6.42479921 10.33558399 -6.42479921 10.33558399 -5.6015625 7.9765625 C-5.08240982 6.34714272 -4.59438237 4.70742139 -4.140625 3.05859375 C-3.28672099 0.11031708 -3.15756435 0.07701376 0 0 Z " fill="#F4C836" transform="translate(65.5625,115.9375)"/>
<path d="M0 0 C2.5625 1.5 2.5625 1.5 4 3 C3.67 5.31 3.34 7.62 3 10 C0.5625 9.625 0.5625 9.625 -2 9 C-2.33 8.34 -2.66 7.68 -3 7 C-6.28841143 6.41439551 -6.28841143 6.41439551 -10 7 C-12.37916379 8.97871048 -13.78580489 11.16687808 -15 14 C-15.41991981 17.79404603 -15.41991981 17.79404603 -15 21 C-11.58343976 21.16677282 -11.58343976 21.16677282 -8 21 C-7.34 20.34 -6.68 19.68 -6 19 C-2.375 18.875 -2.375 18.875 1 19 C0.7416116 22.48824341 -0.26466736 23.24214247 -2.9375 25.6875 C-7.91456905 29.445695 -11.84560432 29.83089172 -18 29 C-21.125 27 -21.125 27 -23 24 C-23.9400371 16.71471247 -21.9582614 11.75215116 -17.6875 5.75 C-12.47179796 0.41300257 -7.29125468 -1.07916103 0 0 Z " fill="#0AA751" transform="translate(279,127)"/>
<path d="M0 0 C1.2065625 0.0309375 1.2065625 0.0309375 2.4375 0.0625 C4.02476115 2.51234062 4.49784555 3.66411189 4.05371094 6.59619141 C3.76270508 7.52608887 3.47169922 8.45598633 3.171875 9.4140625 C2.85863281 10.42984375 2.54539062 11.445625 2.22265625 12.4921875 C1.88105469 13.54664063 1.53945313 14.60109375 1.1875 15.6875 C0.86136719 16.7496875 0.53523438 17.811875 0.19921875 18.90625 C-2.27285772 26.77285772 -2.27285772 26.77285772 -4.5625 29.0625 C-7.125 29.25 -7.125 29.25 -9.5625 29.0625 C-9.8925 28.7325 -10.2225 28.4025 -10.5625 28.0625 C-10.1046403 21.75977505 -8.52235563 16.1108798 -6.5625 10.125 C-6.28921875 9.26326172 -6.0159375 8.40152344 -5.734375 7.51367188 C-3.34486147 0.08158199 -3.34486147 0.08158199 0 0 Z " fill="#F4C835" transform="translate(44.5625,126.9375)"/>
<path d="M0 0 C0.78375 0.04125 1.5675 0.0825 2.375 0.125 C3.35486077 3.89233776 3.32822093 6.36805891 2.265625 10.1015625 C2.00523437 11.019375 1.74484375 11.9371875 1.4765625 12.8828125 C1.19554687 13.82898438 0.91453125 14.77515625 0.625 15.75 C0.22667969 17.18085938 0.22667969 17.18085938 -0.1796875 18.640625 C-2.54445973 26.79105355 -2.54445973 26.79105355 -5.625 29.125 C-8.3125 28.8125 -8.3125 28.8125 -10.625 28.125 C-11.00574021 22.00832582 -9.66176503 17.09670071 -7.75 11.3125 C-7.48058594 10.45462891 -7.21117187 9.59675781 -6.93359375 8.71289062 C-4.18730499 0.19939548 -4.18730499 0.19939548 0 0 Z " fill="#09A64E" transform="translate(149.625,126.875)"/>
<path d="M0 0 C1.3507637 3.68627771 0.63967395 5.93620685 -0.6875 9.5625 C-1.02136719 10.51253906 -1.35523438 11.46257812 -1.69921875 12.44140625 C-3.1277323 15.25124522 -4.29868109 16.42205356 -7 18 C-9.625 18.3125 -9.625 18.3125 -12 18 C-14 16 -14 16 -14.4375 12.875 C-13.88687112 7.9980013 -12.05424326 4.79466587 -9 1 C-6.04335481 -0.4783226 -3.25770263 -0.06032783 0 0 Z " fill="#F6FBF8" transform="translate(211,132)"/>
<path d="M0 0 C6.6 0 13.2 0 20 0 C17.40518268 3.89222599 15.41579095 3.83794975 11 5 C10.01 5.66 9.02 6.32 8 7 C4.9375 7.25 4.9375 7.25 2 7 C1.34 6.34 0.68 5.68 0 5 C0 3.35 0 1.7 0 0 Z " fill="#E7F5EC" transform="translate(291,143)"/>
<path d="M0 0 C6.27 0 12.54 0 19 0 C18.67 0.99 18.34 1.98 18 3 C15.68925595 3.74118205 13.35188447 4.40206327 11 5 C10.34 5.391875 9.68 5.78375 9 6.1875 C5.8918011 7.4502058 3.21775175 6.61879841 0 6 C0 4.02 0 2.04 0 0 Z " fill="#FDF9EC" transform="translate(79,143)"/>
<path d="M0 0 C2 2 2 2 2 6 C-1.96 6 -5.92 6 -10 6 C-7.45740708 0.91481415 -5.60174221 -0.57453766 0 0 Z " fill="#E6F5EC" transform="translate(305,132)"/>
<path d="M0 0 C1.1446875 0.3403125 1.1446875 0.3403125 2.3125 0.6875 C2.35504356 2.68704746 2.35330783 4.68791636 2.3125 6.6875 C1.3125 7.6875 1.3125 7.6875 -1.75 7.75 C-2.719375 7.729375 -3.68875 7.70875 -4.6875 7.6875 C-5.375 5.375 -5.375 5.375 -5.6875 2.6875 C-4.0011022 -0.12316299 -3.27764429 -0.38112143 0 0 Z " fill="#0CA74F" transform="translate(153.6875,116.3125)"/>
<path d="M0 0 C2.4375 0.1875 2.4375 0.1875 3.4375 1.1875 C3.625 3.625 3.625 3.625 3.4375 6.1875 C1.4375 8.1875 1.4375 8.1875 -1.125 8.375 C-3.5625 8.1875 -3.5625 8.1875 -4.5625 7.1875 C-4.75 4.75 -4.75 4.75 -4.5625 2.1875 C-2.5625 0.1875 -2.5625 0.1875 0 0 Z " fill="#F4C835" transform="translate(48.5625,115.8125)"/>
<path d="M0 0 C0 1.65 0 3.3 0 5 C-3.63 5 -7.26 5 -11 5 C-8.05790162 -0.88419676 -6.23816446 -0.11552156 0 0 Z " fill="#FEFDF8" transform="translate(93,133)"/>
</svg>
