<svg version="1.2" xmlns="http://www.w3.org/2000/svg" viewBox="0 0 1549 673" width="1549" height="673"><defs><linearGradient id="P" gradientUnits="userSpaceOnUse"/><linearGradient id="g1" x2="1" href="#P" gradientTransform="matrix(-952.402,1613.611,-1613.872,-952.556,749.938,-478.286)"><stop offset=".23" stop-color="#ec1b2e"/><stop offset=".7" stop-color="#d62333"/></linearGradient></defs><style>.a{fill:url(#g1)}.b{fill:#ec1b2e}.c{fill:#fff}</style><path class="a" d="m1 194.2c0-67.6 0-101.4 13.2-127.3 11.5-22.7 30-41.2 52.8-52.7 25.8-13.2 59.6-13.2 127.3-13.2h284.5c67.7 0 101.5 0 127.4 13.2 22.7 11.5 41.2 30 52.8 52.7 13.1 25.9 13.1 59.7 13.1 127.3v284.6c0 67.6 0 101.4-13.1 127.3-11.6 22.7-30.1 41.2-52.8 52.7-25.9 13.2-59.7 13.2-127.4 13.2h-284.5c-67.7 0-101.5 0-127.3-13.2-22.8-11.5-41.3-30-52.8-52.7-13.2-25.9-13.2-59.7-13.2-127.3z"/><path class="b" d="m42.9 1h587.3c23.2 0 41.9 18.8 41.9 41.9v587.2c0 23.1-18.7 41.9-41.9 41.9h-587.3c-23.1 0-41.9-18.8-41.9-41.9v-587.2c0-23.1 18.8-41.9 41.9-41.9z"/><path class="c" d="m409.5 355.4l-42.5 2.8 36.2-101.4-110.7 16.8-11.9 113.1 26.5-1-4.9 129.2z"/><path class="c" d="m292.5 264.2l109.4-14.7-51.6-24c0 0 6.6-42.1-31-56.7l-4.5 14.2c0 0 24.4 5.2 20.9 43.6z"/><path  d="m813 466.2c-1-1-1-2.1-1-4.1v-243.1c0-1.6 0.5-3.1 1-4.2 1-1 2-1.5 3.5-1.5h20c2.5 0 4 1 5.6 3.6l93.9 179.5c0.5 0.5 1 1 1 1 0.5 0 0.5-0.5 0.5-1.5v-176.4c0-1.6 0.5-3.1 1-4.2 1-1 2.1-1.5 3.6-1.5h20.4c1.5 0 2.6 0.5 3.6 1.5 1 1.1 1 2.1 1 4.2v243.1c0 1.5-0.5 3.1-1 4.1-1 1.1-2.1 1.6-3.6 1.6h-19.9c-2.5 0-4.1-1.1-5.6-3.7l-93.9-181c-0.5-1-1-1-1-1-0.5 0-0.5 0.5-0.5 1.5l0.5 178c0 1.5-0.5 3.1-1.1 4.1-1 1-2 1.6-3.5 1.6h-20.4c-2.1 0-3.1-0.6-4.1-1.6z"/><path fill-rule="evenodd" d="m1144.2 463.6l-10.7-40.8q-0.8-1.6-1.5-1.6h-85.8q-0.8 0-1.5 1.6l-11.2 40.8c-1.1 3.1-2.6 4.2-5.1 4.2h-22c-3.6 0-4.6-2.1-3.6-6.3l66.4-243.6c1-3.1 2.5-4.1 5.1-4.1h28.1c2.5 0 4.5 1.5 5.1 4.1l66.8 243.6c0 0.6 0.5 1.1 0.5 2.1 0 2.6-1.5 4.2-4.1 4.2h-21.9c-2 0-4.1-1.6-4.6-4.2zm-90.3-69.8h70.4c1 0 1.5-0.5 1-2.1l-35.7-135.5c0-1-0.5-1.5-1-1.5-0.5 0-0.5 0.5-1 1.5l-35.3 135.5c0 1.6 0.5 2.1 1.6 2.1z"/><path  d="m1236.6 460.5c-11.3-6.7-20.5-16.5-26.6-29.5-6.1-12.9-9.2-27.4-9.2-43.9v-93.1c0-16.6 3.1-31.6 9.2-44 6.1-12.4 15.3-22.2 26.6-29 11.2-6.7 24.4-10.3 39.2-10.3 14.8 0 27.6 3.6 39.3 10.3 11.3 6.8 19.9 16.1 26.6 28q9.2 17.8 9.2 40.3v2.1c0 1.5-0.5 3.1-1.1 4.1-1 1-2 1.6-3.5 1.6h-20.4c-1.6 0-2.6-0.6-3.6-1.1-1-0.5-1-1.5-1-2.6v-3.1c0-14.4-4.1-26.3-12.3-35.1-8.1-9.3-19.4-13.5-32.6-13.5-13.8 0-24.5 4.7-33.2 14-8.2 9.3-12.3 22.2-12.3 37.7v95.2c0 15.5 4.1 28.5 12.8 37.8q13 13.9 33.7 13.9c13.8 0 24-4.1 32.1-12.4 7.7-8.3 11.8-19.6 11.8-34.1v-27.4c0-1.1-0.5-2.1-1.6-2.1h-39.8c-1.5 0-2.5-0.5-3.5-1.5-1.1-1.1-1.1-2.1-1.1-4.2v-18.6c0-1.6 0.5-3.1 1.1-4.1 1-1.1 2-1.6 3.5-1.6h66.4c1.5 0 2.5 0.5 3.5 1.6 1.1 1 1.1 2 1.1 4.1v44.5c0 27.9-6.7 49.1-19.9 64.1-13.3 15-31.7 22.3-54.6 22.3-15.4 0-28.6-3.7-39.8-10.4z"/><path fill-rule="evenodd" d="m1517.8 463.6l-10.8-40.8q-0.7-1.6-1.5-1.6h-85.7q-0.8 0-1.6 1.6l-10.7 40.8c-1 3.1-2.5 4.2-5.1 4.2h-21.9c-3.6 0-4.6-2.1-3.6-6.3l66.4-243.6c1-3.1 2.5-4.1 5.1-4.1h28c2.6 0 4.6 1.5 5.1 4.1l66.9 243.6c0 0.6 0.5 1.1 0.5 2.1 0 2.6-1.5 4.2-4.1 4.2h-21.9c-2.6 0-4.6-1.6-5.1-4.2zm-90.9-69.8h70.5c1 0 1.5-0.5 1-2.1l-35.8-135.5c0-1-0.5-1.5-1-1.5-0.5 0-0.5 0.5-1 1.5l-35.2 135.5c0.5 1.6 0.5 2.1 1.5 2.1z"/></svg>