<?xml version="1.0" encoding="utf-8"?>
<!-- Generator: Adobe Illustrator 19.2.1, SVG Export Plug-In . SVG Version: 6.00 Build 0)  -->
<svg version="1.1" id="layer" xmlns="http://www.w3.org/2000/svg" xmlns:xlink="http://www.w3.org/1999/xlink" x="0px" y="0px"
	 viewBox="0 0 652 652" style="enable-background:new 0 0 652 652;" xml:space="preserve">
<style type="text/css">
	.st0{fill:#97D700;}
</style>
<path d="M365.6,279.6h10l54.4,79.2h0.3v-79.2h8.9V373h-10l-54.5-79.2h-0.3V373h-8.9v-93.5H365.6z M351,373.2h9.5l-36.6-93.5h-10
	l-37.8,93.5h9.5l8-20.5h49.3L351,373.2L351,373.2z M296.8,345l21.7-55.7L340,345H296.8z M230.9,277.4c-27.9,0-47.5,21.8-47.5,48.6
	s19.7,48.6,47.5,48.6c28.3,0,47.6-21.8,47.6-48.6C278.5,299.1,258.6,277.4,230.9,277.4z M230.9,366.5c-23.2,0-39.6-18.1-39.6-40.6
	c0-22.3,16.3-40.6,39.6-40.6c23.2,0,39.7,18.1,39.7,40.6C270.6,348.4,254.4,366.5,230.9,366.5z M451.3,279.6H481
	c28.1,0.7,47,22.3,47,48.3c0,24.1-18.9,45.2-47,45.2h-29.7V279.6z M460.2,365h20.4c25.3,0,39.1-19.2,39.1-37.6
	c0-19.5-12.5-39.7-39.1-39.7h-20.4V365z M614.6,373.2h10.7l-78.5-93.5h-9v93.5h8.9v-20.5h50.9L614.6,373.2z M546.6,345v-51.7h0.8
	l43.5,51.7H546.6z"/>
<path class="st0" d="M64.5,378.8c5.1,1.5,10.3,2.3,15.9,2.3c11.5,0,22.3-3.6,31.2-9.7l-47.1-55.8C64.5,315.6,64.5,378.8,64.5,378.8z
	 M25.2,326.1c0,15.1,6.1,28.7,15.8,38.6v-77.2C31.2,297.3,25.2,311,25.2,326.1z M64.5,279.6l63.1,75.1c5.1-8.4,8-18.2,8-28.7
	c0-30.4-24.6-55.2-55.2-55.2c-11,0-21.2,3.3-29.7,8.7C50.7,279.4,64.5,279.6,64.5,279.6z"/>
</svg>
