<svg xmlns="http://www.w3.org/2000/svg" width="654" height="200" fill="none"><path fill="#0B0B16" fill-rule="evenodd" d="M630.999 101.279C630.849 122.69 613.446 140 592 140c-21.539 0-39-17.461-39-39 0-21.54 17.461-39 39-39 21.446 0 38.849 17.31 38.999 38.721v.558Zm0 47.922A61.743 61.743 0 0 1 592 163c-34.242 0-62-27.758-62-62 0-34.242 27.758-62 62-62a61.741 61.741 0 0 1 38.999 13.8V41h23v59.648L654 101l-.001.352V161h-23v-11.799ZM475.499 12h-11.5V114.5a47.35 47.35 0 0 0 47.5 47.501h9.503l.001-23h-9.504c-13.648 0-24.5-10.852-24.5-24.501v-51H521v-23h-34.001V12h-11.5ZM432.511 126.498C425.36 134.767 414.791 140 403 140c-21.539 0-39-17.461-39-39 0-21.54 17.461-39 39-39 11.791 0 22.36 5.233 29.511 13.502l17.405-15.037C438.547 47.318 421.745 39 403 39c-34.242 0-62 27.758-62 62 0 34.242 27.758 62 62 62 18.745 0 35.547-8.318 46.916-21.465l-17.405-15.037Z" clip-rule="evenodd"/><path fill="#0B0B16" fill-rule="evenodd" d="M302 140c21.539 0 39-17.461 39-39 0-21.54-17.461-39-39-39s-39 17.46-39 39c0 21.539 17.461 39 39 39Zm0 23c34.242 0 62-27.758 62-62 0-34.242-27.758-62-62-62-34.242 0-62 27.758-62 62 0 34.242 27.758 62 62 62Z" clip-rule="evenodd"/><path fill="#0C34F0" d="M0 100C0 17.65 17.65 0 100 0s100 17.65 100 100-17.65 100-100 100S0 182.35 0 100Z"/><path fill="#fff" fill-rule="evenodd" d="M144.921 82.74c9.25-12.428 15.071-24.094 16.455-33.175 5.701-.096 10.186 1.37 12.988 4.576 7.485 8.565 1.049 27.359-14.714 48.057 14.28 21.747 19.39 40.944 11.326 48.966-3.019 3.003-7.595 4.152-13.276 3.659-.747-9.155-5.74-21.199-14.101-34.242a228.29 228.29 0 0 1-12.308 11.577c-34.838 30.444-72.036 44.875-83.085 32.232-2.802-3.207-3.653-7.847-2.794-13.484 16.778-.283 44.095-14.085 70.096-36.808a227.18 227.18 0 0 0 13.665-12.964 226.85 226.85 0 0 0-12.727-13.887c-24.353-24.48-50.64-40.155-67.358-41.607-.464-5.683.709-10.253 3.728-13.256 11.904-11.842 48.005 5.148 80.634 37.948a228.722 228.722 0 0 1 11.471 12.408Z" clip-rule="evenodd" opacity=".35"/><path fill="#fff" fill-rule="evenodd" d="m32.002 145.842 15.823 18.08c-6.714-8.565-.677-26.418 14.047-46.198a228.555 228.555 0 0 0 11.466 12.402c32.629 32.8 68.73 49.79 80.634 37.949.381-.379.732-.783 1.055-1.21l16.635-16.376-.081.021c-.192.224-.393.44-.603.649-11.903 11.841-48.004-5.149-80.633-37.949A227.194 227.194 0 0 1 77.62 99.329a227.106 227.106 0 0 1 13.66-12.96c34.838-30.444 72.036-44.875 83.085-32.232.194.222.379.451.554.687l.082.027-15.452-17.495c-.292-.45-.614-.877-.968-1.281-11.049-12.643-48.247 1.787-83.084 32.231A228.3 228.3 0 0 0 63.193 79.88C49.873 59.102 45.1 40.86 52.423 32.793L35.358 49.745l.006.022c-7.417 8.286-2.232 27.164 11.776 48.497-15.462 20.302-21.95 38.773-15.13 47.556l-.008.022Z" clip-rule="evenodd"/></svg>
