<svg width="233" height="46" viewBox="0 0 233 46" fill="none" xmlns="http://www.w3.org/2000/svg">
<g clip-path="url(#clip0_5_56)">
<path d="M60.5464 12.9626H64.1371V14.8267C64.7146 14.1173 65.4548 13.5578 66.2948 13.1956C67.2253 12.7958 68.2298 12.5972 69.2424 12.6131C70.6794 12.5905 72.0942 12.9698 73.3272 13.7082C74.527 14.4292 75.5137 15.4561 76.1862 16.6838C76.8762 17.9821 77.237 19.4299 77.237 20.9002C77.237 22.3705 76.8762 23.8183 76.1862 25.1166C75.5128 26.3436 74.5263 27.3703 73.3272 28.0922C72.0846 28.832 70.6605 29.2113 69.2145 29.1874C68.2876 29.1957 67.3671 29.0322 66.4999 28.705C65.6953 28.4022 64.9679 27.9247 64.3701 27.3069V34.6748H60.5464V12.9626ZM71.0949 25.0793C71.7716 24.6663 72.3221 24.0755 72.6864 23.3713C73.0828 22.6109 73.283 21.7635 73.2689 20.906C73.2839 20.0529 73.0835 19.2099 72.6864 18.4547C72.3155 17.7558 71.7665 17.1674 71.0949 16.7491C70.5866 16.432 70.0182 16.2233 69.4254 16.1362C68.8327 16.0492 68.2283 16.0855 67.6503 16.2431C67.0722 16.4006 66.533 16.6759 66.0664 17.0517C65.5997 17.4274 65.2158 17.8956 64.9387 18.4268C64.5645 19.2001 64.3701 20.0481 64.3701 20.9072C64.3701 21.7663 64.5645 22.6143 64.9387 23.3876C65.2993 24.0918 65.85 24.6809 66.5283 25.0882C67.2066 25.4955 67.9853 25.7047 68.7764 25.6921C69.5919 25.7055 70.3949 25.4908 71.0949 25.0723V25.0793ZM82.4194 28.0852C81.2102 27.3626 80.2215 26.3232 79.5603 25.0793C78.8743 23.7887 78.5234 22.3465 78.5397 20.8851C78.5109 19.4039 78.8683 17.9407 79.5766 16.6395C80.2429 15.4276 81.2191 14.4144 82.4054 13.7036C83.6179 12.981 85.0065 12.6076 86.4179 12.6247C88.0723 12.6247 89.4704 12.9797 90.6121 13.6896C91.7319 14.3659 92.6431 15.3384 93.2452 16.4997C93.8536 17.6998 94.1622 19.0294 94.1446 20.3748C94.1446 20.6668 94.1307 20.9534 94.1027 21.2346C94.0786 21.4886 94.0246 21.7389 93.9419 21.9802H82.5079C82.5819 22.8812 82.9409 23.7351 83.5328 24.4183C84.1248 25.1015 84.9189 25.5784 85.8001 25.7798C86.6814 25.9813 87.6038 25.8969 88.4339 25.5389C89.2639 25.1808 89.9583 24.5677 90.4164 23.7884L93.5085 25.3053C92.9763 26.4883 92.0776 27.4686 90.9454 28.1015C89.638 28.8223 88.1689 29.1992 86.6759 29.1968C85.1829 29.1943 83.7151 28.8126 82.4101 28.0875L82.4194 28.0852ZM83.9526 16.6326C83.2305 17.2593 82.7506 18.1192 82.5965 19.0629H90.0529C90.0053 18.1539 89.6018 17.3001 88.9298 16.6861C88.2388 16.0653 87.3347 15.7355 86.4062 15.7657C85.5117 15.7486 84.6408 16.0538 83.9526 16.6256V16.6326ZM95.7757 12.9626H99.3641V14.8267C99.942 14.1167 100.683 13.5571 101.524 13.1956C102.455 12.7958 103.459 12.5972 104.472 12.6131C105.909 12.5908 107.323 12.9701 108.557 13.7082C109.756 14.4292 110.743 15.4561 111.416 16.6838C112.106 17.9821 112.466 19.4299 112.466 20.9002C112.466 22.3705 112.106 23.8183 111.416 25.1166C110.742 26.3436 109.756 27.3703 108.557 28.0922C107.313 28.832 105.888 29.2112 104.442 29.1874C103.515 29.1955 102.596 29.032 101.729 28.705C100.925 28.4022 100.197 27.9247 99.5995 27.3069V34.6748H95.7757V12.9626ZM106.324 25.0793C107 24.6662 107.55 24.0754 107.913 23.3713C108.311 22.6111 108.512 21.7637 108.498 20.906C108.513 20.0527 108.311 19.2097 107.913 18.4547C107.543 17.756 106.995 17.1675 106.324 16.7491C105.816 16.432 105.248 16.2233 104.655 16.1362C104.062 16.0492 103.458 16.0855 102.88 16.2431C102.302 16.4006 101.762 16.6759 101.296 17.0517C100.829 17.4274 100.445 17.8956 100.168 18.4268C99.7938 19.2001 99.5995 20.0481 99.5995 20.9072C99.5995 21.7663 99.7938 22.6143 100.168 23.3876C100.529 24.0914 101.079 24.6803 101.757 25.0876C102.434 25.4949 103.213 25.7043 104.003 25.6921C104.817 25.7045 105.619 25.4899 106.317 25.0723L106.324 25.0793ZM114.307 12.9626H117.896V14.8267C118.474 14.1167 119.215 13.5571 120.056 13.1956C120.986 12.7958 121.991 12.5972 123.003 12.6131C124.44 12.5908 125.855 12.9701 127.088 13.7082C128.287 14.4301 129.274 15.4568 129.947 16.6838C130.637 17.9821 130.998 19.4299 130.998 20.9002C130.998 22.3705 130.637 23.8183 129.947 25.1166C129.273 26.3433 128.287 27.3699 127.088 28.0922C125.845 28.832 124.42 29.2112 122.973 29.1874C122.047 29.1955 121.127 29.032 120.261 28.705C119.456 28.4022 118.729 27.9247 118.131 27.3069V34.6748H114.3L114.307 12.9626ZM124.856 25.0793C125.532 24.6662 126.082 24.0754 126.445 23.3713C126.842 22.6111 127.043 21.7637 127.03 20.906C127.044 20.0527 126.843 19.2097 126.445 18.4547C126.075 17.756 125.527 17.1675 124.856 16.7491C124.348 16.432 123.779 16.2233 123.186 16.1362C122.594 16.0492 121.989 16.0855 121.411 16.2431C120.833 16.4006 120.294 16.6759 119.827 17.0517C119.361 17.4274 118.977 17.8956 118.7 18.4268C118.325 19.2001 118.131 20.0481 118.131 20.9072C118.131 21.7663 118.325 22.6143 118.7 23.3876C119.06 24.0914 119.61 24.6803 120.288 25.0876C120.966 25.4949 121.744 25.7043 122.535 25.6921C123.349 25.7045 124.15 25.4899 124.849 25.0723L124.856 25.0793ZM136.197 28.0852C134.987 27.3627 133.997 26.3233 133.335 25.0793C132.649 23.7887 132.298 22.3465 132.315 20.8851C132.286 19.4039 132.643 17.9407 133.352 16.6395C134.016 15.4285 134.99 14.4154 136.173 13.7036C137.386 12.981 138.774 12.6076 140.186 12.6247C141.84 12.6247 143.238 12.9797 144.38 13.6896C145.5 14.3653 146.412 15.3379 147.013 16.4997C147.625 17.7013 147.936 19.0334 147.92 20.3817C147.92 20.673 147.903 20.9596 147.875 21.2416C147.851 21.4956 147.797 21.7459 147.715 21.9872H136.276C136.35 22.8881 136.709 23.7421 137.301 24.4253C137.893 25.1085 138.687 25.5854 139.568 25.7868C140.449 25.9883 141.372 25.9039 142.202 25.5458C143.032 25.1878 143.726 24.5747 144.184 23.7954L147.276 25.3123C146.744 26.4953 145.846 27.4756 144.713 28.1085C143.406 28.8294 141.938 29.2063 140.445 29.2038C138.952 29.2014 137.485 28.8197 136.18 28.0945L136.197 28.0852ZM137.728 16.6326C137.005 17.2613 136.526 18.1226 136.371 19.0676H143.828C143.78 18.1585 143.377 17.3048 142.705 16.6908C142.014 16.0699 141.11 15.7401 140.181 15.7704C139.284 15.7497 138.41 16.0534 137.718 16.6256L137.728 16.6326ZM149.53 12.9696H153.118V15.2158C153.442 14.3949 154.054 13.7204 154.84 13.3191C155.645 12.956 156.521 12.7769 157.403 12.7948H158.335V16.1735H156.963C156.482 16.1546 156.002 16.2341 155.553 16.4072C155.104 16.5803 154.695 16.8433 154.351 17.1801C153.68 17.8512 153.344 18.7895 153.344 19.9949V28.8355H149.523L149.53 12.9696ZM160.975 27.9687C159.766 27.2093 158.855 26.0577 158.394 24.7065L161.253 23.3364C161.635 24.1733 162.228 24.8961 162.975 25.4335C163.681 25.9355 164.529 26.2014 165.396 26.1931C165.979 26.2205 166.557 26.0623 167.045 25.7411C167.245 25.6033 167.407 25.4177 167.517 25.2011C167.626 24.9845 167.68 24.744 167.672 24.5014C167.678 24.2928 167.632 24.086 167.538 23.8997C167.444 23.7134 167.305 23.5534 167.134 23.4342C166.741 23.1576 166.3 22.9554 165.834 22.8377L163.231 22.0921C161.889 21.7037 160.872 21.1103 160.181 20.3118C159.497 19.5289 159.128 18.52 159.146 17.4807C159.124 16.5702 159.384 15.6752 159.89 14.9176C160.41 14.1793 161.123 13.5982 161.952 13.2375C163.078 12.7628 164.299 12.5592 165.518 12.643C166.737 12.7267 167.92 13.0956 168.97 13.7199C170.101 14.4296 170.963 15.4953 171.421 16.7491L168.502 18.1192C168.257 17.4085 167.779 16.8016 167.146 16.3972C166.501 15.9726 165.744 15.7496 164.972 15.7564C164.431 15.7251 163.895 15.8797 163.455 16.1945C163.278 16.326 163.136 16.4979 163.039 16.6957C162.943 16.8935 162.895 17.1116 162.9 17.3316C162.892 17.5366 162.937 17.7403 163.028 17.9239C163.12 18.1075 163.256 18.2652 163.424 18.3825C163.834 18.6613 164.288 18.8685 164.766 18.9953L167.306 19.7526C168.63 20.1239 169.64 20.708 170.336 21.5049C171.033 22.2918 171.408 23.3127 171.386 24.364C171.402 25.2637 171.137 26.146 170.627 26.8875C170.096 27.6373 169.371 28.2279 168.53 28.5955C167.535 29.0237 166.46 29.2327 165.377 29.2083C163.817 29.236 162.283 28.8024 160.968 27.9617L160.975 27.9687ZM176.457 27.5306C175.475 26.538 174.984 25.157 174.984 23.3876V16.1735H172.242V12.9626H172.533C173.311 12.9626 173.915 12.7599 174.343 12.3498C174.772 11.9397 174.984 11.3478 174.984 10.5695V8.21841H178.808V12.9626H182.457V16.1735H178.81V23.1639C178.81 23.9608 179.022 24.5737 179.451 25.0024C179.88 25.4312 180.56 25.6432 181.495 25.6432C181.836 25.6409 182.178 25.6121 182.515 25.557V28.8192C182.243 28.8588 181.93 28.8984 181.583 28.9357C181.264 28.9738 180.942 28.9941 180.621 28.9963C178.823 29.0072 177.433 28.5163 176.45 27.5236L176.457 27.5306ZM187.238 28.1132C185.961 27.393 184.899 26.3466 184.159 25.081C183.419 23.8155 183.028 22.3761 183.027 20.9101C183.025 19.4441 183.413 18.004 184.151 16.737C184.888 15.47 185.949 14.4216 187.224 13.6989C188.527 12.9908 189.987 12.6199 191.47 12.6199C192.953 12.6199 194.412 12.9908 195.715 13.6989C196.965 14.3998 198.01 15.4161 198.745 16.6465C199.483 17.9481 199.87 19.4195 199.868 20.916C199.865 22.4126 199.474 23.8827 198.731 25.1818C197.996 26.4123 196.951 27.4286 195.701 28.1295C194.403 28.831 192.95 29.1969 191.475 29.1941C189.999 29.1912 188.548 28.8197 187.252 28.1132H187.238ZM193.746 25.084C194.408 24.6662 194.943 24.0756 195.294 23.376C195.68 22.6124 195.875 21.7664 195.862 20.9107C195.876 20.0594 195.681 19.2177 195.294 18.4594C194.936 17.765 194.403 17.1768 193.746 16.7537C193.07 16.3283 192.285 16.1104 191.486 16.1269C190.678 16.1129 189.882 16.3304 189.193 16.7537C188.524 17.1702 187.98 17.7594 187.618 18.4594C187.23 19.2173 187.035 20.0593 187.05 20.9107C187.035 21.7665 187.231 22.6128 187.618 23.376C187.973 24.0812 188.519 24.6729 189.193 25.084C189.886 25.4976 190.68 25.7098 191.486 25.6968C192.281 25.7076 193.063 25.4909 193.739 25.0723L193.746 25.084ZM201.688 12.9672H205.278V14.9222C205.694 14.1745 206.33 13.5732 207.1 13.2003C207.933 12.8014 208.848 12.6019 209.771 12.6177C210.855 12.5974 211.926 12.8592 212.879 13.3773C213.769 13.8691 214.502 14.6015 214.995 15.4908C215.515 16.4539 215.775 17.5354 215.752 18.6295V28.8402H211.931V19.5289C211.931 18.4788 211.634 17.6469 211.041 17.0333C210.738 16.726 210.374 16.4855 209.973 16.3274C209.572 16.1693 209.142 16.097 208.711 16.1153C208.278 16.0967 207.847 16.1703 207.445 16.331C207.044 16.4916 206.681 16.7358 206.38 17.0473C205.786 17.6718 205.49 18.4967 205.49 19.5289V28.8355H201.681L201.688 12.9672ZM221.277 28.0829C220.067 27.3611 219.077 26.3215 218.416 25.077C217.73 23.7864 217.379 22.3442 217.395 20.8827C217.366 19.4015 217.724 17.9384 218.432 16.6372C219.097 15.4271 220.07 14.4148 221.254 13.7036C222.466 12.981 223.855 12.6076 225.266 12.6247C226.921 12.6247 228.319 12.9797 229.46 13.6896C230.578 14.3666 231.488 15.339 232.089 16.4997C232.701 17.7013 233.012 19.0334 232.995 20.3817C232.995 20.673 232.979 20.9596 232.951 21.2416C232.927 21.4956 232.873 21.7459 232.79 21.9872H221.352C221.426 22.8881 221.785 23.7421 222.376 24.4253C222.968 25.1085 223.763 25.5854 224.644 25.7868C225.525 25.9883 226.447 25.9039 227.278 25.5458C228.108 25.1878 228.802 24.5747 229.26 23.7954L232.352 25.3123C231.82 26.4953 230.921 27.4756 229.789 28.1085C228.482 28.8294 227.013 29.2063 225.521 29.2038C224.028 29.2014 222.561 28.8197 221.256 28.0945L221.277 28.0829ZM222.808 16.6302C222.086 17.2589 221.606 18.1203 221.452 19.0652H228.908C228.861 18.1562 228.457 17.3024 227.785 16.6885C227.094 16.0676 226.19 15.7378 225.262 15.7681C224.365 15.7486 223.491 16.0531 222.801 16.6256L222.808 16.6302Z" fill="black"/>
<path d="M44.0482 8.56184C35.8268 3.83653 18.7086 0.123104 9.64588 -0.117602C0.580836 -0.358308 -0.431064 2.87136 0.122794 10.2234C0.678989 17.5778 2.7986 29.0522 7.47718 36.3809C12.1534 43.7096 19.3863 46.8925 27.0538 44.2658C34.719 41.6367 42.8213 33.198 47.2077 26.11C51.5942 19.0267 52.2696 13.2872 44.0482 8.56184Z" fill="#0064FA"/>
<path d="M27.9536 28.7554H22.1883V38.344H16.3179V17.0123H22.1883V22.8827H27.9536V22.8663C30.3723 22.8243 32.3213 20.8542 32.3213 18.4261C32.3213 15.998 30.3723 14.0256 27.9536 13.9859V13.9812H8.97751L11.1228 8.11081H27.9512C33.6627 8.11081 38.2946 12.7427 38.2946 18.4542C38.2969 24.168 33.6651 28.7554 27.9536 28.7554Z" fill="white"/>
</g>
<defs>
<clipPath id="clip0_5_56">
<rect width="233" height="45.1768" fill="white"/>
</clipPath>
</defs>
</svg>
