<?xml version="1.0" encoding="UTF-8" standalone="no"?>
<svg
   xmlns:dc="http://purl.org/dc/elements/1.1/"
   xmlns:cc="http://creativecommons.org/ns#"
   xmlns:rdf="http://www.w3.org/1999/02/22-rdf-syntax-ns#"
   xmlns:svg="http://www.w3.org/2000/svg"
   xmlns="http://www.w3.org/2000/svg"
   xmlns:sodipodi="http://sodipodi.sourceforge.net/DTD/sodipodi-0.dtd"
   xmlns:inkscape="http://www.inkscape.org/namespaces/inkscape"
   inkscape:version="1.0 (4035a4fb49, 2020-05-01)"
   sodipodi:docname="svgexport-1.svg"
   id="svg877"
   version="1.1"
   height="40.014999"
   width="168.505"
   viewBox="0 0 103.08541 24.690106">
  <metadata
     id="metadata883">
    <rdf:RDF>
      <cc:Work
         rdf:about="">
        <dc:format>image/svg+xml</dc:format>
        <dc:type
           rdf:resource="http://purl.org/dc/dcmitype/StillImage" />
        <dc:title>Plus500 標誌</dc:title>
      </cc:Work>
    </rdf:RDF>
  </metadata>
  <defs
     id="defs881" />
  <sodipodi:namedview
     showguides="false"
     inkscape:current-layer="svg877"
     inkscape:window-maximized="1"
     inkscape:window-y="-8"
     inkscape:window-x="-8"
     inkscape:cy="15.254376"
     inkscape:cx="113.05082"
     inkscape:zoom="3.7852941"
     showgrid="false"
     id="namedview879"
     inkscape:window-height="1017"
     inkscape:window-width="1920"
     inkscape:pageshadow="2"
     inkscape:pageopacity="0"
     guidetolerance="10"
     gridtolerance="10"
     objecttolerance="10"
     borderopacity="1"
     bordercolor="#666666"
     pagecolor="#ffffff" />
  <title
     id="title859"
     class="show-for-sr">Plus500 標誌</title>
  <g
     transform="translate(-0.4428816,-2.31)"
     id="g893">
    <polygon
       class="logo-color-1"
       points="49.07,5.17 45.84,5.17 45.84,9.85 49.07,9.85 49.07,12.71 54.05,12.71 54.05,9.85 57.28,9.85 57.28,5.17 54.05,5.17 54.05,2.31 49.07,2.31 "
       fill="#c7cdd5"
       id="polygon861" />
    <path
       class="logo-color-2"
       d="M 0,22.55 V 10.77 h 12 a 4.87,4.87 0 0 1 0.66,0 6.4,6.4 0 0 1 0.66,0.14 4.91,4.91 0 0 1 0.62,0.28 3.32,3.32 0 0 1 0.56,0.4 5.12,5.12 0 0 1 0.34,0.44 3.76,3.76 0 0 1 0.27,0.53 3.26,3.26 0 0 1 0.17,0.65 4.59,4.59 0 0 1 0.06,0.76 v 4 a 4.2,4.2 0 0 1 -0.06,0.72 2.58,2.58 0 0 1 -0.17,0.61 1.86,1.86 0 0 1 -0.25,0.51 2.4,2.4 0 0 1 -0.34,0.42 1.83,1.83 0 0 1 -0.44,0.35 3.06,3.06 0 0 1 -0.51,0.26 2.93,2.93 0 0 1 -0.7,0.2 6.11,6.11 0 0 1 -0.73,0.05 H 5.68 V 27 H 0 Z M 5.64,13.44 V 18.5 H 9 a 0.43,0.43 0 0 0 0.26,-0.09 1,1 0 0 0 0.22,-0.23 1.08,1.08 0 0 0 0.13,-0.29 1.17,1.17 0 0 0 0,-0.3 V 14.24 A 0.88,0.88 0 0 0 9.55,13.91 0.7,0.7 0 0 0 9.4,13.67 0.56,0.56 0 0 0 9.19,13.5 0.6,0.6 0 0 0 9,13.44 Z"
       fill="#233a73"
       id="path863" />
    <path
       class="logo-color-2"
       d="m 30,15 v 9 a 0.53,0.53 0 0 0 0.06,0.23 1,1 0 0 0 0.16,0.22 1.58,1.58 0 0 0 0.24,0.15 0.53,0.53 0 0 0 0.24,0.06 h 2.47 a 0.74,0.74 0 0 0 0.24,-0.05 0.49,0.49 0 0 0 0.21,-0.14 1,1 0 0 0 0.16,-0.19 0.35,0.35 0 0 0 0.07,-0.21 v -9 h 5.51 V 27 H 27.77 A 3.38,3.38 0 0 1 27.05,26.92 3.2,3.2 0 0 1 26.41,26.71 4,4 0 0 1 25.87,26.33 3.25,3.25 0 0 1 25.42,25.87 4.58,4.58 0 0 1 25.04,25.31 3.81,3.81 0 0 1 24.76,24.69 C 24.7,24.48 24.65,24.26 24.61,24.04 A 3.52,3.52 0 0 1 24.56,23.4 V 15 Z"
       fill="#233a73"
       id="path865" />
    <path
       class="logo-color-2"
       d="m 54.05,15.08 v 2.19 h -7.3 a 0.68,0.68 0 0 0 -0.17,0 l -0.19,0.08 a 0.58,0.58 0 0 0 -0.15,0.11 0.25,0.25 0 0 0 -0.06,0.16 v 0.66 a 0.21,0.21 0 0 0 0.07,0.15 l 0.16,0.1 a 0.6,0.6 0 0 0 0.19,0.06 h 0.19 5.38 a 3.08,3.08 0 0 1 0.51,0 3.89,3.89 0 0 1 0.49,0.12 2.24,2.24 0 0 1 0.86,0.54 2.48,2.48 0 0 1 0.28,0.36 2.8,2.8 0 0 1 0.22,0.46 2.32,2.32 0 0 1 0.13,0.52 4.13,4.13 0 0 1 0.05,0.63 v 2.79 a 3,3 0 0 1 -0.06,0.61 2.69,2.69 0 0 1 -0.17,0.57 1.77,1.77 0 0 1 -0.25,0.47 c -0.11,0.14 -0.21,0.27 -0.32,0.39 a 4.07,4.07 0 0 1 -0.88,0.59 3,3 0 0 1 -0.65,0.2 4.72,4.72 0 0 1 -0.64,0.05 H 41.22 V 24.85 H 49 a 0.49,0.49 0 0 0 0.19,-0.05 0.71,0.71 0 0 0 0.17,-0.11 0.38,0.38 0 0 0 0.14,-0.14 0.39,0.39 0 0 0 0,-0.18 v -0.66 a 0.35,0.35 0 0 0 0,-0.17 0.41,0.41 0 0 0 -0.14,-0.12 0.54,0.54 0 0 0 -0.18,-0.1 0.39,0.39 0 0 0 -0.18,0 H 43.64 A 4.72,4.72 0 0 1 43,23.27 a 3,3 0 0 1 -0.65,-0.2 2.65,2.65 0 0 1 -0.4,-0.22 1.62,1.62 0 0 1 -0.32,-0.32 2.16,2.16 0 0 1 -0.24,-0.35 2,2 0 0 1 -0.17,-0.4 2.32,2.32 0 0 1 -0.07,-0.38 3.17,3.17 0 0 1 0,-0.44 v -3.21 a 2.15,2.15 0 0 1 0.07,-0.58 2.59,2.59 0 0 1 0.18,-0.51 c 0.09,-0.15 0.19,-0.29 0.29,-0.43 a 3.06,3.06 0 0 1 0.36,-0.36 2.83,2.83 0 0 1 0.45,-0.32 3,3 0 0 1 0.48,-0.22 4.58,4.58 0 0 1 0.66,-0.19 3.85,3.85 0 0 1 0.66,-0.06 z"
       fill="#233a73"
       id="path867" />
    <path
       class="logo-color-2"
       d="m 70.57,12.11 v 2.45 h -8.63 l -0.15,2.93 h 6.09 a 3.38,3.38 0 0 1 1.07,0.17 2.5,2.5 0 0 1 0.57,0.27 2.22,2.22 0 0 1 0.47,0.39 1.91,1.91 0 0 1 0.33,0.42 1.86,1.86 0 0 1 0.23,0.47 3,3 0 0 1 0.16,0.56 3.61,3.61 0 0 1 0.05,0.59 v 3.9 a 3.64,3.64 0 0 1 -0.05,0.6 2.4,2.4 0 0 1 -0.16,0.52 1.7,1.7 0 0 1 -0.29,0.55 3.22,3.22 0 0 1 -0.39,0.43 l -0.44,0.27 a 2,2 0 0 1 -0.48,0.18 2.93,2.93 0 0 1 -0.51,0.13 3.44,3.44 0 0 1 -0.54,0 H 57.08 v -2.37 h 8 a 0.29,0.29 0 0 0 0.22,-0.09 0.91,0.91 0 0 0 0.16,-0.24 1.67,1.67 0 0 0 0.08,-0.3 c 0,-0.11 0,-0.2 0,-0.28 v -2.93 a 1,1 0 0 0 0,-0.33 A 0.64,0.64 0 0 0 65.4,20.17 0.45,0.45 0 0 0 65.21,20.02 0.67,0.67 0 0 0 65,20 h -8.19 l 0.1,-7.87 z"
       fill="#233a73"
       id="path869" />
    <path
       class="logo-color-2"
       d="m 75.78,12.09 h 8.46 a 3.1,3.1 0 0 1 0.69,0.08 4.57,4.57 0 0 1 0.59,0.17 2.42,2.42 0 0 1 0.56,0.35 2.62,2.62 0 0 1 0.44,0.44 2.71,2.71 0 0 1 0.4,0.65 4.78,4.78 0 0 1 0.41,1.45 6.06,6.06 0 0 1 0,0.73 v 7.18 a 6.34,6.34 0 0 1 0,0.76 3.84,3.84 0 0 1 -0.15,0.69 3.52,3.52 0 0 1 -0.28,0.75 3.64,3.64 0 0 1 -0.38,0.62 2.79,2.79 0 0 1 -0.46,0.45 2.35,2.35 0 0 1 -0.52,0.32 2.19,2.19 0 0 1 -0.59,0.21 3.08,3.08 0 0 1 -0.61,0.06 h -8.6 a 3.33,3.33 0 0 1 -0.7,-0.07 2.55,2.55 0 0 1 -0.67,-0.24 3.22,3.22 0 0 1 -0.58,-0.41 2.55,2.55 0 0 1 -0.5,-0.57 5.58,5.58 0 0 1 -0.31,-0.6 3.79,3.79 0 0 1 -0.23,-0.72 c 0,-0.21 -0.07,-0.43 -0.1,-0.66 a 5.7,5.7 0 0 1 0,-0.74 v -6.83 a 5.46,5.46 0 0 1 0,-0.8 5.66,5.66 0 0 1 0.16,-0.8 3.28,3.28 0 0 1 0.24,-0.75 3.86,3.86 0 0 1 0.4,-0.66 3.17,3.17 0 0 1 0.48,-0.49 2.3,2.3 0 0 1 0.62,-0.34 3.61,3.61 0 0 1 1.22,-0.23 z m 5.57,2.5 h -2.76 a 0.56,0.56 0 0 0 -0.3,0.08 0.67,0.67 0 0 0 -0.26,0.21 0.86,0.86 0 0 0 -0.2,0.27 0.64,0.64 0 0 0 -0.07,0.31 v 8.22 a 0.62,0.62 0 0 0 0.09,0.32 1.12,1.12 0 0 0 0.22,0.26 1.27,1.27 0 0 0 0.29,0.21 0.8,0.8 0 0 0 0.33,0.08 h 2.66 a 0.65,0.65 0 0 0 0.26,-0.06 1.06,1.06 0 0 0 0.26,-0.17 0.6,0.6 0 0 0 0.17,-0.21 0.46,0.46 0 0 0 0.08,-0.24 v -8.6 A 0.49,0.49 0 0 0 82,15 0.87,0.87 0 0 0 81.83,14.79 1.4,1.4 0 0 0 81.57,14.63 0.65,0.65 0 0 0 81.35,14.59 Z"
       fill="#233a73"
       id="path871" />
    <path
       class="logo-color-2"
       d="m 92.41,12.09 h 8.45 a 3,3 0 0 1 0.7,0.08 4.57,4.57 0 0 1 0.59,0.17 2.42,2.42 0 0 1 0.56,0.35 2.62,2.62 0 0 1 0.44,0.44 2.42,2.42 0 0 1 0.4,0.65 4.78,4.78 0 0 1 0.41,1.45 6.06,6.06 0 0 1 0,0.73 v 7.18 a 6.34,6.34 0 0 1 0,0.76 3.84,3.84 0 0 1 -0.15,0.69 3.52,3.52 0 0 1 -0.28,0.75 3.1,3.1 0 0 1 -0.38,0.62 2.79,2.79 0 0 1 -0.46,0.45 2.61,2.61 0 0 1 -0.52,0.32 2.19,2.19 0 0 1 -0.59,0.21 A 3.08,3.08 0 0 1 101,27 h -8.6 a 3.33,3.33 0 0 1 -0.7,-0.07 2.55,2.55 0 0 1 -0.67,-0.24 3.22,3.22 0 0 1 -0.58,-0.41 2.83,2.83 0 0 1 -0.5,-0.57 5.58,5.58 0 0 1 -0.31,-0.6 4.68,4.68 0 0 1 -0.23,-0.72 c 0,-0.21 -0.07,-0.43 -0.1,-0.66 a 5.7,5.7 0 0 1 0,-0.74 v -6.83 a 7.31,7.31 0 0 1 0.05,-0.8 5.66,5.66 0 0 1 0.16,-0.8 2.88,2.88 0 0 1 0.25,-0.75 2.87,2.87 0 0 1 0.39,-0.66 3.17,3.17 0 0 1 0.48,-0.49 2.3,2.3 0 0 1 0.62,-0.34 3.61,3.61 0 0 1 1.22,-0.23 z m 5.59,2.5 h -2.78 a 0.56,0.56 0 0 0 -0.3,0.08 0.67,0.67 0 0 0 -0.26,0.21 0.86,0.86 0 0 0 -0.2,0.27 0.64,0.64 0 0 0 -0.07,0.31 v 8.22 a 0.62,0.62 0 0 0 0.09,0.32 0.92,0.92 0 0 0 0.22,0.26 1.27,1.27 0 0 0 0.29,0.21 0.8,0.8 0 0 0 0.33,0.08 H 98 a 0.65,0.65 0 0 0 0.26,-0.06 1.28,1.28 0 0 0 0.26,-0.17 0.6,0.6 0 0 0 0.17,-0.21 0.46,0.46 0 0 0 0.08,-0.24 v -8.6 A 0.49,0.49 0 0 0 98.69,15.02 0.87,0.87 0 0 0 98.52,14.81 1.83,1.83 0 0 0 98.26,14.65 0.65,0.65 0 0 0 98,14.59 Z"
       fill="#233a73"
       id="path873" />
    <path
       class="logo-color-2"
       d="m 22.71,26.92 c 0,0 -2.7,0 -2.92,0 A 1.74,1.74 0 0 1 19.15,26.64 3.17,3.17 0 0 1 18.61,26.14 3.84,3.84 0 0 1 18.16,25.53 5,5 0 0 1 17.78,24.8 6.75,6.75 0 0 1 17.5,24 c -0.06,-0.28 -0.11,-0.57 -0.15,-0.85 a 6.33,6.33 0 0 1 -0.06,-0.86 v -11.1 h 5.45 z"
       fill="#233a73"
       id="path875" />
  </g>
</svg>
