<?xml version="1.0" encoding="utf-8"?>
<!-- Generator: Adobe Illustrator 24.3.0, SVG Export Plug-In . SVG Version: 6.00 Build 0)  -->
<svg version="1.1" id="Layer_1" xmlns="http://www.w3.org/2000/svg" xmlns:xlink="http://www.w3.org/1999/xlink" x="0px" y="0px"
	 viewBox="0 0 132 42" style="enable-background:new 0 0 132 42;" xml:space="preserve">
<style type="text/css">
	.st0{fill:#2FA58B;}
	.st1{fill:#2AB99D;}
	.st2{display:none;opacity:0.46;fill:#2AB99D;}
</style>
<path class="st0" d="M8,0L16,13.9L24.1,0H8z"/>
<path class="st1" d="M8,0L0,13.9l16.1,27.7l8-13.8L8,0z"/>
<path class="st0" d="M8.1,27.6l8.1,13.9H0L8.1,27.6z"/>
<g>
	<rect x="19.7" y="12.2" transform="matrix(0.7799 -0.6258 0.6258 0.7799 -0.5431 26.8803)" class="st2" width="36.5" height="4"/>
	<path class="st1" d="M105.3,12.6c-1.5,0-2.9,0.6-4.1,1.7c-0.1,0.1-0.2,0-0.2-0.1v-1c0-0.1-0.1-0.1-0.1-0.1h-3.4
		c-0.1,0-0.1,0.1-0.1,0.1v15.6c0,0.1,0.1,0.1,0.1,0.1h3.4c0.1,0,0.1-0.1,0.1-0.1v-7.5c0-2,0.3-3.4,0.8-4.2c0.5-0.8,1.4-1.2,2.6-1.2
		c1.1,0,1.9,0.3,2.3,0.9c0.4,0.6,0.7,1.7,0.7,3.2v8.7c0,0.1,0.1,0.1,0.1,0.1h3.4c0.1,0,0.1-0.1,0.1-0.1v-9.6c0-2.2-0.4-3.9-1.3-4.8
		C108.6,13.2,107.2,12.6,105.3,12.6z"/>
	<path class="st1" d="M39.5,12.9l-2.7-1.1c-1.9-0.8-2.9-1.8-2.9-3.1c0-0.9,0.4-1.7,1.1-2.3c0.7-0.6,1.7-0.9,2.8-0.9
		c0.9,0,1.6,0.2,2.1,0.6c0.5,0.3,1.5,1.2,2.1,2.2c0,0.1,0.1,0.1,0.2,0l2.7-2.1c0.1,0,0.1-0.1,0-0.2c-1.7-2.9-4.1-4.4-7.1-4.4
		c-2.3,0-4.2,0.7-5.7,2c-1.5,1.3-2.3,3-2.3,5c0,3,1.8,5.2,5.5,6.8l2.6,1.1c0.7,0.3,1.2,0.6,1.7,0.9c0.5,0.3,0.9,0.7,1.2,1
		c0.3,0.4,0.5,0.8,0.7,1.2c0.1,0.4,0.2,0.9,0.2,1.4c0,1.3-0.4,2.4-1.2,3.2c-0.8,0.8-1.9,1.3-3.1,1.3c-1.6,0-2.8-0.6-3.6-1.7
		c-0.4-0.6-0.8-1-0.9-2.5c0-0.1-0.1-0.1-0.1-0.1l-2.9,2.3c-0.1,0-0.1,0.1-0.1,0.1s0.4,2.2,1.9,3.6c0.3,0.3,0.6,0.5,1,0.7
		c1.3,0.9,2.9,1.3,4.8,1.3c2.4,0,4.5-0.8,6.1-2.4c1.6-1.6,2.4-3.6,2.4-6.1c0-1.8-0.5-3.4-1.5-4.6S41.6,13.8,39.5,12.9z"/>
	<path class="st1" d="M56.2,19.8c0,0,0-0.1,0-0.2L63,13c0.1-0.1,0-0.2-0.1-0.2h-4.5c0,0-0.1,0-0.1,0L53.2,18c-0.1,0.1-0.2,0-0.2-0.1
		v-16c0-0.1-0.2-0.2-0.3-0.1l-3.3,2.8c0,0,0,0.1,0,0.1v24c0,0.1,0.1,0.1,0.1,0.1h3.4c0.1,0,0.1-0.1,0.1-0.1v-5.9c0,0,0-0.1,0-0.1
		l0.4-0.4c0.1-0.1,0.1,0,0.2,0l5.1,6.5c0,0,0.1,0,0.1,0h4.4c0.1,0,0.2-0.1,0.1-0.2L56.2,19.8z"/>
	<path class="st1" d="M70.1,12.8l-3.3,3c0,0,0,0.1,0,0.1v12.9c0,0.1,0.1,0.1,0.1,0.1h3.4c0.1,0,0.1-0.1,0.1-0.1V12.9
		C70.3,12.7,70.2,12.7,70.1,12.8z"/>
	<path class="st1" d="M78,1.9c0-0.1-0.2-0.2-0.3-0.1l-3.3,3c0,0,0,0.1,0,0.1v23.9c0,0.1,0.1,0.1,0.1,0.1h3.4c0.1,0,0.1-0.1,0.1-0.1
		V1.9z"/>
	<path class="st1" d="M85.6,1.9c0-0.1-0.2-0.2-0.3-0.1l-3.3,3c0,0,0,0.1,0,0.1v23.9c0,0.1,0.1,0.1,0.1,0.1h3.4
		c0.1,0,0.1-0.1,0.1-0.1V1.9z"/>
	<path class="st1" d="M93,12.8l-3.3,3c0,0,0,0.1,0,0.1v12.9c0,0.1,0.1,0.1,0.1,0.1h3.4c0.1,0,0.1-0.1,0.1-0.1V12.9
		C93.3,12.7,93.1,12.7,93,12.8z"/>
	<path class="st1" d="M130,12.8h-3.4c-0.1,0-0.1,0.1-0.1,0.1v1.6c0,0.1-0.1,0.2-0.2,0.1c-1.3-1.3-2.9-2-4.7-2
		c-2.3,0-4.1,0.9-5.5,2.6c-1.3,1.6-1.9,3.6-1.9,5.9c0,2.4,0.7,4.3,2.1,5.9c1.4,1.6,3.1,2.3,5.3,2.3c1.8,0,3.4-0.7,4.8-2
		c0.1-0.1,0.2,0,0.2,0.1v1.9c0,3.3-1.3,4.9-4,4.9c-1.4,0-2.5-0.5-3.3-1.5c-0.3-0.4-0.5-1-0.7-1.7c0-0.1-0.1-0.1-0.1-0.1l-3.4,0
		c-0.1,0-0.1,0.1-0.1,0.1c0.2,2,1,3.6,2.4,4.7c1.4,1.1,3.1,1.7,5.2,1.7c2.5,0,4.4-0.8,5.9-2.5c0.8-0.9,1.3-1.9,1.5-3.1
		c0.1-0.4,0.2-0.9,0.2-1.5c0-0.6,0.1-1.2,0.1-2V12.9C130.1,12.9,130,12.8,130,12.8z M125.5,24.6c-0.8,1-1.9,1.5-3.3,1.5
		c-1.4,0-2.5-0.5-3.3-1.5c-0.7-0.9-1.1-2.1-1.1-3.5c0-1.5,0.4-2.6,1.1-3.6c0.8-1,1.9-1.5,3.3-1.5c1.3,0,2.4,0.5,3.2,1.4
		c0.8,0.9,1.2,2.1,1.2,3.7C126.6,22.5,126.2,23.6,125.5,24.6z"/>
</g>
<g>
	<path class="st1" d="M32.7,37.7c0,0.4-0.1,0.8-0.2,1.2c-0.1,0.3-0.3,0.6-0.5,0.9c-0.2,0.2-0.5,0.4-0.8,0.6
		c-0.3,0.1-0.7,0.2-1.1,0.2c-0.2,0-0.4,0-0.6,0c-0.2,0-0.4-0.1-0.6-0.1c0-0.2,0-0.3,0-0.5c0-0.2,0-0.3,0-0.5c0-0.1,0-0.2,0.1-0.2
		c0.1-0.1,0.1-0.1,0.2-0.1c0.1,0,0.1,0,0.2,0c0.1,0,0.2,0,0.3,0c0.2,0,0.4,0,0.5-0.1c0.1-0.1,0.3-0.1,0.4-0.3
		c0.1-0.1,0.2-0.3,0.2-0.5c0-0.2,0.1-0.4,0.1-0.7v-5h1.6V37.7z"/>
	<path class="st1" d="M36.3,34.9c0.4,0,0.8,0.1,1.1,0.2c0.3,0.1,0.6,0.3,0.9,0.6c0.2,0.2,0.4,0.5,0.6,0.9c0.1,0.3,0.2,0.7,0.2,1.2
		c0,0.4-0.1,0.8-0.2,1.2c-0.1,0.3-0.3,0.6-0.6,0.9c-0.2,0.2-0.5,0.4-0.9,0.6c-0.3,0.1-0.7,0.2-1.1,0.2c-0.4,0-0.8-0.1-1.1-0.2
		c-0.3-0.1-0.6-0.3-0.9-0.6c-0.2-0.2-0.4-0.5-0.6-0.9c-0.1-0.3-0.2-0.7-0.2-1.2c0-0.4,0.1-0.8,0.2-1.2c0.1-0.3,0.3-0.6,0.6-0.9
		c0.2-0.2,0.5-0.4,0.9-0.6C35.5,35,35.9,34.9,36.3,34.9z M36.3,39.4c0.4,0,0.7-0.1,0.9-0.4c0.2-0.3,0.3-0.7,0.3-1.3
		c0-0.6-0.1-1-0.3-1.3c-0.2-0.3-0.5-0.4-0.9-0.4c-0.4,0-0.7,0.1-0.9,0.4c-0.2,0.3-0.3,0.7-0.3,1.3c0,0.6,0.1,1,0.3,1.3
		C35.6,39.3,35.9,39.4,36.3,39.4z"/>
	<path class="st1" d="M41.7,33.5c0,0.1,0,0.2-0.1,0.3c0,0.1-0.1,0.2-0.2,0.3c-0.1,0.1-0.2,0.1-0.3,0.2c-0.1,0-0.2,0.1-0.4,0.1
		c-0.1,0-0.2,0-0.3-0.1c-0.1,0-0.2-0.1-0.3-0.2C40,34,40,33.9,39.9,33.8c0-0.1-0.1-0.2-0.1-0.3c0-0.1,0-0.2,0.1-0.3
		c0-0.1,0.1-0.2,0.2-0.3c0.1-0.1,0.2-0.1,0.3-0.2c0.1,0,0.2-0.1,0.3-0.1c0.1,0,0.2,0,0.4,0.1c0.1,0,0.2,0.1,0.3,0.2
		c0.1,0.1,0.1,0.2,0.2,0.3C41.6,33.2,41.7,33.3,41.7,33.5z M41.5,35v5.5H40V35H41.5z"/>
	<path class="st1" d="M44.1,35.6c0.1-0.1,0.2-0.2,0.3-0.3c0.1-0.1,0.2-0.2,0.4-0.2c0.1-0.1,0.3-0.1,0.4-0.1c0.2,0,0.3-0.1,0.5-0.1
		c0.3,0,0.6,0.1,0.8,0.2c0.2,0.1,0.4,0.2,0.6,0.4c0.2,0.2,0.3,0.4,0.4,0.7c0.1,0.3,0.1,0.5,0.1,0.8v3.5h-1.5V37
		c0-0.3-0.1-0.5-0.2-0.7S45.6,36,45.3,36c-0.2,0-0.4,0-0.6,0.1c-0.2,0.1-0.4,0.2-0.5,0.4v3.9h-1.5V35h0.9c0.2,0,0.3,0.1,0.4,0.3
		L44.1,35.6z"/>
	<path class="st1" d="M48.5,39.7c0-0.1,0-0.2,0.1-0.3c0-0.1,0.1-0.2,0.2-0.3c0.1-0.1,0.2-0.1,0.3-0.2c0.1,0,0.2-0.1,0.3-0.1
		c0.1,0,0.2,0,0.3,0.1c0.1,0,0.2,0.1,0.3,0.2c0.1,0.1,0.1,0.2,0.2,0.3c0,0.1,0.1,0.2,0.1,0.3c0,0.1,0,0.2-0.1,0.3
		c0,0.1-0.1,0.2-0.2,0.3s-0.2,0.1-0.3,0.2c-0.1,0-0.2,0.1-0.3,0.1c-0.1,0-0.2,0-0.3-0.1c-0.1,0-0.2-0.1-0.3-0.2s-0.1-0.2-0.2-0.3
		C48.6,39.9,48.5,39.8,48.5,39.7z"/>
	<path class="st1" d="M59.1,34.1h-2.2v6.4h-1.6v-6.4H53v-1.3h6.1V34.1z"/>
	<path class="st1" d="M60.2,35.9c0.2-0.3,0.4-0.6,0.6-0.7c0.2-0.2,0.5-0.3,0.8-0.3c0.2,0,0.4,0.1,0.6,0.2l-0.1,1.1
		c0,0.1,0,0.1-0.1,0.1s-0.1,0-0.2,0c-0.1,0-0.1,0-0.2,0c-0.1,0-0.2,0-0.3,0c-0.1,0-0.3,0-0.4,0.1s-0.2,0.1-0.3,0.2
		c-0.1,0.1-0.2,0.2-0.2,0.3c-0.1,0.1-0.1,0.2-0.2,0.3v3.3h-1.5V35h0.9c0.1,0,0.3,0,0.3,0.1c0.1,0.1,0.1,0.1,0.1,0.3L60.2,35.9z"/>
	<path class="st1" d="M62.6,35.8c0.3-0.3,0.7-0.5,1.1-0.6c0.4-0.1,0.8-0.2,1.3-0.2c0.3,0,0.6,0.1,0.9,0.2c0.3,0.1,0.5,0.3,0.7,0.4
		c0.2,0.2,0.3,0.4,0.4,0.7C67,36.4,67,36.7,67,37v3.4h-0.7c-0.1,0-0.2,0-0.3-0.1c-0.1,0-0.1-0.1-0.2-0.2l-0.1-0.3
		c-0.1,0.1-0.3,0.2-0.4,0.3c-0.1,0.1-0.3,0.2-0.4,0.2c-0.1,0.1-0.3,0.1-0.4,0.1c-0.2,0-0.3,0-0.5,0c-0.2,0-0.5,0-0.7-0.1
		c-0.2-0.1-0.4-0.2-0.5-0.3c-0.1-0.1-0.3-0.3-0.3-0.5s-0.1-0.4-0.1-0.6c0-0.2,0.1-0.4,0.2-0.6c0.1-0.2,0.3-0.4,0.5-0.5
		c0.2-0.2,0.6-0.3,1-0.4c0.4-0.1,0.9-0.2,1.6-0.2V37c0-0.3-0.1-0.6-0.2-0.8C65.2,36.1,65,36,64.7,36c-0.2,0-0.4,0-0.5,0.1
		c-0.1,0-0.3,0.1-0.4,0.2c-0.1,0.1-0.2,0.1-0.3,0.2c-0.1,0-0.2,0.1-0.3,0.1c-0.1,0-0.2,0-0.3-0.1c-0.1-0.1-0.1-0.1-0.2-0.2
		L62.6,35.8z M65.6,38.2c-0.4,0-0.7,0-0.9,0.1c-0.2,0-0.4,0.1-0.6,0.2c-0.1,0.1-0.2,0.2-0.3,0.2c-0.1,0.1-0.1,0.2-0.1,0.3
		c0,0.2,0.1,0.4,0.2,0.4c0.1,0.1,0.3,0.1,0.5,0.1c0.2,0,0.5,0,0.6-0.1c0.2-0.1,0.4-0.2,0.5-0.4V38.2z"/>
	<path class="st1" d="M73,32.6v7.9h-0.9c-0.2,0-0.3-0.1-0.4-0.3l-0.1-0.5c-0.1,0.1-0.2,0.2-0.3,0.3c-0.1,0.1-0.3,0.2-0.4,0.3
		s-0.3,0.1-0.5,0.2c-0.2,0-0.3,0.1-0.5,0.1c-0.3,0-0.6-0.1-0.8-0.2c-0.2-0.1-0.5-0.3-0.6-0.5c-0.2-0.2-0.3-0.5-0.4-0.9
		c-0.1-0.3-0.1-0.7-0.1-1.2c0-0.4,0.1-0.8,0.2-1.1c0.1-0.3,0.3-0.7,0.5-0.9s0.5-0.5,0.7-0.6c0.3-0.1,0.6-0.2,1-0.2
		c0.3,0,0.5,0,0.7,0.1c0.2,0.1,0.4,0.2,0.6,0.4v-2.8H73z M71.5,36.4c-0.1-0.2-0.3-0.3-0.4-0.3C70.9,36,70.7,36,70.6,36
		c-0.2,0-0.3,0-0.5,0.1c-0.1,0.1-0.3,0.2-0.4,0.3s-0.2,0.3-0.2,0.5c-0.1,0.2-0.1,0.5-0.1,0.8c0,0.3,0,0.6,0.1,0.8
		c0,0.2,0.1,0.4,0.2,0.5c0.1,0.1,0.2,0.2,0.3,0.3c0.1,0.1,0.3,0.1,0.4,0.1c0.3,0,0.5-0.1,0.6-0.2c0.2-0.1,0.3-0.2,0.5-0.4V36.4z"/>
	<path class="st1" d="M75.4,38c0,0.5,0.2,0.9,0.4,1.1c0.2,0.2,0.6,0.4,1,0.4c0.2,0,0.4,0,0.5-0.1c0.1,0,0.3-0.1,0.4-0.2
		c0.1-0.1,0.2-0.1,0.3-0.2c0.1,0,0.2-0.1,0.3-0.1c0.1,0,0.2,0,0.3,0.1l0.4,0.5c-0.2,0.2-0.3,0.3-0.5,0.4c-0.2,0.1-0.4,0.2-0.6,0.3
		c-0.2,0.1-0.4,0.1-0.6,0.1c-0.2,0-0.4,0-0.6,0c-0.4,0-0.7-0.1-1.1-0.2c-0.3-0.1-0.6-0.3-0.9-0.6c-0.2-0.2-0.4-0.5-0.6-0.9
		c-0.1-0.4-0.2-0.8-0.2-1.3c0-0.4,0.1-0.7,0.2-1c0.1-0.3,0.3-0.6,0.5-0.9c0.2-0.2,0.5-0.4,0.8-0.6c0.3-0.1,0.7-0.2,1.1-0.2
		c0.3,0,0.7,0.1,1,0.2c0.3,0.1,0.5,0.3,0.8,0.5c0.2,0.2,0.4,0.5,0.5,0.8c0.1,0.3,0.2,0.7,0.2,1.1c0,0.1,0,0.2,0,0.3
		c0,0.1,0,0.1-0.1,0.2c0,0-0.1,0.1-0.1,0.1c0,0-0.1,0-0.2,0H75.4z M77.7,37.1c0-0.2,0-0.3-0.1-0.4c0-0.1-0.1-0.3-0.2-0.4
		c-0.1-0.1-0.2-0.2-0.3-0.3C76.9,36,76.8,36,76.6,36c-0.3,0-0.6,0.1-0.8,0.3c-0.2,0.2-0.3,0.5-0.4,0.8H77.7z"/>
	<path class="st1" d="M79.7,39.7c0-0.1,0-0.2,0.1-0.3c0-0.1,0.1-0.2,0.2-0.3c0.1-0.1,0.2-0.1,0.3-0.2c0.1,0,0.2-0.1,0.3-0.1
		c0.1,0,0.2,0,0.3,0.1c0.1,0,0.2,0.1,0.3,0.2c0.1,0.1,0.1,0.2,0.2,0.3c0,0.1,0.1,0.2,0.1,0.3c0,0.1,0,0.2-0.1,0.3
		c0,0.1-0.1,0.2-0.2,0.3s-0.2,0.1-0.3,0.2c-0.1,0-0.2,0.1-0.3,0.1c-0.1,0-0.2,0-0.3-0.1c-0.1,0-0.2-0.1-0.3-0.2s-0.1-0.2-0.2-0.3
		C79.7,39.9,79.7,39.8,79.7,39.7z"/>
	<path class="st1" d="M88.8,36.6h2.6v3.2c-0.4,0.3-0.8,0.5-1.3,0.6c-0.4,0.1-0.9,0.2-1.4,0.2c-0.6,0-1.2-0.1-1.7-0.3
		c-0.5-0.2-0.9-0.5-1.3-0.8c-0.4-0.3-0.6-0.8-0.8-1.2c-0.2-0.5-0.3-1-0.3-1.6c0-0.6,0.1-1.1,0.3-1.6c0.2-0.5,0.5-0.9,0.8-1.2
		c0.3-0.3,0.8-0.6,1.3-0.8c0.5-0.2,1-0.3,1.7-0.3c0.3,0,0.6,0,0.9,0.1s0.5,0.1,0.8,0.2c0.2,0.1,0.4,0.2,0.6,0.3
		c0.2,0.1,0.4,0.3,0.5,0.4L91,34.4c-0.1,0.1-0.2,0.2-0.3,0.2c-0.1,0-0.2,0-0.4-0.1c-0.1-0.1-0.3-0.1-0.4-0.2
		c-0.1-0.1-0.3-0.1-0.4-0.2c-0.1,0-0.3-0.1-0.4-0.1c-0.2,0-0.3,0-0.6,0c-0.4,0-0.7,0.1-1,0.2c-0.3,0.1-0.5,0.3-0.7,0.5
		c-0.2,0.2-0.4,0.5-0.5,0.8c-0.1,0.3-0.2,0.7-0.2,1.1c0,0.4,0.1,0.8,0.2,1.1c0.1,0.3,0.3,0.6,0.5,0.8c0.2,0.2,0.5,0.4,0.8,0.5
		c0.3,0.1,0.6,0.2,1,0.2c0.3,0,0.5,0,0.7-0.1c0.2-0.1,0.4-0.1,0.6-0.2v-1.3h-0.9c-0.1,0-0.2,0-0.2-0.1c-0.1-0.1-0.1-0.1-0.1-0.2
		V36.6z"/>
	<path class="st1" d="M93.9,35.9c0.2-0.3,0.4-0.6,0.6-0.7c0.2-0.2,0.5-0.3,0.8-0.3c0.2,0,0.4,0.1,0.6,0.2l-0.1,1.1
		c0,0.1,0,0.1-0.1,0.1s-0.1,0-0.2,0c-0.1,0-0.1,0-0.2,0c-0.1,0-0.2,0-0.3,0c-0.1,0-0.3,0-0.4,0.1s-0.2,0.1-0.3,0.2
		c-0.1,0.1-0.2,0.2-0.2,0.3C94.1,36.9,94,37,94,37.1v3.3h-1.5V35h0.9c0.1,0,0.3,0,0.3,0.1c0.1,0.1,0.1,0.1,0.1,0.3L93.9,35.9z"/>
	<path class="st1" d="M98.8,34.9c0.4,0,0.8,0.1,1.1,0.2c0.3,0.1,0.6,0.3,0.9,0.6c0.2,0.2,0.4,0.5,0.6,0.9c0.1,0.3,0.2,0.7,0.2,1.2
		c0,0.4-0.1,0.8-0.2,1.2c-0.1,0.3-0.3,0.6-0.6,0.9c-0.2,0.2-0.5,0.4-0.9,0.6c-0.3,0.1-0.7,0.2-1.1,0.2c-0.4,0-0.8-0.1-1.1-0.2
		c-0.3-0.1-0.6-0.3-0.9-0.6c-0.2-0.2-0.4-0.5-0.6-0.9c-0.1-0.3-0.2-0.7-0.2-1.2c0-0.4,0.1-0.8,0.2-1.2c0.1-0.3,0.3-0.6,0.6-0.9
		c0.2-0.2,0.5-0.4,0.9-0.6C98,35,98.4,34.9,98.8,34.9z M98.8,39.4c0.4,0,0.7-0.1,0.9-0.4c0.2-0.3,0.3-0.7,0.3-1.3
		c0-0.6-0.1-1-0.3-1.3c-0.2-0.3-0.5-0.4-0.9-0.4c-0.4,0-0.7,0.1-0.9,0.4c-0.2,0.3-0.3,0.7-0.3,1.3c0,0.6,0.1,1,0.3,1.3
		C98.1,39.3,98.4,39.4,98.8,39.4z"/>
	<path class="st1" d="M110.3,35l-1.7,5.5h-1.2c-0.1,0-0.1,0-0.2-0.1c0,0-0.1-0.1-0.1-0.2l-0.9-3c0-0.1-0.1-0.2-0.1-0.3
		s-0.1-0.2-0.1-0.3c0,0.1-0.1,0.2-0.1,0.3c0,0.1-0.1,0.2-0.1,0.3l-0.9,2.9c0,0.2-0.2,0.3-0.3,0.3h-1.1l-1.7-5.5h1.2
		c0.1,0,0.2,0,0.3,0.1c0.1,0,0.1,0.1,0.1,0.2l0.7,2.7c0,0.2,0.1,0.3,0.1,0.5c0,0.2,0.1,0.3,0.1,0.5c0-0.2,0.1-0.3,0.1-0.5
		c0-0.2,0.1-0.3,0.2-0.5l0.8-2.7c0-0.1,0.1-0.1,0.1-0.2c0.1,0,0.2-0.1,0.2-0.1h0.6c0.1,0,0.2,0,0.3,0.1c0.1,0,0.1,0.1,0.1,0.2
		l0.8,2.7c0,0.2,0.1,0.3,0.1,0.5c0,0.2,0.1,0.3,0.1,0.5c0-0.2,0.1-0.3,0.1-0.5c0-0.2,0.1-0.3,0.1-0.5l0.7-2.7c0-0.1,0.1-0.1,0.1-0.2
		c0.1,0,0.2-0.1,0.2-0.1H110.3z"/>
	<path class="st1" d="M110.5,39.7c0-0.1,0-0.2,0.1-0.3c0-0.1,0.1-0.2,0.2-0.3c0.1-0.1,0.2-0.1,0.3-0.2c0.1,0,0.2-0.1,0.3-0.1
		c0.1,0,0.2,0,0.3,0.1c0.1,0,0.2,0.1,0.3,0.2c0.1,0.1,0.1,0.2,0.2,0.3c0,0.1,0.1,0.2,0.1,0.3c0,0.1,0,0.2-0.1,0.3
		c0,0.1-0.1,0.2-0.2,0.3s-0.2,0.1-0.3,0.2c-0.1,0-0.2,0.1-0.3,0.1c-0.1,0-0.2,0-0.3-0.1c-0.1,0-0.2-0.1-0.3-0.2s-0.1-0.2-0.2-0.3
		C110.5,39.9,110.5,39.8,110.5,39.7z"/>
</g>
</svg>
