<?xml version="1.0" encoding="utf-8"?>
<!-- Generator: Adobe Illustrator 21.1.0, SVG Export Plug-In . SVG Version: 6.00 Build 0)  -->
<svg version="1.1" id="Layer_1" xmlns="http://www.w3.org/2000/svg" xmlns:xlink="http://www.w3.org/1999/xlink" x="0px" y="0px"
	 viewBox="0 0 165 28" style="enable-background:new 0 0 165 28;" xml:space="preserve">
<style type="text/css">
	.st0{fill:url(#SVGID_1_);}
	.st1{fill:#FFFFFF;}
	.st2{fill:#231F20;}
	.st3{fill:#67942D;}
</style>
<g>
	<g>
		<g>
			<g>
				
					<radialGradient id="SVGID_1_" cx="-427.3651" cy="13.5917" r="11.3858" gradientTransform="matrix(1.1857 0 0 1.1857 520.4775 -2.1365)" gradientUnits="userSpaceOnUse">
					<stop  offset="0" style="stop-color:#BBD765"/>
					<stop  offset="0.9839" style="stop-color:#7AB34D"/>
				</radialGradient>
				<circle class="st0" cx="13.8" cy="14" r="13.5"/>
				<g>
					<path class="st1" d="M21.5,4.4C16.2,0.1,8.4,1,4.1,6.3C-0.1,11.6,0.7,19.3,6,23.6c5.3,4.3,13.1,3.4,17.3-1.9
						C27.6,16.4,26.8,8.6,21.5,4.4z M22.6,21.1c-3.9,4.9-11.1,5.7-16,1.8c-4.9-3.9-5.7-11.1-1.8-16C8.8,2,16,1.2,20.9,5.1
						C25.8,9.1,26.6,16.2,22.6,21.1z"/>
				</g>
			</g>
		</g>
		<g>
			<g>
				<path class="st1" d="M13.2,6.4c0,0.4,0.3,0.6,0.6,0.7V5.9c-0.6-0.1-0.9-0.3-0.9-0.8c0-0.5,0.4-0.9,0.9-0.9V3.9H14v0.3
					c0.5,0.1,0.7,0.4,0.8,0.8h-0.4c-0.1-0.3-0.2-0.4-0.5-0.5v1l0.3,0.1c0.2,0.1,0.7,0.3,0.7,0.8c0,0.5-0.4,0.9-0.9,0.9v0.3h-0.2V7.4
					c-0.6-0.1-0.9-0.4-1-1H13.2z M13.8,4.6c-0.3,0-0.5,0.2-0.5,0.5c0,0.3,0.2,0.4,0.5,0.5V4.6z M14,7.1c0.3,0,0.5-0.2,0.5-0.5
					c0-0.3-0.2-0.4-0.5-0.5V7.1z"/>
			</g>
		</g>
		<g>
			<g>
				<path class="st1" d="M6.9,19.6h0.2c-0.1-0.2-0.2-0.4-0.2-0.7c0-0.5,0.5-0.9,1-0.9c0.6,0,1,0.4,1,1.1H8.5c0-0.5-0.2-0.8-0.6-0.8
					c-0.3,0-0.6,0.2-0.6,0.6c0,0.3,0.1,0.4,0.2,0.7h0.7v0.2H7.6c0,0.1,0.1,0.2,0.1,0.3c0,0.4-0.2,0.6-0.5,0.8l0,0
					c0.1-0.1,0.3-0.1,0.4-0.1c0.2,0,0.3,0,0.4,0.1c0.1,0,0.2,0.1,0.4,0.1c0.1,0,0.3-0.1,0.4-0.2L9,21.1c-0.2,0.1-0.4,0.2-0.6,0.2
					c-0.1,0-0.3,0-0.4-0.1c-0.1,0-0.3-0.1-0.4-0.1c-0.2,0-0.3,0.1-0.4,0.1L6.9,21c0.2-0.2,0.5-0.4,0.5-0.8c0-0.1-0.1-0.3-0.1-0.4
					H6.9V19.6z"/>
			</g>
		</g>
		<g>
			<g>
				<path class="st1" d="M20.6,18.5c-0.2-0.2-0.4-0.3-0.6-0.3c-0.2,0-0.4,0.1-0.5,0.3c-0.1,0.1-0.2,0.3-0.2,0.6h1.2l-0.1,0.3h-1.1
					c0,0,0,0.1,0,0.1c0,0,0,0.1,0,0.1h1.1l-0.1,0.3h-0.9c0.1,0.6,0.4,0.9,0.8,0.9c0.1,0,0.3,0,0.4-0.1c0.1,0,0.2-0.1,0.3-0.2v0.4
					C20.5,21,20.2,21,20,21c-0.7,0-1.1-0.4-1.2-1.2h-0.3l0.1-0.3h0.2c0,0,0-0.1,0-0.1c0-0.1,0-0.1,0-0.1h-0.3l0.1-0.3h0.2
					c0.1-0.3,0.2-0.6,0.4-0.8c0.2-0.2,0.5-0.3,0.8-0.3c0.3,0,0.5,0.1,0.8,0.3L20.6,18.5z"/>
			</g>
		</g>
		<g>
			<g>
				<path class="st1" d="M6.1,12.3H5.5v-0.3h0.6v-0.2l-0.1-0.1H5.5v-0.3h0.4L5.2,10h0.5l0.7,1.5L7.1,10h0.4l-0.8,1.5h0.4v0.3H6.6
					l-0.1,0.1v0.2h0.6v0.3H6.6v0.7H6.1V12.3z"/>
			</g>
		</g>
		<g>
			<g>
				<path class="st1" d="M21.6,11h-0.3c-0.2,0-0.2,0.1-0.3,0.2l-0.1,0.6h0.4l-0.1,0.3h-0.4l-0.2,1.3c-0.1,0.8-0.3,1-0.8,1h-0.3
					l0.1-0.3c0.4,0,0.5,0,0.6-0.4l0.3-1.6h-0.4l0.1-0.3h0.4l0.1-0.6c0.1-0.3,0.3-0.6,0.7-0.6h0.3L21.6,11z"/>
			</g>
		</g>
		<path class="st1" d="M13.8,8.4c-2.3,0-4.1,1.9-4.1,4.1c0,1.4,1.8,3.4,1.8,4.3c0,0.5,0,0.4,0,0.8c0,0.5,0.4,0.8,0.8,0.8
			c0.2,0,2.7,0,3,0c0.5,0,0.8-0.4,0.8-0.8c0-0.5,0-0.3,0-0.8c0-0.9,1.8-2.8,1.8-4.3C17.9,10.3,16.1,8.4,13.8,8.4z M13.8,21.7
			c0.3,0,0.7-0.1,0.9-0.4c-0.6,0-1.2,0-1.8,0C13.1,21.6,13.4,21.7,13.8,21.7z M15.3,18.9c-0.3,0-2.7,0-3,0c-0.3,0-0.5,0.2-0.5,0.5
			c0,0.3,0.2,0.5,0.5,0.5c0.3,0,2.7,0,3,0c0.3,0,0.5-0.2,0.5-0.5C15.8,19.1,15.5,18.9,15.3,18.9z M15.3,20.1c-0.3,0-2.7,0-3,0
			c-0.3,0-0.5,0.2-0.5,0.5c0,0.3,0.2,0.5,0.5,0.5c0.3,0,2.7,0,3,0c0.3,0,0.5-0.2,0.5-0.5C15.8,20.3,15.5,20.1,15.3,20.1z"/>
	</g>
	<g>
		<path class="st2" d="M27.9,5.5h14.3v2.1h-6v15.5h-2.4V7.6h-6V5.5z"/>
		<path class="st2" d="M53.7,23.1h-2.2v-8.4c0-1.7-0.5-2.9-2.6-2.9c-1.8,0-3.6,1-3.6,4.3v7h-2.2V5.5l2.2-0.3V12h0
			c0.6-0.8,1.7-2.1,3.8-2.1c2,0,4.5,0.8,4.5,4.5V23.1z"/>
		<path class="st2" d="M55,7.9V5.5h2.2v2.5H55z M57.2,23.1H55V10.3h2.2V23.1z"/>
		<path class="st2" d="M68.9,23.1h-2.2v-7.9c0-2.2-0.6-3.4-2.7-3.4c-1.2,0-3.4,0.8-3.4,4.3v7h-2.2V10.3l2-0.3v2.1h0
			c0.5-0.7,1.7-2.2,3.9-2.2c2,0,4.5,0.8,4.5,4.5V23.1z"/>
		<path class="st2" d="M80.8,23.1H78l-4-6.5l-1.8,1.6v4.9h-2.1V5.5l2.1-0.3v10.5l5.5-5.4h2.7l-4.9,4.8L80.8,23.1z"/>
	</g>
	<g>
		<path class="st3" d="M97.6,23.2h-3V9.9h0l-3.5,13.3h-2.9L84.8,9.9h0v13.3h-3V5.4h4.9l3.1,12.8h0l3-12.8h4.8V23.2z"/>
		<path class="st3" d="M110.1,20.6c0,1.5,0.3,1.9,0.8,2v0.5h-3.7c-0.2-0.6-0.2-0.8-0.3-1.5c-0.8,0.8-1.9,1.9-4.2,1.9
			c-1.9,0-3.9-1.1-3.9-3.8c0-2.5,1.6-3.8,3.8-4.1l3.1-0.5c0.5-0.1,1.2-0.3,1.2-1c0-1.4-1.4-1.5-2.2-1.5c-1.7,0-2,1-2.1,1.8h-3.3
			c0.4-4,3.1-4.5,5.8-4.5c1.8,0,5.2,0.6,5.2,3.7V20.6z M106.8,16.9c-0.3,0.3-0.9,0.5-2.3,0.7c-1.3,0.2-2.3,0.5-2.3,1.9
			c0,1.2,0.9,1.6,1.6,1.6c1.5,0,3-1,3-2.6V16.9z"/>
		<path class="st3" d="M111.8,10.2h2.7v2.2h0c0.7-1.3,1.5-2.6,3.6-2.6c0.2,0,0.4,0,0.7,0v3.5c-0.3,0-0.7,0-1,0
			c-2.7,0-3.1,1.7-3.1,3.1v6.7h-2.8V10.2z"/>
		<path class="st3" d="M122.6,23.2h-2.7V5.4l2.7-0.4v10.4l4.4-5.1h3.8l-4.7,5.2l4.6,7.7H127l-3-5.4l-1.4,1.4V23.2z"/>
		<path class="st3" d="M142,19.4c-0.9,3.1-3.5,4.1-5.7,4.1c-3.6,0-6.4-1.7-6.4-7.1c0-1.6,0.5-6.5,6.2-6.5c2.6,0,6.1,1.2,6.1,7.1v0.6
			H133c0.1,1,0.6,3.2,3.3,3.2c0.9,0,2.2-0.5,2.5-1.4H142z M138.9,15.4c-0.2-2.1-1.8-2.7-2.9-2.7c-1.6,0-2.7,1-2.9,2.7H138.9z"/>
		<g>
			<path class="st3" d="M148.8,12.6v-2.4h-2.3V6.7l-2.7,0.4v3.1l-2.6,0c0.5,0.6,1,1.4,1.3,2.4h1.3v8c0,1.6,0.2,2.7,3.1,2.7h0.4
				c0.5,0,1,0,1.6,0v-2.5c-0.2,0-0.5,0-0.7,0c-1.3,0-1.7-0.3-1.7-1v-7.2H148.8z"/>
		</g>
		<path class="st3" d="M157.4,14.4c-0.1-0.8-0.5-1.9-2.3-1.9c-1.8,0-2.1,0.7-2.1,1.3c0,2,8.1,0.6,8.1,5.3c0,3.8-3.6,4.5-5.7,4.5
			c-2.9,0-5.5-0.7-5.6-4.1h2.9c0,1.1,0.6,1.5,2.8,1.5c1.8,0,2.2-0.9,2.2-1.3c0-2.2-8-0.5-8-5.4c0-1.9,1.2-4.3,5.2-4.3
			c2.5,0,5.3,0.8,5.6,4.5H157.4z"/>
	</g>
	<g>
		<path class="st3" d="M164.7,6.9c0,1.4-1,2.4-2.4,2.4c-1.4,0-2.4-1.1-2.4-2.4c0-1.4,1-2.4,2.4-2.4C163.7,4.5,164.7,5.5,164.7,6.9z
			 M160.3,6.9c0,1.2,0.9,2.1,2,2.1s2-0.9,2-2.1c0-1.2-0.9-2.1-2-2.1S160.3,5.7,160.3,6.9z M161.8,8.3h-0.3V5.5h1.1
			c0.6,0,0.9,0.3,0.9,0.8c0,0.5-0.3,0.7-0.7,0.8l0.8,1.2h-0.4L162.4,7h-0.6V8.3z M162.3,6.7c0.4,0,0.8,0,0.8-0.5
			c0-0.4-0.3-0.5-0.7-0.5h-0.6v1H162.3z"/>
	</g>
</g>
</svg>
