<svg xmlns="http://www.w3.org/2000/svg" width="121.428" height="28.022" viewBox="0 0 121.428 28.022"><g transform="translate(60.714 14.011)"><g transform="translate(-60.714 -14.011)"><g transform="translate(32.93 3.203)"><path d="M165.591,29.006h-2.074a.372.372,0,0,0-.349.244l-3.3,9.025-3.325-9.026a.372.372,0,0,0-.349-.243h-2.075a.372.372,0,0,0-.346.507l4.467,11.453a.372.372,0,0,0,.346.237h2.541a.372.372,0,0,0,.346-.237l4.467-11.453A.372.372,0,0,0,165.591,29.006Z" transform="translate(-153.745 -25.996)" fill="#034854"/><g transform="translate(12.255)"><path d="M286.1,27.525a4.2,4.2,0,0,0-3.781,1.878V28.214a.372.372,0,0,0-.372-.372h-1.891a.372.372,0,0,0-.372.372V39.667a.372.372,0,0,0,.372.372h1.891a.372.372,0,0,0,.372-.372V33.5c0-2.488,1.366-3.513,3.1-3.513a2.542,2.542,0,0,1,2.732,2.83v6.849a.372.372,0,0,0,.372.372h1.891a.372.372,0,0,0,.372-.372V32.55C290.784,29.379,288.832,27.525,286.1,27.525Z" transform="translate(-264.965 -24.832)" fill="#034854"/><path d="M514.717,27.525a6.221,6.221,0,0,0-6.44,6.415,6.676,6.676,0,0,0,11.732,4.094.37.37,0,0,0-.109-.545l-1.533-.9a.37.37,0,0,0-.47.08,3.8,3.8,0,0,1-2.96,1.267,3.666,3.666,0,0,1-3.9-2.878h9.383a.372.372,0,0,0,.369-.327,6.505,6.505,0,0,0,.054-.771A6.155,6.155,0,0,0,514.717,27.525Zm-3.708,5.391a3.545,3.545,0,0,1,3.683-3,3.394,3.394,0,0,1,3.488,3Z" transform="translate(-444.596 -24.832)" fill="#034854"/><path d="M223.114,27.842h-1.891a.372.372,0,0,0-.372.372V28.5a6.522,6.522,0,0,0-3.453-.971,6.415,6.415,0,1,0,0,12.831,6.5,6.5,0,0,0,3.453-.977v.288a.372.372,0,0,0,.372.372h1.891a.372.372,0,0,0,.372-.372V28.214A.372.372,0,0,0,223.114,27.842Zm-2.263,7.774a3.854,3.854,0,1,1,0-3.352Z" transform="translate(-210.959 -24.832)" fill="#034854"/><path d="M387.574,27.842h-1.891a.372.372,0,0,0-.372.372V28.5h0a6.522,6.522,0,0,0-3.453-.971,6.415,6.415,0,1,0,0,12.831,6.5,6.5,0,0,0,3.453-.977h0v.288a.372.372,0,0,0,.372.372h1.891a.372.372,0,0,0,.372-.372V28.214A.372.372,0,0,0,387.574,27.842Zm-2.263,7.774a3.854,3.854,0,1,1,0-3.352h0v3.352Z" transform="translate(-340.194 -24.832)" fill="#034854"/><path d="M454,27.842H452.11a.372.372,0,0,0-.372.372v.281a6.522,6.522,0,0,0-3.451-.97,6.415,6.415,0,1,0,0,12.831,6.5,6.5,0,0,0,3.451-.975v.131c0,2.164-1.393,3.432-3.706,3.432-1.947,0-2.887-.685-3.455-1.6a.371.371,0,0,0-.5-.125l-1.669.969a.374.374,0,0,0-.126.523c1.1,1.768,3.125,2.672,5.7,2.672,3.258,0,6.392-1.865,6.392-5.87v-11.3A.372.372,0,0,0,454,27.842Zm-2.265,7.778a3.854,3.854,0,1,1,0-3.36Z" transform="translate(-392.395 -24.832)" fill="#034854"/><path d="M348.237,27.972a.372.372,0,0,0-.335-.178c-1.913.087-3.525.064-3.525-1.44V21.843l5.179-3.88h-5.179V15.325a.372.372,0,0,0-.372-.372h-1.891a.372.372,0,0,0-.372.372v11.03c0,3.171,2.212,4.293,6.261,3.805.288-.028.6-.08.9-.139a.371.371,0,0,0,.244-.557Z" transform="translate(-313.73 -14.953)" fill="#034854"/></g></g><path d="M0,0H7.508L18.9,21.1l-3.743,6.922Z" fill="#034854"/><path d="M48.094,0H68.1L58.144,18.409V6.213Z" transform="translate(-37.793)" fill="#e35728"/></g></g></svg>