<svg width="89" height="32" viewBox="0 0 89 32" fill="none" xmlns="http://www.w3.org/2000/svg">
<path fill-rule="evenodd" clip-rule="evenodd" d="M49.4661 24.5761L46.9665 20.114L44.5229 24.5761H38.4961L44.0785 16.1348L38.7184 8.37622H44.8282L46.9948 12.2699L49.2162 8.37622H55.271L49.9109 16.1348L55.5207 24.5761H49.4661Z" fill="#18181E"/>
<path fill-rule="evenodd" clip-rule="evenodd" d="M82.3359 25.0304C80.3083 25.0304 78.8078 24.2064 77.6427 22.4439V24.6037H72.4766V3.41016H77.6143V10.4219C78.6701 8.77308 80.3083 7.89236 82.3907 7.89236C86.1404 7.89236 89.0016 11.3024 89.0016 16.5606C89.0016 21.6764 86.2248 25.0304 82.3359 25.0304ZM80.6701 12.0417C78.726 12.0417 77.5594 13.5761 77.5594 16.3046C77.5594 19.2601 78.6149 20.7948 80.5588 20.7948C82.5305 20.7948 83.6423 19.2321 83.6423 16.3046C83.6423 13.6331 82.4748 12.0417 80.6701 12.0417Z" fill="#18181E"/>
<path fill-rule="evenodd" clip-rule="evenodd" d="M68.2868 12.367V8.37701H65.62V3.41138H60.4551V8.37701H58.3438V12.367H60.4551V19.4896C60.4551 20.7104 59.7378 26.5885 68.2309 24.6051V21.2227C67.9804 21.2512 67.7581 21.2512 67.5645 21.2512C65.9255 21.2512 65.62 20.5401 65.62 18.6082V12.367H68.2868Z" fill="#18181E"/>
<path fill-rule="evenodd" clip-rule="evenodd" d="M2.21484 3.1106H31.7917V27.555H2.21484V3.1106Z" fill="white"/>
<path fill-rule="evenodd" clip-rule="evenodd" d="M0.648438 29.2851C0.648438 30.7415 1.82913 31.9222 3.28558 31.9222H30.3953C31.8517 31.9222 33.0324 30.7415 33.0324 29.2851V2.63714C33.0324 1.18069 31.8517 0 30.3953 0H3.28558C1.82913 0 0.648438 1.18069 0.648438 2.63714V29.2851ZM22.6547 22.6303C22.5198 22.5052 22.3828 22.3815 22.245 22.2586C20.7727 20.9463 19.1624 19.7222 17.4467 18.6094C15.9013 19.5309 14.2833 20.3788 12.5992 21.1444L2.50074 19.1617C4.48417 18.6586 6.42308 18.0333 8.30938 17.2855C9.57467 16.7846 10.8122 16.2287 12.013 15.6235C11.2568 15.2748 10.4875 14.9459 9.70721 14.6367C7.82071 13.8903 5.88241 13.264 3.89958 12.7599L13.998 10.7786C15.1399 11.2972 16.252 11.8539 17.3317 12.4462C18.5707 11.5745 19.747 10.644 20.8463 9.66298C20.9845 9.5399 21.1203 9.41723 21.2565 9.29136L29.7786 7.70519C27.6461 10.5446 25.0599 13.1463 22.1015 15.4404C25.6481 17.9764 28.7143 20.9376 31.1771 24.2164L22.6547 22.6303Z" fill="#F73E4A"/>
</svg>
