<?xml version="1.0" encoding="UTF-8"?>
<svg id="Layer_1" data-name="Layer 1" xmlns="http://www.w3.org/2000/svg" viewBox="0 0 125 23.64">
  <path d="M25.12,13.61h-3.85L14.54.47h3.47l5.24,10.43L28.65.47h3.21l-6.75,13.14h0Z" fill="#efe7df"/>
  <path d="M25.28,13.89h-4.19L14.09.2h4.09l5.08,10.1L28.48.2h3.83l-7.03,13.69ZM21.43,13.34h3.51L31.41.75h-2.59l-5.58,10.76L17.83.75h-2.85l6.45,12.59h0Z" fill="#efe7df"/>
  <path d="M52.52,3.1v10.51h-3.23V3.1h-5.76V.47h14.75v2.63h-5.76,0Z" fill="#efe7df"/>
  <path d="M52.79,13.89h-3.78V3.37h-5.76V.2h15.3v3.18h-5.76v10.51h0ZM49.56,13.34h2.68V2.82h5.76V.75h-14.2v2.08h5.76v10.51h0Z" fill="#efe7df"/>
  <path d="M73.41,6.58c-.42.69-1.19,1.27-2.13,1.43l3.93,5.61h-3.58l-3.5-5.12h-5.11v5.12h-3.13V.47h9.36c1.99,0,3.3.57,3.98,1.46.47.59.7,1.34.7,2.38,0,.95-.19,1.74-.53,2.27h0ZM70.64,3.67c-.28-.42-.77-.62-1.71-.62h-5.87v2.91h6.06c.85,0,1.32-.18,1.52-.52.17-.27.22-.62.22-.89,0-.32-.05-.67-.22-.89Z" fill="#efe7df"/>
  <path d="M75.75,13.89h-4.25l-3.5-5.12h-4.68v5.12h-3.68V.2h9.63c1.96,0,3.41.54,4.2,1.56.52.65.76,1.46.76,2.55,0,1.01-.2,1.84-.58,2.42-.42.7-1.12,1.22-1.9,1.45l4,5.71h-.01ZM71.78,13.34h2.91l-3.88-5.53.44-.07c.79-.13,1.52-.61,1.94-1.29.32-.5.49-1.23.49-2.13,0-.96-.21-1.66-.64-2.2-.69-.89-1.99-1.35-3.77-1.35h-9.08v12.59h2.58v-5.12h5.53l3.5,5.12h0ZM69.11,6.23h-6.33v-3.46h6.15c1,0,1.58.22,1.93.73.18.24.27.59.27,1.05,0,.23-.03.67-.26,1.03-.27.44-.82.65-1.76.65h0ZM63.32,5.68h5.78c.7,0,1.13-.13,1.29-.39.16-.26.18-.61.18-.75,0-.33-.06-.59-.16-.72h-.01c-.17-.26-.47-.51-1.48-.51h-5.6v2.36Z" fill="#efe7df"/>
  <path d="M103.44,13.61h-8.48V.28h8.37c3.06,0,4.83.86,5.72,2.38.65.98.85,2.18.85,4.09,0,2.07-.2,3.28-.8,4.3-.9,1.62-2.65,2.56-5.67,2.56h0ZM106.72,6.82c-.02-1.14-.15-2.09-.53-2.6-.59-.92-1.58-1.33-3.33-1.33h-4.71v8.08h4.62c1.83,0,2.86-.42,3.43-1.31.39-.56.51-1.63.51-2.86h0Z" fill="#efe7df"/>
  <path d="M103.44,13.89h-8.75V0h8.65c3,0,4.96.82,5.96,2.51.64.97.89,2.17.89,4.24,0,2.19-.23,3.39-.84,4.44-1.01,1.82-2.95,2.7-5.91,2.7h0ZM95.24,13.33h8.2c2.74,0,4.52-.79,5.43-2.42.56-.96.76-2.08.76-4.16,0-1.95-.22-3.06-.81-3.94-.9-1.52-2.7-2.25-5.49-2.25h-8.09v12.77ZM102.78,11.25h-4.9V2.62h4.98c1.84,0,2.91.44,3.56,1.45.36.5.55,1.38.57,2.75,0,1.51-.18,2.47-.56,3.02-.64.98-1.77,1.43-3.66,1.43h0ZM98.44,10.7h4.34c1.68,0,2.67-.36,3.2-1.18.31-.45.46-1.35.46-2.7-.02-1.21-.18-2.03-.47-2.44-.55-.85-1.48-1.21-3.11-1.21h-4.43v7.53h0Z" fill="#efe7df"/>
  <path d="M111.58,13.61V.28h13.03v2.68h-9.87v2.63h9.58v2.67h-9.58v2.67h9.99v2.68h-13.15Z" fill="#efe7df"/>
  <path d="M125,13.89h-13.7V0h13.58v3.24h-9.87v2.07h9.58v3.23h-9.58v2.11h9.99v3.24h0ZM111.86,13.33h12.59v-2.13h-9.99v-3.23h9.58v-2.11h-9.58v-3.19h9.87V.56h-12.47v12.77Z" fill="#efe7df"/>
  <path d="M11.18.47h-.72l-1.25,2.47.52,1.18s1.11,2.26,1.67,3.41l1.6,3.19h.01l.38.77,1.03,2.12h3.43L11.18.47Z" fill="#efe7df"/>
  <path d="M18.29,13.89h-4.05l-1.49-3.05-1.6-3.19c-.55-1.15-1.67-3.41-1.67-3.41l-.57-1.31L10.3.2h1.06l6.94,13.69h0ZM14.59,13.34h2.81L11.02.75h-.39l-1.12,2.2.46,1.06s1.11,2.25,1.66,3.39l1.99,3.97.96,1.97Z" fill="#efe7df"/>
  <path d="M7.4.47L.46,13.61h3.35l1.26-2.49.2-.4h0l1.58-3.11,1.78-3.51.59-1.16h0s1.25-2.46,1.25-2.46h-3.06Z" fill="#b39d02"/>
  <path d="M3.97,13.89H0L7.23.2h3.68l-1.71,3.37L3.97,13.89ZM.91,13.34h2.72L9.22,2.3l.79-1.56h-2.45L.91,13.34Z" fill="#b39d02"/>
  <path d="M2.5,19.9v3.67h-1v-3.67H.03v-.83h3.94v.83h-1.47Z" fill="#efe7df"/>
  <path d="M10.1,21.2c-.14.24-.35.38-.58.42l1.06,1.95h-1.1l-.88-1.75h-1.19v1.75h-.97v-4.5h2.51c.58,0,.93.19,1.12.51.14.21.2.47.2.84,0,.34-.07.61-.16.79h0ZM9.24,20.14c-.08-.16-.25-.23-.52-.23h-1.31v1.13h1.37c.22,0,.39-.07.45-.19.04-.09.07-.23.07-.35,0-.13-.02-.28-.05-.36h0Z" fill="#efe7df"/>
  <path d="M13.71,23.57h-1.01l1.75-4.5h1.24l1.65,4.5h-1.03l-.38-1.06h-1.82l-.4,1.06h0ZM15.15,20.31l-.1-.37-.11.38-.51,1.38h1.2l-.48-1.39Z" fill="#efe7df"/>
  <path d="M22.01,23.57h-2.24v-4.5h2.18c.72,0,1.17.17,1.44.51.28.35.36.79.36,1.66,0,.97-.08,1.4-.33,1.76-.27.37-.69.57-1.4.57h0ZM22.8,21.25c0-.5-.05-.92-.22-1.08-.2-.2-.39-.26-.77-.26h-1.06v2.81h1.06c.4,0,.61-.08.79-.27.16-.18.2-.66.2-1.2h0Z" fill="#efe7df"/>
  <path d="M26.43,23.57v-4.5h3.44v.85h-2.48v.97h2.38v.85h-2.38v.98h2.5v.84h-3.47Z" fill="#efe7df"/>
  <path d="M40.87,23.57h-1.1l-.8-3.27-.83,3.27h-1.1l-1.29-4.5h1.05l.87,3.29.77-3.29h1.1l.78,3.29.88-3.29h.96l-1.28,4.5h0Z" fill="#efe7df"/>
  <path d="M44.6,23.57v-4.5h1v4.5h-1Z" fill="#efe7df"/>
  <path d="M50.53,19.9v3.67h-1v-3.67h-1.46v-.83h3.94v.83h-1.47Z" fill="#efe7df"/>
  <path d="M57.37,23.57v-1.81h-1.93v1.81h-.98v-4.5h.98v1.82h1.93v-1.82h.98v4.5h-.98Z" fill="#efe7df"/>
  <path d="M68.56,22.88c-.32.46-.88.76-1.78.76-.72,0-1.27-.16-1.64-.54-.37-.36-.57-.94-.57-1.79,0-.76.17-1.32.52-1.7.36-.39.9-.61,1.69-.61,1.08,0,1.64.4,1.89.92.14.3.21.63.21.86h-1c0-.21-.07-.43-.18-.58-.17-.24-.45-.34-.92-.34-.42,0-.69.12-.88.34-.21.23-.28.61-.28,1.13,0,.6.12.96.32,1.18.21.23.53.32.87.32.43,0,.69-.13.85-.31.15-.17.22-.36.24-.61h1c0,.24-.05.59-.32.97h0Z" fill="#efe7df"/>
  <path d="M75.27,19.72c.26.35.38.86.38,1.57s-.14,1.25-.4,1.63c-.32.47-.91.72-1.8.72s-1.46-.24-1.78-.71c-.28-.38-.41-.92-.41-1.63,0-.67.12-1.19.39-1.54.34-.47.89-.76,1.81-.76s1.47.26,1.81.72ZM74.35,22.5c.22-.22.31-.69.31-1.19s-.09-.95-.28-1.15c-.2-.21-.43-.35-.92-.35s-.72.14-.91.35c-.17.2-.28.66-.28,1.15s.11.97.34,1.2c.18.18.42.3.86.3.47,0,.71-.14.89-.33Z" fill="#efe7df"/>
  <path d="M81.04,23.57l-1.81-3.05v3.05h-.94v-4.5h1.15l1.74,2.9v-2.9h.94v4.5h-1.07Z" fill="#efe7df"/>
  <path d="M85.93,19.92v.97h2.27v.86h-2.27v1.82h-.98v-4.5h3.38v.85h-2.4Z" fill="#efe7df"/>
  <path d="M90.94,23.57v-4.5h1v4.5h-1Z" fill="#efe7df"/>
  <path d="M97.04,23.57h-2.24v-4.5h2.18c.72,0,1.17.17,1.44.51.28.35.36.79.36,1.66,0,.97-.08,1.4-.33,1.76-.27.37-.69.57-1.4.57h0ZM97.82,21.25c0-.5-.05-.92-.22-1.08-.2-.2-.39-.26-.77-.26h-1.06v2.81h1.06c.4,0,.61-.08.79-.27.16-.18.2-.66.2-1.2h0Z" fill="#efe7df"/>
  <path d="M101.45,23.57v-4.5h3.44v.85h-2.47v.97h2.38v.85h-2.38v.98h2.5v.84h-3.47Z" fill="#efe7df"/>
  <path d="M110.36,23.57l-1.81-3.05v3.05h-.94v-4.5h1.15l1.73,2.9v-2.9h.94v4.5h-1.07Z" fill="#efe7df"/>
  <path d="M118.04,22.88c-.32.46-.88.76-1.78.76-.72,0-1.27-.16-1.64-.54-.37-.36-.57-.94-.57-1.79,0-.76.17-1.32.52-1.7.36-.39.9-.61,1.69-.61,1.08,0,1.64.4,1.89.92.14.3.21.63.21.86h-1c0-.21-.07-.43-.18-.58-.17-.24-.45-.34-.92-.34-.42,0-.69.12-.88.34-.21.23-.28.61-.28,1.13,0,.6.12.96.32,1.18.21.23.53.32.87.32.43,0,.69-.13.85-.31.15-.17.22-.36.25-.61h1c0,.24-.05.59-.32.97h0Z" fill="#efe7df"/>
  <path d="M120.96,23.57v-4.5h3.44v.85h-2.47v.97h2.38v.85h-2.38v.98h2.5v.84h-3.47Z" fill="#efe7df"/>
  <path d="M39.28.47h-.72l-1.25,2.47.52,1.18s1.11,2.26,1.67,3.41l1.6,3.19h.01l.38.77,1.03,2.12h3.43L39.28.47Z" fill="#efe7df"/>
  <path d="M46.39,13.89h-4.05l-1.49-3.05-1.6-3.19c-.55-1.15-1.67-3.41-1.67-3.41l-.57-1.31,1.39-2.74h1.06l6.94,13.69h0ZM42.69,13.34h2.81L39.11.75h-.39l-1.12,2.2.46,1.06s1.11,2.25,1.66,3.39l1.99,3.97.96,1.97Z" fill="#efe7df"/>
  <path d="M35.5.47l-6.95,13.14h3.35l1.26-2.49.2-.4h.01l1.57-3.11,1.78-3.51.59-1.16h0s1.25-2.46,1.25-2.46h-3.06Z" fill="#b39d02"/>
  <path d="M32.07,13.89h-3.97L35.34.2h3.68l-1.71,3.37-5.23,10.32h0ZM29.01,13.34h2.72l5.59-11.03.79-1.56h-2.45l-6.65,12.59Z" fill="#b39d02"/>
  <path d="M87.19.47h-.72l-1.25,2.47.52,1.18s1.11,2.26,1.67,3.41l1.6,3.19h.01l.38.77,1.03,2.12h3.43L87.19.47Z" fill="#efe7df"/>
  <path d="M94.29,13.89h-4.05l-1.49-3.05-1.6-3.19c-.55-1.15-1.67-3.41-1.67-3.41l-.57-1.31,1.39-2.74h1.06l6.94,13.69h0ZM90.59,13.34h2.81l-6.38-12.59h-.39l-1.12,2.2.46,1.06s1.11,2.25,1.66,3.39l1.99,3.97.96,1.97h0Z" fill="#efe7df"/>
  <path d="M83.4.47l-6.95,13.14h3.35l1.25-2.49.2-.4h.01l1.58-3.11,1.78-3.51.58-1.16h0s1.25-2.46,1.25-2.46h-3.06Z" fill="#b39d02"/>
  <path d="M79.98,13.89h-3.97L83.24.2h3.68l-1.72,3.39-5.22,10.3h0ZM76.91,13.34h2.72l5.6-11.05.78-1.53h-2.45l-6.65,12.59Z" fill="#b39d02"/>
</svg>