<svg width="125" height="24" viewBox="0 0 125 24" fill="none" xmlns="http://www.w3.org/2000/svg">
<path d="M25.1152 13.6104H21.2638L14.5403 0.473389H18.0054L23.2439 10.9014L28.651 0.473389H31.8659L25.1206 13.6158L25.1152 13.6104Z" fill="#101820"/>
<path d="M25.2839 13.8877H21.0953L14.0889 0.195862H18.1741L23.2494 10.292L28.4824 0.195862H32.312L25.2839 13.8877ZM21.4325 13.3383H24.9466L31.4145 0.745277H28.8197L23.244 11.5051L17.8314 0.745277H14.9864L21.4325 13.3329V13.3383Z" fill="#101820"/>
<path d="M52.5154 3.10079V13.6104H49.2842V3.10079H43.5235V0.473389H58.2707V3.10079H52.51H52.5154Z" fill="#101820"/>
<path d="M52.7873 13.8877H49.0067V3.37268H43.246V0.195862H58.5425V3.37268H52.7819V13.8823L52.7873 13.8877ZM49.5561 13.3383H52.2379V2.82326H57.9986V0.745277H43.8008V2.82326H49.5615V13.3329L49.5561 13.3383Z" fill="#101820"/>
<path d="M73.4094 6.58223C72.9906 7.26764 72.2236 7.85513 71.2825 8.00744L75.2154 13.6158H71.6306L68.1329 8.49158H63.025V13.6158H59.8971V0.473389H69.2535C71.2444 0.473389 72.55 1.04456 73.2354 1.93124C73.7032 2.51873 73.9371 3.26942 73.9371 4.30841C73.9371 5.26037 73.7521 6.04913 73.404 6.58223H73.4094ZM70.6352 3.66652C70.3523 3.24766 69.8627 3.04639 68.9271 3.04639H63.0522V5.95666H69.112C69.9661 5.95666 70.4339 5.7717 70.6352 5.43988C70.8038 5.17333 70.8528 4.81975 70.8528 4.5532C70.8528 4.2377 70.8038 3.88411 70.6352 3.66652Z" fill="#101820"/>
<path d="M75.7485 13.8877H71.4946L67.9968 8.76347H63.3132V13.8877H59.6359V0.195862H69.2697C71.228 0.195862 72.6804 0.734397 73.4692 1.75707C73.986 2.4044 74.2308 3.21492 74.2308 4.30287C74.2308 5.30923 74.0295 6.14695 73.6542 6.72356C73.2299 7.41985 72.539 7.94206 71.7557 8.17597L75.7593 13.8823L75.7485 13.8877ZM71.7829 13.3383H74.6932L70.8092 7.80607L71.2444 7.73535C72.0386 7.6048 72.762 7.1261 73.1809 6.44069C73.5018 5.94568 73.6705 5.21131 73.6705 4.30831C73.6705 3.35092 73.4638 2.64919 73.0286 2.10521C72.3432 1.21853 71.0431 0.750716 69.2588 0.750716H60.1745V13.3383H62.7529V8.21405H68.2797L71.7774 13.3383H71.7829ZM69.112 6.23398H62.7801V2.7743H68.9325C69.9334 2.7743 70.51 2.99189 70.8636 3.50867C71.0431 3.74802 71.1356 4.09616 71.1356 4.55854C71.1356 4.78701 71.1029 5.22763 70.8744 5.59209C70.6079 6.03271 70.053 6.23942 69.1174 6.23942L69.112 6.23398ZM63.3241 5.68457H69.1065C69.8083 5.68457 70.238 5.55402 70.3958 5.29835C70.5589 5.04268 70.5753 4.6891 70.5753 4.5531C70.5753 4.22672 70.5154 3.96561 70.4175 3.83505L70.4066 3.82417C70.238 3.57939 69.9334 3.32372 68.927 3.32372H63.3241V5.68457Z" fill="#101820"/>
<path d="M103.437 13.6102H94.9617V0.277374H103.333C106.391 0.277374 108.159 1.14229 109.056 2.65454C109.703 3.63914 109.905 4.83044 109.905 6.74524C109.905 8.81778 109.703 10.0254 109.105 11.0426C108.207 12.6582 106.456 13.6048 103.431 13.6048L103.437 13.6102ZM106.717 6.81595C106.701 5.67904 106.565 4.72709 106.189 4.21575C105.596 3.29643 104.612 2.88845 102.86 2.88845H98.1548V10.9719H102.773C104.606 10.9719 105.629 10.5476 106.206 9.66638C106.597 9.10609 106.717 8.03446 106.717 6.81051V6.81595Z" fill="#101820"/>
<path d="M103.437 13.8877H94.6843V0H103.334C106.336 0 108.289 0.821402 109.295 2.51316C109.932 3.48688 110.182 4.67818 110.182 6.75073C110.182 8.94295 109.954 10.1451 109.344 11.1896C108.333 13.0064 106.396 13.8931 103.431 13.8931L103.437 13.8877ZM95.2446 13.3328H103.442C106.184 13.3328 107.963 12.5386 108.871 10.9121C109.426 9.95474 109.633 8.82871 109.633 6.75073C109.633 4.79786 109.41 3.69359 108.828 2.81235C107.925 1.29466 106.13 0.560294 103.339 0.560294H95.2446V13.3328ZM102.779 11.2548H97.8829V2.61652H102.866C104.704 2.61652 105.771 3.0517 106.429 4.06893C106.793 4.56939 106.978 5.44519 107 6.81601C107 8.32826 106.82 9.28565 106.44 9.83507C105.798 10.8197 104.666 11.2603 102.779 11.2603V11.2548ZM98.4378 10.7H102.779C104.454 10.7 105.444 10.3355 105.977 9.51956C106.287 9.0735 106.44 8.1705 106.44 6.82145C106.423 5.60838 106.26 4.78698 105.966 4.38444C105.412 3.5304 104.487 3.17137 102.86 3.17137H98.4323V10.7H98.4378Z" fill="#101820"/>
<path d="M111.58 13.6102V0.277374H124.608V2.95917H114.741V5.59201H124.32V8.25749H114.741V10.923H124.728V13.6048H111.585L111.58 13.6102Z" fill="#101820"/>
<path d="M125 13.8877H111.297V0H124.88V3.24209H115.013V5.31464H124.592V8.54041H115.013V10.651H125V13.8931V13.8877ZM111.858 13.3328H124.445V11.2059H114.458V7.98011H124.037V5.86949H114.458V2.6818H124.325V0.560294H111.858V13.3328Z" fill="#101820"/>
<path d="M11.1841 0.473419H10.4606L9.20947 2.94307L9.72625 4.12349C9.72625 4.12349 10.836 6.38099 11.3963 7.52877L12.9955 10.7219H13.0064L13.3818 11.4944L14.4099 13.6159H17.8424L11.1841 0.473419Z" fill="#101820"/>
<path d="M18.2939 13.8877H14.2413L12.7508 10.8415L11.1515 7.64832C10.5967 6.50053 9.48151 4.24304 9.48151 4.24304L8.91034 2.93206L10.2975 0.195862H11.3582L18.2993 13.8877H18.2939ZM14.5894 13.3383H17.4018L11.0155 0.745277H10.6293L9.51415 2.94837L9.97653 4.00913C9.97653 4.00913 11.0862 6.26118 11.6411 7.40353L13.632 11.3691L14.5894 13.3383Z" fill="#101820"/>
<path d="M7.40347 0.473389L0.456909 13.6104H3.80235L5.05894 11.119L5.26021 10.7164H5.26565L6.84317 7.6049L8.62197 4.09082L9.20947 2.93216L9.21491 2.93759L10.466 0.473389H7.40347Z" fill="#4C62FD"/>
<path d="M3.97102 13.8877H0L7.23487 0.195862H10.9121L9.20406 3.56851L3.97102 13.8877ZM0.913878 13.3383H3.63375L9.22038 2.30104L10.0146 0.745277H7.56669L0.913878 13.3383Z" fill="#4C62FD"/>
<path d="M2.5023 19.9038V23.5757H1.50139V19.9038H0.0326538V19.0716H3.97103V19.9038H2.5023Z" fill="#101820"/>
<path d="M10.0962 21.2042C9.96025 21.4435 9.7481 21.5849 9.51963 21.6285L10.5749 23.5759H9.47067L8.59488 21.8243H7.40901V23.5759H6.44073V19.0718H8.94846C9.52507 19.0718 9.87866 19.2622 10.0636 19.5777C10.1996 19.7844 10.2649 20.0455 10.2649 20.4154C10.2649 20.7581 10.1996 21.0246 10.1017 21.2042H10.0962ZM9.24221 20.138C9.16061 19.9802 8.99198 19.9041 8.72543 19.9041H7.41445V21.0301H8.77983C8.99742 21.0301 9.16605 20.9648 9.23133 20.8397C9.2694 20.7527 9.2966 20.6058 9.2966 20.4915C9.2966 20.361 9.28028 20.2087 9.24765 20.1325L9.24221 20.138Z" fill="#101820"/>
<path d="M13.7081 23.5705H12.7018L14.4479 19.0664H15.6882L17.3364 23.5705H16.3083L15.9276 22.5098H14.1107L13.7136 23.5705H13.7081ZM15.1497 20.3121L15.0463 19.9422L14.9375 20.3175L14.4262 21.6992H15.6284L15.1497 20.3121Z" fill="#101820"/>
<path d="M22.0148 23.5705H19.7736V19.0664H21.9495C22.673 19.0664 23.1191 19.235 23.3856 19.5777C23.6685 19.9259 23.7446 20.3665 23.7446 21.2423C23.7446 22.216 23.6685 22.6458 23.4128 22.9993C23.1463 23.3692 22.7274 23.5705 22.0094 23.5705H22.0148ZM22.7981 21.2532C22.7981 20.7527 22.7437 20.3339 22.5805 20.1761C22.3847 19.9803 22.1943 19.9204 21.8135 19.9204H20.7528V22.7328H21.8081C22.2052 22.7328 22.4228 22.6512 22.6023 22.4608C22.7655 22.2759 22.8036 21.7972 22.8036 21.2586L22.7981 21.2532Z" fill="#101820"/>
<path d="M26.4265 23.5705V19.0664H29.8644V19.915H27.3893V20.8887H29.7719V21.7428H27.3893V22.7219H29.8916V23.5651H26.4265V23.5705Z" fill="#101820"/>
<path d="M40.8688 23.5705H39.7645L38.9649 20.2958L38.1326 23.5705H37.0283L35.7336 19.0664H36.7835L37.6539 22.352L38.4263 19.0664H39.5306L40.3139 22.352L41.1897 19.0664H42.1471L40.8633 23.5705H40.8688Z" fill="#101820"/>
<path d="M44.5952 23.5705V19.0664H45.5961V23.5705H44.5952Z" fill="#101820"/>
<path d="M50.5299 19.9041V23.5759H49.529V19.9041H48.0657V19.0718H52.0041V19.9041H50.5353H50.5299Z" fill="#101820"/>
<path d="M57.373 23.5705V21.7645H55.4473V23.5705H54.4681V19.0664H55.4473V20.8833H57.373V19.0664H58.3521V23.5705H57.373Z" fill="#101820"/>
<path d="M68.5572 22.8797C68.2417 23.3367 67.676 23.6359 66.773 23.6359C66.0495 23.6359 65.5001 23.4727 65.1302 23.0973C64.7603 22.7329 64.559 22.1562 64.559 21.3076C64.559 20.5461 64.7331 19.9858 65.0812 19.6104C65.4457 19.2242 65.9842 19.0012 66.7676 19.0012C67.8501 19.0012 68.4049 19.3983 68.6552 19.9259C68.7966 20.2306 68.8619 20.557 68.8619 20.7854H67.8609C67.8609 20.5733 67.7902 20.3557 67.676 20.2034C67.5019 19.964 67.2245 19.8607 66.7512 19.8607C66.3324 19.8607 66.0604 19.9803 65.87 20.1979C65.6633 20.4264 65.5871 20.8072 65.5871 21.3294C65.5871 21.9278 65.7068 22.2868 65.9081 22.5098C66.1202 22.7437 66.4357 22.8253 66.7784 22.8253C67.2082 22.8253 67.4693 22.6948 67.627 22.5153C67.7794 22.3466 67.8501 22.1562 67.8718 21.906H68.8673C68.8619 22.1454 68.8183 22.4989 68.5518 22.8797H68.5572Z" fill="#101820"/>
<path d="M75.2698 19.7247C75.5309 20.0728 75.6506 20.5896 75.6506 21.2913C75.6506 22.0257 75.5092 22.5425 75.2535 22.9178C74.938 23.3856 74.3396 23.6359 73.4584 23.6359C72.5772 23.6359 72.0005 23.3965 71.6742 22.9287C71.3967 22.5479 71.2662 22.0094 71.2662 21.3022C71.2662 20.6331 71.3859 20.1163 71.6524 19.7628C71.9897 19.2949 72.5445 19.0012 73.4584 19.0012C74.3723 19.0012 74.9271 19.2569 75.2698 19.7247ZM74.3505 22.4989C74.5681 22.2814 74.6606 21.8081 74.6606 21.3131C74.6606 20.8181 74.5681 20.3666 74.3832 20.1653C74.1873 19.9586 73.9534 19.8172 73.4584 19.8172C72.9634 19.8172 72.7403 19.9531 72.5445 20.1707C72.3704 20.372 72.2671 20.8344 72.2671 21.3185C72.2671 21.8027 72.3759 22.2922 72.6044 22.5207C72.7839 22.7057 73.0287 22.8253 73.4638 22.8253C73.9317 22.8253 74.171 22.6839 74.3505 22.4989Z" fill="#101820"/>
<path d="M81.0415 23.5705L79.23 20.5188V23.5705H78.2889V19.0664H79.4367L81.172 21.9658V19.0664H82.1131V23.5705H81.0469H81.0415Z" fill="#101820"/>
<path d="M85.9317 19.9204V20.8887H88.2055V21.7482H85.9317V23.5705H84.9525V19.0664H88.3306V19.915H85.9317V19.9204Z" fill="#101820"/>
<path d="M90.9362 23.5705V19.0664H91.9371V23.5705H90.9362Z" fill="#101820"/>
<path d="M97.0397 23.5705H94.7985V19.0664H96.9744C97.6979 19.0664 98.1439 19.235 98.4105 19.5777C98.6934 19.9259 98.7695 20.3665 98.7695 21.2423C98.7695 22.216 98.6934 22.6458 98.4377 22.9993C98.1711 23.3692 97.7523 23.5705 97.0342 23.5705H97.0397ZM97.823 21.2532C97.823 20.7527 97.7686 20.3339 97.6054 20.1761C97.4096 19.9803 97.2192 19.9204 96.833 19.9204H95.7722V22.7328H96.8275C97.2246 22.7328 97.4422 22.6512 97.6217 22.4608C97.7849 22.2759 97.823 21.7972 97.823 21.2586V21.2532Z" fill="#101820"/>
<path d="M101.451 23.5705V19.0664H104.889V19.915H102.414V20.8887H104.797V21.7428H102.414V22.7219H104.916V23.5651H101.451V23.5705Z" fill="#101820"/>
<path d="M110.362 23.5705L108.55 20.5188V23.5705H107.609V19.0664H108.757L110.492 21.9658V19.0664H111.433V23.5705H110.367H110.362Z" fill="#101820"/>
<path d="M118.043 22.8797C117.727 23.3367 117.161 23.6359 116.258 23.6359C115.535 23.6359 114.985 23.4727 114.616 23.0973C114.246 22.7329 114.044 22.1562 114.044 21.3076C114.044 20.5461 114.218 19.9858 114.567 19.6104C114.931 19.2242 115.47 19.0012 116.253 19.0012C117.335 19.0012 117.89 19.3983 118.141 19.9259C118.282 20.2306 118.347 20.557 118.347 20.7854H117.346C117.346 20.5733 117.276 20.3557 117.161 20.2034C116.987 19.964 116.71 19.8607 116.237 19.8607C115.818 19.8607 115.546 19.9803 115.355 20.1979C115.149 20.4264 115.072 20.8072 115.072 21.3294C115.072 21.9278 115.192 22.2868 115.393 22.5098C115.606 22.7437 115.921 22.8253 116.264 22.8253C116.694 22.8253 116.955 22.6948 117.112 22.5153C117.265 22.3466 117.335 22.1562 117.357 21.906H118.353C118.347 22.1454 118.304 22.4989 118.037 22.8797H118.043Z" fill="#101820"/>
<path d="M120.964 23.5705V19.0664H124.402V19.915H121.927V20.8887H124.309V21.7428H121.927V22.7219H124.429V23.5651H120.964V23.5705Z" fill="#101820"/>
<path d="M39.2805 0.473419H38.557L37.3058 2.94307L37.8226 4.12349C37.8226 4.12349 38.9323 6.38099 39.4926 7.52877L41.0919 10.7219H41.1028L41.4781 11.4944L42.5062 13.6159H45.9387L39.2805 0.473419Z" fill="#101820"/>
<path d="M46.3902 13.8877H42.3376L40.8471 10.8415L39.2478 7.64832C38.693 6.50053 37.5778 4.24304 37.5778 4.24304L37.0067 2.93206L38.3938 0.195862H39.4545L46.3957 13.8877H46.3902ZM42.6858 13.3383H45.4981L39.1118 0.745277H38.7256L37.6105 2.94837L38.0728 4.00913C38.0728 4.00913 39.1826 6.26118 39.7374 7.40353L41.7284 11.3691L42.6858 13.3383Z" fill="#101820"/>
<path d="M35.4998 0.473389L28.5532 13.6104H31.8987L33.1552 11.119L33.3565 10.7164H33.3674L34.9395 7.6049L36.7183 4.09082L37.3058 2.93216L37.3112 2.93759L38.5624 0.473389H35.4998Z" fill="#4C62FD"/>
<path d="M32.0728 13.8877H28.1018L35.3367 0.195862H39.0139L37.3059 3.56851L32.0783 13.8877H32.0728ZM29.0102 13.3383H31.7301L37.3167 2.30648L38.1109 0.750716H35.6631L29.0102 13.3383Z" fill="#4C62FD"/>
<path d="M87.1882 0.473419H86.4647L85.2136 2.94307L85.7303 4.12349C85.7303 4.12349 86.84 6.38099 87.4003 7.52877L88.9996 10.7219H89.0105L89.3859 11.4944L90.414 13.6159H93.8464L87.1882 0.473419Z" fill="#101820"/>
<path d="M94.2926 13.8877H90.24L88.7495 10.8415L87.1502 7.64832C86.5953 6.50053 85.4802 4.24304 85.4802 4.24304L84.909 2.93206L86.2961 0.195862H87.3569L94.298 13.8877H94.2926ZM90.5881 13.3383H93.4004L87.0196 0.750716H86.6334L85.5183 2.95381L85.9806 4.01457C85.9806 4.01457 87.0903 6.26662 87.6452 7.40897L89.6361 11.3745L90.5935 13.3437L90.5881 13.3383Z" fill="#101820"/>
<path d="M83.4021 0.473389L76.4556 13.6104H79.8065L81.0576 11.119L81.2589 10.7164H81.2697L82.8473 7.6049L84.6261 4.09082L85.2081 2.93216L85.2136 2.93759L86.4647 0.473389H83.4021Z" fill="#4C62FD"/>
<path d="M79.9752 13.8877H76.0042L83.239 0.195862H86.9163L85.1973 3.59027L79.9806 13.8877H79.9752ZM76.9126 13.3383H79.6325L85.23 2.28473L86.0133 0.750716H83.5654L76.9126 13.3383Z" fill="#4C62FD"/>
</svg>
