<svg height="183" viewBox="0 0 614 183" width="614" xmlns="http://www.w3.org/2000/svg"><g fill="none" fill-rule="evenodd"><path d="m98.2688 85.3312v-8.6016h7.5264v-12.4544h10.5728v12.4544h10.752v8.6016h-10.752v19.9808c0 1.911476.343463 3.494394 1.0304 4.7488s2.225055 1.8816 4.6144 1.8816c.716804 0 1.493329-.074666 2.3296-.224s1.58293-.373332 2.24-.672l.3584 8.4224c-.955738.358402-2.09066.642132-3.4048.8512s-2.568527.3136-3.7632.3136c-2.867214 0-5.196791-.403196-6.9888-1.2096s-3.210661-1.91146-4.256-3.3152-1.762131-3.016524-2.1504-4.8384-.5824-3.778123-.5824-5.8688v-20.0704zm35.36221-8.6016h10.304v7.168h.1792c1.194673-2.5088125 2.867189-4.5397256 5.0176-6.0928s4.659186-2.3296 7.5264-2.3296c.418135 0 .866131.0149332 1.344.0448s.895998.1045327 1.2544.224v9.856c-.716804-.1792009-1.329064-.2986664-1.8368-.3584s-1.000531-.0896-1.4784-.0896c-2.449079 0-4.420259.4479955-5.9136 1.344s-2.658129 1.9711937-3.4944 3.2256-1.403732 2.5386601-1.7024 3.8528-.448 2.3594628-.448 3.136v23.0272h-10.752zm56.86621 37.5424h-.2688c-1.075205 1.911476-2.807455 3.479461-5.1968 4.704s-5.107185 1.8368-8.1536 1.8368c-1.732275 0-3.539191-.223998-5.4208-.672s-3.613859-1.194661-5.1968-2.24-2.897061-2.419191-3.9424-4.1216-1.568-3.807987-1.568-6.3168c0-3.225616.910924-5.794124 2.7328-7.7056 1.821876-1.9114762 4.166386-3.3749283 7.0336-4.3904s6.047983-1.687465 9.5424-2.016 6.914117-.4928 10.2592-.4928v-1.0752c0-2.6880134-.970657-4.6741269-2.912-5.9584s-4.255987-1.9264-6.944-1.9264c-2.269878 0-4.450123.4778619-6.5408 1.4336s-3.822926 2.1205265-5.1968 3.4944l-5.5552-6.5408c2.449079-2.269878 5.271451-3.972261 8.4672-5.1072s6.43625-1.7024 9.7216-1.7024c3.822952 0 6.973854.5375946 9.4528 1.6128s4.435193 2.4789247 5.8688 4.2112 2.43413 3.6735892 3.0016 5.824.8512 4.3007892.8512 6.4512v26.1632h-10.0352zm-.1792-14.1568h-2.4192c-1.732275 0-3.554124.074666-5.4656.224s-3.673592.477864-5.2864.9856-2.956795 1.224529-4.032 2.1504-1.6128 2.195192-1.6128 3.808c0 1.015472.223998 1.866663.672 2.5536s1.030396 1.239465 1.7472 1.6576 1.523196.716799 2.4192.896 1.791996.2688 2.688.2688c3.703485 0 6.510924-.98559 8.4224-2.9568s2.8672-4.659183 2.8672-8.064zm65.19901 19.6224h-10.2144v-6.4512h-.1792c-1.493341 2.508813-3.569053 4.42026-6.2272 5.7344s-5.510385 1.9712-8.5568 1.9712c-3.28535 0-6.227187-.612261-8.8256-1.8368s-4.808524-2.86719-6.6304-4.928-3.225595-4.479986-4.2112-7.2576-1.4784-5.749318-1.4784-8.9152c0-3.1658825.507728-6.1226529 1.5232-8.8704s2.449057-5.1370565 4.3008-7.168 4.061854-3.6287942 6.6304-4.7936 5.375985-1.7472 8.4224-1.7472c1.97121 0 3.733326.2239978 5.2864.672s2.911994 1.00053 4.0768 1.6576 2.165329 1.3738628 3.0016 2.1504 1.523197 1.5231964 2.0608 2.24h.2688v-30.1952h10.752zm-35.392-21.6832c0 1.6725417.253864 3.345058.7616 5.0176s1.269328 3.16586 2.2848 4.48 2.299726 2.389329 3.8528 3.2256 3.374923 1.2544 5.4656 1.2544c1.97121 0 3.733326-.403196 5.2864-1.2096s2.882128-1.86666 3.9872-3.1808 1.94133-2.792525 2.5088-4.4352.8512-3.3002583.8512-4.9728-.28373-3.3450583-.8512-5.0176-1.403728-3.1658601-2.5088-4.48-2.434126-2.3893292-3.9872-3.2256-3.31519-1.2544-5.2864-1.2544c-2.090677 0-3.912526.403196-5.4656 1.2096s-2.837328 1.8666601-3.8528 3.1808-1.777064 2.7925251-2.2848 4.4352-.7616 3.3002583-.7616 4.9728zm77.47421-4.1216c0-1.3738735-.194131-2.6879937-.5824-3.9424s-1.000529-2.3594619-1.8368-3.3152-1.896527-1.7173305-3.1808-2.2848-2.792525-.8512-4.5248-.8512c-3.225616 0-5.958389.970657-8.1984 2.912s-3.479465 4.4351848-3.7184 7.4816zm10.752 4.8384v1.4336c0 .477869-.029866.955731-.0896 1.4336h-32.704c.119467 1.553074.522663 2.971727 1.2096 4.256s1.597861 2.389329 2.7328 3.3152 2.419193 1.657597 3.8528 2.1952 2.926926.8064 4.48.8064c2.688013 0 4.957857-.492795 6.8096-1.4784s3.374927-2.344525 4.5696-4.0768l7.168 5.7344c-4.241088 5.734429-10.39356 8.6016-18.4576 8.6016-3.345083 0-6.421319-.522661-9.2288-1.568s-5.24159-2.523724-7.3024-4.4352-3.673594-4.255986-4.8384-7.0336-1.7472-5.928516-1.7472-9.4528c0-3.4645507.582394-6.6154525 1.7472-9.4528s2.762657-5.2565233 4.7936-7.2576 4.435186-3.5541278 7.2128-4.6592 5.779184-1.6576 9.0048-1.6576c2.986682 0 5.749321.4927951 8.288 1.4784s4.733857 2.449057 6.5856 4.3904 3.300261 4.3605188 4.3456 7.2576 1.568 6.2869139 1.568 10.1696z" fill="#fff" fill-rule="nonzero"/><g fill="#ff4800" transform="translate(0 .1376)"><path d="m-7.5 60h134v14h-134z" transform="matrix(-0 1 -1 -0 126.5 7.5)"/><path d="m-10.5 70h88v14h-88z" transform="matrix(-0 1 -1 -0 110.5 43.5)"/><path d="m-56 112h127v14h-127z" transform="matrix(-0 1 -1 -0 126.5 111.5)"/></g><g fill="#fff" fill-rule="nonzero"><path d="m355.5448 84.1664h-11.2896v22.1312c0 2.568546.477862 4.405328 1.4336 5.5104s2.478923 1.6576 4.5696 1.6576c.776537 0 1.612796-.089599 2.5088-.2688s1.702396-.447998 2.4192-.8064l.2688 6.8992c-1.015472.358402-2.135461.642132-3.36.8512s-2.49386.3136-3.808.3136c-4.002153 0-7.063456-1.105056-9.184-3.3152s-3.1808-5.525311-3.1808-9.9456v-23.0272h-8.1536v-6.8992h8.1536v-12.1856h8.3328v12.1856h11.2896zm16.68781-.448c1.015472-2.0906771 2.747721-3.8826592 5.1968-5.376s5.196785-2.24 8.2432-2.24c2.747747 0 5.10719.4629287 7.0784 1.3888s3.61386 2.1653256 4.928 3.7184 2.284797 3.3749229 2.912 5.4656.9408 4.3306547.9408 6.72v26.3424h-8.4224v-23.4752c0-1.7322753-.134398-3.3749256-.4032-4.928-.268801-1.5530744-.761596-2.9269274-1.4784-4.1216-.716803-1.1946726-1.68746-2.1503964-2.912-2.8672-1.224539-.7168036-2.82239-1.0752-4.7936-1.0752-3.345083 0-6.092789 1.2693206-8.2432 3.808-2.15041 2.5386794-3.2256 5.9285121-3.2256 10.1696v22.4896h-8.4224v-67.7376h8.4224v31.7184zm73.852611 11.0208c-.059734-1.6725417-.343464-3.240526-.8512-4.704s-1.254395-2.7327946-2.24-3.808-2.210126-1.9263969-3.6736-2.5536-3.18079-.9408-5.152-.9408c-1.792009 0-3.479459.3135969-5.0624.9408-1.582942.6272031-2.956795 1.4783946-4.1216 2.5536-1.164806 1.0752054-2.12053 2.344526-2.8672 3.808-.746671 1.463474-1.179733 3.0314583-1.2992 4.704zm8.512 3.4048v1.4336c0 .477869-.029867.955731-.0896 1.4336h-33.6896c.059733 1.792009.462929 3.479459 1.2096 5.0624.74667 1.582941 1.747193 2.956794 3.0016 4.1216 1.254406 1.164806 2.702925 2.07573 4.3456 2.7328s3.389857.9856 5.2416.9856c2.867214 0 5.346123-.627194 7.4368-1.8816s3.733327-2.777591 4.928-4.5696l5.9136 4.7488c-2.269878 2.986682-4.942918 5.18186-8.0192 6.5856s-6.495982 2.1056-10.2592 2.1056c-3.225616 0-6.212253-.537595-8.96-1.6128s-5.10719-2.583457-7.0784-4.5248-3.524261-4.285853-4.6592-7.0336-1.7024-5.794117-1.7024-9.1392c0-3.2853498.552527-6.3167861 1.6576-9.0944 1.105072-2.7776139 2.64319-5.1519901 4.6144-7.1232s4.300786-3.5093278 6.9888-4.6144c2.688013-1.1050722 5.585051-1.6576 8.6912-1.6576s5.92852.5077283 8.4672 1.5232c2.538679 1.0154717 4.689058 2.4789238 6.4512 4.3904s3.121062 4.2261197 4.0768 6.944 1.4336 5.779183 1.4336 9.184z"/><path d="m506.6264 113.0176c-1.612808 2.568546-3.807986 4.524793-6.5856 5.8688s-5.689585 2.016-8.736 2.016c-3.28535 0-6.24212-.582394-8.8704-1.7472s-4.868257-2.762657-6.72-4.7936-3.285328-4.420253-4.3008-7.168-1.5232-5.674651-1.5232-8.7808c0-3.1061489.507728-6.0181197 1.5232-8.736s2.463991-5.0922565 4.3456-7.1232 4.13652-3.613861 6.7648-4.7488 5.525318-1.7024 8.6912-1.7024c3.464551 0 6.481054.731726 9.0496 2.1952s4.599459 3.2405229 6.0928 5.3312h.1792v-31.6288h8.4224v67.7376h-8.1536v-6.72zm-27.9552-14.6048c0 1.97121.298664 3.882657.896 5.7344s1.493327 3.494393 2.688 4.928 2.658125 2.583462 4.3904 3.4496 3.763188 1.2992 6.0928 1.2992c2.150411 0 4.106658-.418129 5.8688-1.2544s3.270394-1.95626 4.5248-3.36 2.225063-3.031457 2.912-4.8832 1.0304-3.793057 1.0304-5.824c0-2.0309435-.343463-3.9722574-1.0304-5.824s-1.657594-3.4943928-2.912-4.928-2.762658-2.5685292-4.5248-3.4048-3.718389-1.2544-5.8688-1.2544c-2.329612 0-4.360525.4181292-6.0928 1.2544s-3.195727 1.9711928-4.3904 3.4048-2.090664 3.0762574-2.688 4.928-.896 3.7631901-.896 5.7344zm76.63021-6.1824c0-3.1658825-.955723-5.5103924-2.8672-7.0336-1.911476-1.5232076-4.450117-2.2848-7.616-2.2848-2.389345 0-4.644256.4629287-6.7648 1.3888s-3.897593 2.1055928-5.3312 3.5392l-4.48-5.376c2.090677-1.9712099 4.644252-3.524261 7.6608-4.6592 3.016549-1.134939 6.25705-1.7024 9.7216-1.7024 3.046416 0 5.689589.4330623 7.9296 1.2992 2.240012.8661377 4.076793 2.0458592 5.5104 3.5392s2.508797 3.2554565 3.2256 5.2864c.716804 2.0309435 1.0752 4.2111884 1.0752 6.5408v18.5472c0 1.433607.0448 2.941859.1344 4.5248.089601 1.582941.253866 2.882128.4928 3.8976h-7.616c-.477869-2.030943-.7168-4.061857-.7168-6.0928h-.2688c-1.553074 2.269878-3.509321 4.031994-5.8688 5.2864-2.359478 1.254406-5.151984 1.8816-8.3776 1.8816-1.672541 0-3.419724-.223998-5.2416-.672-1.821875-.448002-3.479459-1.179728-4.9728-2.1952-1.49334-1.015472-2.732795-2.359458-3.7184-4.032s-1.4784-3.733321-1.4784-6.1824c0-3.225616.866125-5.779191 2.5984-7.6608 1.732276-1.8816094 4.00212-3.3151951 6.8096-4.3008 2.807481-.9856049 5.973316-1.6277318 9.4976-1.9264 3.524285-.2986682 7.078382-.448 10.6624-.448zm-2.0608 7.2576c-2.090677 0-4.255988.0895991-6.496.2688-2.240011.1792009-4.270924.537597-6.0928 1.0752-1.821875.537603-3.330127 1.343995-4.5248 2.4192-1.194672 1.075205-1.792 2.508791-1.792 4.3008 0 1.254406.253864 2.299729.7616 3.136s1.179729 1.523197 2.016 2.0608 1.762129.910932 2.7776 1.12c1.015472.209068 2.060795.3136 3.136.3136 3.94242 0 6.973856-1.179722 9.0944-3.5392s3.1808-5.331182 3.1808-8.9152v-2.24zm39.535811 11.1104h.1792l11.7376-33.3312h8.96l-20.608 52.5056c-.716804 1.792009-1.49333 3.38986-2.3296 4.7936-.836271 1.40374-1.821861 2.598395-2.9568 3.584s-2.463993 1.747197-3.9872 2.2848c-1.523208.537603-3.330123.8064-5.4208.8064-.896005 0-1.806929-.0448-2.7328-.1344-.925872-.0896-1.866662-.253865-2.8224-.4928l.8064-7.4368c1.433607.477869 2.837326.7168 4.2112.7168 2.210144 0 3.852794-.612261 4.928-1.8368 1.075205-1.224539 2.060795-2.971722 2.9568-5.2416l2.688-7.0784-18.1888-42.4704h9.408z"/></g></g></svg>